<?xml version="1.0" encoding="utf-8"?>
<!-- Generator: Adobe Illustrator 16.0.0, SVG Export Plug-In . SVG Version: 6.00 Build 0)  -->
<!DOCTYPE svg PUBLIC "-//W3C//DTD SVG 1.1//EN" "http://www.w3.org/Graphics/SVG/1.1/DTD/svg11.dtd">
<svg version="1.1" id="Layer_1" xmlns="http://www.w3.org/2000/svg" xmlns:xlink="http://www.w3.org/1999/xlink" x="0px" y="0px"
	 width="24px" height="100px" viewBox="0 0 24 100" enable-background="new 0 0 24 100" xml:space="preserve">
<g>
	<path fill="none" d="M63.671-905.794c-0.005,4.892-2.777,9.723-7.907,11.777C60.897-896.073,63.668-900.903,63.671-905.794z"/>
	<path fill="none" d="M0.026-855.163c-0.016-0.308-0.071-0.615-0.071-0.922c0,0.001,0,0.001,0,0.002
		C-0.045-855.776,0.01-855.47,0.026-855.163z"/>
	<path fill="none" d="M38.63-902.62c-0.29-1.117-0.422-2.234-0.41-3.328C38.208-904.854,38.34-903.737,38.63-902.62z"/>
	<path fill="none" d="M5.366-789.668c0.036,0.015,0.069,0.035,0.102,0.059c-0.032-0.03-0.066-0.057-0.102-0.071
		c-3.859-1.524-5.362-3.723-5.363-7.902C0.003-793.403,1.506-791.191,5.366-789.668z"/>
	<path fill="none" d="M57.648-916.569c-1.366-0.823-2.853-1.358-4.407-1.751C54.796-917.882,56.283-917.375,57.648-916.569z"/>
	<path fill="none" d="M-11.674-850.018c-0.284,0.16-0.534,0.426-0.881,0.453c0.361-0.007,0.628-0.286,0.924-0.453
		c3.868-2.18,7.733-4.373,11.585-6.562c0,0,0,0,0-0.001c0-0.346,0.037-0.691,0.054-1.037c-0.017,0.345-0.06,0.691-0.081,1.037
		C-3.936-854.391-7.806-852.198-11.674-850.018z"/>
	<path fill="none" d="M101.994-856.431c-0.019,0.248-0.055,0.496-0.055,0.744c0,13.427,0.004,26.854,0.007,40.281l0,0
		c0.021,0.13,0.042,0.261,0.063,0.391c-0.09,1.028-0.121,2.056-0.127,3.084c0.006-1.028,0.037-2.056,0.127-3.083c0,0,0,0,0,0
		c-0.021-0.13-0.042-0.261-0.062-0.391c-0.003-13.427-0.005-26.855-0.005-40.282c0-0.248,0.039-0.496,0.058-0.744
		c0.02-0.045,0.021-0.087-0.002-0.129c-0.005-0.003-0.009-0.005-0.015-0.008C102.011-856.524,102.015-856.479,101.994-856.431z"/>
	<path fill="none" d="M101.9-805.441c0.001-0.45,0.004-0.9,0.01-1.35c0.004-0.343,0.006-0.686,0.004-1.029
		c0.001,0.342,0,0.685-0.004,1.026C101.904-806.343,101.901-805.892,101.9-805.441z"/>
	<path fill="none" d="M101.845-855.488c-0.001-0.267,0.009-0.533,0.091-0.79C101.854-856.021,101.844-855.755,101.845-855.488z"/>
	<path fill="none" d="M-12.532-821.976c0.377,0.011,0.642,0.313,0.944,0.483c3.835,2.155,7.658,4.332,11.484,6.502
		c0.036,0.458,0.153,0.918,0.154,1.376C0.048-814.072,0-814.532,0-814.99c0-0.002,0-0.004,0-0.006
		c-3-2.168-7.682-4.343-11.513-6.496C-11.823-821.667-12.17-821.982-12.532-821.976z"/>
	<path fill="#6383BD" d="M47.224-880.341c-6.562,0-13.124-0.003-19.686-0.004c-6.562-0.001-13.124-0.001-19.685,0.005
		c-4.781,0.004-7.827,3.049-7.846,7.826c-0.019,4.851-0.002,9.701-0.008,14.551c0,0.115,0.037,0.23,0.032,0.346
		C0.014-857.272,0-856.949,0-856.604c0,0,0-0.396,0-0.396h-0.078C-0.056-857,0-856.273,0-856.12c0,0.012,0,0.023,0,0.035
		c0,0.307,0.048,0.614,0.064,0.922c0.006,0.106,0.005,0.212,0.005,0.318c0.005,12.721,0.009,25.441,0.004,38.162
		c0,0.399-0.074,0.799-0.074,1.199c0,0.025,0,0.05,0,0.076c0,0.139-0.058,0.278-0.086,0.418c-0.003-0.002-0.01-0.004-0.014-0.006
		c0,0.002-0.002,0.004-0.002,0.006c0.036,0.458,0.101,0.918,0.102,1.376c0.007,5.344,0.003,10.688,0.004,16.032
		c0.001,4.179,1.503,6.378,5.363,7.902c0.036,0.014,0.069,0.041,0.102,0.071c0.062,0.044,0.12,0.325,0.18,0.375
		C5.66-789.229,5.672-789,5.686-789c15.125,0,30.249,0,45.374,0c0.002-31,0.004-60.699,0.007-90.941
		C49.788-880.062,48.491-879.987,47.224-880.341z M32.792-825.796c-5.053,0.011-9.099-4.009-9.127-9.069
		c-0.027-4.979,4.117-9.12,9.116-9.107c4.959,0.012,9.057,4.095,9.075,9.043C41.874-829.885,37.827-825.807,32.792-825.796z"/>
	<path fill="#4C70AE" d="M101.9-805.441c0.001-0.451,0.004-0.902,0.01-1.353c0.004-0.342,0.006-0.684,0.004-1.026
		c-0.003-1.37-0.041-2.741-0.033-4.111c0.006-1.028,0.064-2.056,0.155-3.084c-0.021-0.13-0.037-0.26-0.037-0.391l0,0
		c0,0.001,0,0.001,0,0.001c0-0.292-0.093-0.583-0.112-0.874c-0.006-0.097-0.023-0.194-0.023-0.292
		c-0.005-12.866-0.011-25.731-0.011-38.597c0-0.107-0.005-0.214-0.006-0.32c-0.001-0.267,0.007-0.533,0.089-0.79
		c0.017-0.051,0.035-0.103,0.058-0.153c0.021-0.048,0.016-0.093-0.012-0.137c-0.026-2.03-0.067-4.06-0.075-6.091
		c-0.013-3.209,0.006-6.42-0.007-9.629c-0.02-5.077-2.99-8.043-8.054-8.045c-13.054-0.006-26.107-0.004-39.161-0.005
		c-1.194,0.326-2.417,0.277-3.621,0.397l0,0C51.063-849.699,51.062-820,51.059-789c14.982,0,29.964,0,44.946,0
		c0.177-1,0.561-0.458,0.842-0.562c2.914-1.076,4.763-3.219,4.945-6.325c0.104-1.794,0.122-3.648,0.12-5.447
		C101.91-802.684,101.896-804.091,101.9-805.441z M69.145-825.795c-5.045,0-9.08-4.036-9.096-9.101
		c-0.017-4.973,4.149-9.107,9.148-9.076c4.961,0.03,9.039,4.122,9.043,9.074C78.245-829.857,74.187-825.796,69.145-825.795z"/>
	<path fill="#9FABBD" d="M38.22-905.948c-0.012,1.094,0.121,2.211,0.41,3.328c1.083,4.179,3.709,7.069,7.704,8.701
		c0.515,0.21,0.968,0.353,0.961,1.067c-0.042,4.17-0.051,8.34-0.071,12.51c1.268,0.354,2.564,0.054,3.842,0.174l0,0
		c1.204-0.12,2.426,0.155,3.621-0.171c-0.019-3.992-0.01-7.984-0.079-11.975c-0.016-0.93,0.276-1.351,1.157-1.704
		c5.13-2.055,7.901-6.886,7.907-11.777c0.005-3.572-1.465-7.176-4.566-9.754c-0.468-0.389-0.955-0.725-1.457-1.021
		c-1.366-0.805-2.853-1.312-4.407-1.751c-0.197-0.056-0.396,0.144-0.595,0.09c-0.03-0.009-0.059,0.23-0.089,0.23
		c-1.07,0-2.14,0-3.21,0c-0.053,0-0.105-0.245-0.159-0.23c-0.181,0.05-0.363,0.036-0.548,0.07
		C42.512-917.008,38.279-911.86,38.22-905.948z"/>
	<path fill="#39517A" d="M-12.695-821.976c0.362-0.006,0.739,0.309,1.05,0.483c3.831,2.153,7.679,4.328,11.502,6.496
		c0.003,0.002,0.033,0.004,0.037,0.006C-0.078-815.13,0-815.269,0-815.408c0-0.025,0-0.05,0-0.076c0,0.025-0.01,0.05-0.011,0.076
		c0-13.571,0.004-27.142,0.004-40.712C-0.006-856.107,0-856.095,0-856.083c0-0.001,0-0.001,0-0.002c0-0.012,0-0.023,0-0.035
		c0-0.153-0.074-0.88-0.096-0.88h0.007c-3.863,2-7.696,4.592-11.563,6.772c-0.296,0.167-0.707,0.551-1.067,0.558
		c-0.039,0.001-0.28,0.107-0.28,0.101c0,0,0,0.001,0,0.002c0,9.201,0,18.401,0,27.603C-13-821.973-12.741-821.978-12.695-821.976z"
		/>
	<path fill="#39517A" d="M115-821.96c0-9.203,0-18.406,0-27.609c0,0.009-0.277,0.011-0.33,0.008
		c-0.331-0.019-0.635-0.26-0.893-0.405c-3.899-2.195-7.846-4.399-11.741-6.601c0.002,0.003-0.019,0.006-0.018,0.008
		c0.023,0.042,0.012,0.084-0.008,0.129c-0.019,0.248-0.063,0.496-0.063,0.744c0,13.427,0,26.855,0.003,40.282
		c0.021,0.13,0.04,0.26,0.061,0.39c3.826-2.163,7.648-4.331,11.481-6.478c0.315-0.177,0.753-0.497,1.156-0.482
		C114.711-821.979,115-821.976,115-821.96z"/>
	<path fill="#9FABBD" d="M0-856.12c0,13.57,0,27.141,0,40.712c0-0.025-0.004-0.05-0.003-0.076c0.03-0.4,0.073-0.8,0.073-1.199
		c0.005-12.721,0.002-25.441-0.002-38.162c0-0.106-0.004-0.212-0.01-0.318c-0.016-0.307-0.041-0.613-0.062-0.919
		C-0.005-856.095,0-856.107,0-856.12z"/>
	<path fill="#9FABBD" d="M101.994-856.431c-0.022,0.05-0.042,0.102-0.058,0.153c-0.082,0.257-0.092,0.523-0.091,0.79
		c0,0.106,0.002,0.213,0.002,0.32c0,12.866-0.001,25.731,0.003,38.597c0,0.097,0.031,0.194,0.037,0.292
		c0.02,0.291,0.112,0.583,0.112,0.874c0,0,0,0,0-0.001c0-13.426-0.033-26.854-0.033-40.281
		C101.967-855.935,101.975-856.183,101.994-856.431z"/>
</g>
<g>
	<circle fill="#D85642" cx="210.418" cy="-845.418" r="64"/>
	<path fill="#FDF7E4" d="M243.047-850.528c0.893-8.535-1.042-16.297-6.096-23.258c-0.172-0.236-0.32-0.491-0.479-0.737l-0.027-0.039
		c-0.096-0.127-0.191-0.255-0.287-0.382c-0.214-0.199-0.449-0.379-0.637-0.6c-4.665-5.48-10.508-9.014-17.51-10.667
		c-13.08-3.088-27.137,2.582-34.422,13.832c-5.492,8.48-6.536,17.618-4.163,27.266c1.862,7.568,5.269,14.477,9.359,21.053
		c6.186,9.946,13.663,18.859,21.945,27.114c10.046-9.948,19.026-20.731,25.663-33.292
		C239.757-836.604,242.289-843.275,243.047-850.528z M210.709-835.445c-10.475-0.015-19.08-8.625-19.062-19.074
		c0.018-10.456,8.646-19.081,19.092-19.08c10.48,0,19.081,8.578,19.098,19.047C229.854-843.985,221.287-835.428,210.709-835.445z"/>
	<g>
		<path fill="#B84536" d="M273.935-837.671c-0.296-0.265-0.599-0.524-0.88-0.806c-11.688-11.689-23.371-23.383-35.064-35.067
			c-0.054-0.053-0.105-0.11-0.156-0.167c-0.358-0.405-0.691-0.881-1.361-0.812c0.158,0.246,0.307,0.5,0.479,0.737
			c5.054,6.961,6.988,14.723,6.096,23.258c-0.758,7.253-3.29,13.925-6.652,20.29c-6.637,12.561-15.617,23.344-25.663,33.292
			c0.089,0.646,0.614,0.979,1.013,1.395c4.08,4.245,8.481,8.176,12.311,12.664C250.385-788.604,270.656-810.515,273.935-837.671z"/>
	</g>
	<path fill="#B84536" d="M236.158-874.945c0.096,0.127,0.191,0.255,0.287,0.382C236.5-874.804,236.542-875.035,236.158-874.945z"/>
	<path fill="#D85643" d="M210.738-873.599c-10.445-0.001-19.074,8.624-19.092,19.08c-0.018,10.449,8.588,19.059,19.062,19.074
		c10.578,0.017,19.145-8.541,19.127-19.106C229.819-865.021,221.219-873.598,210.738-873.599z M210.673-845.012
		c-5.156-0.014-9.384-4.275-9.401-9.478c-0.02-5.262,4.231-9.504,9.508-9.489c5.273,0.016,9.506,4.282,9.459,9.533
		C220.189-849.158,215.971-844.998,210.673-845.012z"/>
	<path fill="#FDF7E4" d="M210.779-863.979c-5.276-0.015-9.527,4.227-9.508,9.489c0.018,5.203,4.245,9.464,9.401,9.478
		c5.298,0.014,9.517-4.146,9.565-9.434C220.285-859.697,216.053-863.963,210.779-863.979z"/>
</g>
<g>
	<path fill="#89A02B" d="M347-802v-39.843l50.093-21.364l28.009,23.459c0.141-1.734,0.273-3.481,0.273-5.252
		c0-35.346-28.632-64-63.979-64c-35.346,0-63.989,28.654-63.989,64s28.659,64,64.005,64c2.842,0,5.637-0.213,8.38-0.572L345.488-802
		H347z"/>
	<path fill="#798225" d="M425.186-839.748l-28.093-23.459L347-841.843V-802h-1.512l24.307,20.428
		C399.471-785.454,422.738-809.645,425.186-839.748z"/>
	<polygon fill="#FDF7E4" points="347,-841.843 347,-884.631 347,-888 344,-888 344,-803.072 345.488,-802 347,-802 	"/>
	<polygon fill="#FDF7E4" points="397.334,-863.238 397.116,-863.331 397.263,-863.207 	"/>
	<polygon fill="#FDF7E4" points="347,-841.843 397.093,-863.207 396.861,-863.331 347,-884.631 	"/>
</g>
<g>
	<g>
		<path fill="#1A1A1A" d="M801.199-903.257c-24.992-24.996-65.514-24.994-90.508,0s-24.994,65.515,0,90.507
			c24.994,24.996,65.516,24.996,90.508,0C826.193-837.742,826.195-878.263,801.199-903.257z M789.887-824.062
			c-18.713,18.715-49.166,18.715-67.882,0c-18.716-18.712-18.714-49.167,0-67.88c18.715-18.715,49.167-18.715,67.882,0
			C808.604-873.229,808.602-842.777,789.887-824.062z M778.518-869.373c-3.094-3.094-8.111-3.092-11.205,0l-8.541,8.542
			c-1.561,1.562-4.094,1.562-5.656,0l-8.543-8.542c-3.094-3.092-8.107-3.092-11.199,0l-0.113,0.112
			c-3.094,3.094-3.094,8.107,0,11.202l17.084,17.083c3.092,3.096,8.107,3.096,11.199,0l0.059-0.055l5.656-5.656l11.369-11.372
			c3.096-3.093,3.096-8.108,0-11.202L778.518-869.373z"/>
	</g>
</g>
<path fill="#1A1A1A" d="M960.672-903.257c-24.992-24.996-65.514-24.994-90.508,0s-24.994,65.515,0,90.507
	c24.994,24.996,65.516,24.996,90.508,0C985.666-837.742,985.668-878.263,960.672-903.257z M949.359-824.062
	c-18.713,18.715-49.166,18.715-67.882,0c-18.716-18.712-18.714-49.167,0-67.88c18.715-18.715,49.167-18.715,67.882,0
	C968.076-873.229,968.074-842.777,949.359-824.062z"/>
<polygon points="902,-832.887 939.836,-859.159 939.751,-859.311 902,-885.504 "/>
<g>
	<g>
		
			<line fill="none" stroke="#1A1A1A" stroke-width="8" stroke-linecap="round" stroke-miterlimit="10" x1="39" y1="-680" x2="39" y2="-603"/>
		
			<polyline fill="none" stroke="#1A1A1A" stroke-width="8" stroke-linecap="round" stroke-linejoin="round" stroke-miterlimit="10" points="
			43.577,-634.597 90.968,-657.593 43.577,-673.814 		"/>
	</g>
	
		<circle fill="none" stroke="#1A1A1A" stroke-width="8" stroke-linecap="round" stroke-miterlimit="10" cx="57.114" cy="-641" r="64"/>
</g>
<g>
	<path fill="#EA6E52" d="M255.149-661.378L207.815-677.6c-0.624-0.213-0.815-0.246-1.815-0.155V-680c0-2.209-1.791-4-4-4
		s-4,1.791-4,4v77c0,2.209,1.791,4,4,4s4-1.791,4-4v-27.641c0,0.028,0.328,0.045,0.523,0.045c0.586,0,1.151-0.13,1.713-0.402
		l47.377-22.996c1.459-0.708,2.339-2.225,2.241-3.843C257.755-659.455,256.683-660.854,255.149-661.378z M206-638.764v-31.021
		l37.486,12.831L206-638.764z"/>
	<path fill="#EA6E52" d="M220-709c-37.495,0-68,30.504-68,68c0,37.494,30.505,68,68,68s68-30.506,68-68
		C288-678.496,257.495-709,220-709z M220-581c-33.084,0-60-26.916-60-60s26.916-60,60-60s60,26.916,60,60S253.084-581,220-581z"/>
</g>
<path fill="none" stroke="#000000" stroke-width="8" stroke-miterlimit="10" d="M629.119-871.236
	c0.759-7.261-0.887-13.864-5.187-19.786c-0.146-0.201-0.272-0.417-0.407-0.626l-0.022-0.033c-0.082-0.108-0.163-0.217-0.245-0.326
	c-0.182-0.169-0.381-0.322-0.541-0.51c-3.969-4.662-8.939-7.668-14.896-9.074c-11.126-2.627-23.083,2.196-29.281,11.767
	c-4.672,7.214-5.56,14.987-3.541,23.195c1.584,6.437,4.481,12.314,7.962,17.908c5.262,8.46,11.623,16.043,18.668,23.064
	c8.546-8.462,16.186-17.635,21.83-28.319C626.32-859.391,628.474-865.067,629.119-871.236z M601.609-858.406
	c-8.91-0.013-16.23-7.337-16.215-16.226c0.015-8.894,7.355-16.23,16.24-16.23c8.916,0.001,16.231,7.298,16.246,16.204
	C617.896-865.67,610.607-858.391,601.609-858.406z"/>
<g>
	
		<circle fill="none" stroke="#1A1A1A" stroke-width="8" stroke-linecap="round" stroke-miterlimit="10" cx="408.529" cy="-640.775" r="64"/>
	<path stroke="#1A1A1A" stroke-width="3" stroke-miterlimit="10" d="M423.002-662.637c7.678,0,14.255,5.658,15.301,13.164
		c0.727,5.215-0.725,9.609-4.434,13.434c-7.802,8.045-21.795,22.059-24.521,24.785c-0.279,0.281-0.598,0.34-0.815,0.34
		s-0.536-0.059-0.815-0.34c-6.135-6.158-17.272-17.35-23.713-23.836c-2.894-2.912-4.596-6.039-5.203-9.557
		c-1.088-6.295,1.904-12.676,7.443-15.879c2.381-1.375,5.057-2.104,7.742-2.104c3.916,0,7.688,1.521,10.621,4.283
		c1.293,1.219,2.579,1.59,3.664,1.59c1.396,0,2.459-0.613,2.779-0.82c0.686-0.447,1.348-0.908,2.003-1.361
		c1.177-0.82,2.288-1.592,3.343-2.123C418.473-662.105,420.694-662.637,423.002-662.637 M423.002-667.721
		c-2.972,0-5.996,0.67-8.865,2.113c-2.015,1.016-3.82,2.453-5.831,3.766l0,0c0,0-0.13-0.104-0.25-0.217
		c-3.961-3.729-8.985-5.654-14.069-5.654c-3.501,0-7.029,0.914-10.255,2.779c-7.414,4.285-11.36,12.73-9.903,21.158
		c0.836,4.844,3.195,8.846,6.605,12.281c6.443,6.486,17.582,17.682,23.719,23.84c1.211,1.217,2.795,1.822,4.38,1.822
		c1.581,0,3.163-0.604,4.372-1.814c6.301-6.303,17.89-17.945,24.575-24.84c4.717-4.863,6.772-10.871,5.822-17.691
		C441.848-660.611,432.698-667.721,423.002-667.721L423.002-667.721z"/>
</g>
<g>
	<path fill="none" d="M583.002-661.137c-2.068,0-4.064,0.477-5.932,1.416c-0.972,0.489-2.084,1.265-3.159,2.014l-0.167,0.116
		c-0.613,0.424-1.233,0.854-1.874,1.271c-0.499,0.322-1.837,1.063-3.599,1.063c-1.683,0-3.305-0.691-4.693-1.998
		c-2.653-2.499-6.06-3.875-9.592-3.875c-2.42,0-4.838,0.658-6.992,1.902c-4.998,2.89-7.696,8.646-6.715,14.324
		c0.554,3.206,2.12,6.069,4.789,8.755c6.354,6.4,17.281,17.381,23.464,23.587c2.532-2.532,16.448-16.468,24.261-24.522
		c3.366-3.472,4.683-7.456,4.024-12.183C595.874-656.033,589.936-661.137,583.002-661.137z"/>
	<path fill="none" d="M568.528-700.775c-33.084,0-60,26.916-60,60s26.916,60,60,60c33.085,0,60.001-26.916,60.001-60
		S601.613-700.775,568.528-700.775z M598.557-631.442c-7.927,8.175-21.875,22.14-24.591,24.856
		c-1.451,1.453-3.381,2.254-5.434,2.254c-2.057,0-3.989-0.804-5.442-2.265c-6.137-6.157-17.277-17.354-23.721-23.841
		c-3.877-3.906-6.174-8.187-7.02-13.083c-1.557-9.009,2.715-18.137,10.631-22.712c3.373-1.95,7.179-2.98,11.006-2.98
		c5.298,0,10.396,1.938,14.451,5.477c0.302-0.206,0.6-0.414,0.896-0.62c1.31-0.911,2.664-1.853,4.127-2.591
		c3-1.509,6.21-2.273,9.541-2.273c10.924,0,20.289,8.098,21.785,18.836C605.785-643.224,603.63-636.674,598.557-631.442z"/>
	<path fill="#EA6E52" d="M568.528-708.775c-37.495,0-68,30.505-68,68s30.505,68,68,68c37.496,0,68.001-30.505,68.001-68
		S606.024-708.775,568.528-708.775z M568.528-580.775c-33.084,0-60-26.916-60-60s26.916-60,60-60c33.085,0,60.001,26.916,60.001,60
		S601.613-580.775,568.528-580.775z"/>
	<path fill="#EA6E52" d="M583.002-669.221c-3.331,0-6.541,0.765-9.541,2.273c-1.463,0.738-2.817,1.68-4.127,2.591
		c-0.297,0.206-0.595,0.414-0.896,0.62c-4.055-3.538-9.153-5.477-14.451-5.477c-3.827,0-7.633,1.03-11.006,2.98
		c-7.916,4.575-12.188,13.703-10.631,22.712c0.846,4.896,3.143,9.177,7.02,13.083c6.443,6.487,17.584,17.684,23.721,23.841
		c1.453,1.461,3.386,2.265,5.442,2.265c2.053,0,3.982-0.801,5.434-2.254c2.716-2.717,16.664-16.682,24.591-24.856
		c5.073-5.231,7.229-11.781,6.23-18.942C603.291-661.123,593.926-669.221,583.002-669.221z M592.793-637.083
		c-7.812,8.055-21.729,21.99-24.261,24.522c-6.183-6.206-17.109-17.187-23.464-23.587c-2.669-2.686-4.235-5.549-4.789-8.755
		c-0.981-5.678,1.717-11.435,6.715-14.324c2.154-1.244,4.572-1.902,6.992-1.902c3.532,0,6.938,1.376,9.592,3.875
		c1.389,1.307,3.011,1.998,4.693,1.998c1.762,0,3.1-0.741,3.599-1.063c0.641-0.418,1.261-0.848,1.874-1.271l0.167-0.116
		c1.075-0.749,2.188-1.524,3.159-2.014c1.867-0.939,3.863-1.416,5.932-1.416c6.934,0,12.872,5.104,13.815,11.871
		C597.476-644.539,596.159-640.555,592.793-637.083z"/>
</g>
<g>
	
		<circle fill="none" stroke="#1A1A1A" stroke-width="8" stroke-linecap="round" stroke-miterlimit="10" cx="758.529" cy="-636.863" r="64"/>
	<polygon fill="none" stroke="#1A1A1A" stroke-width="8" stroke-linecap="round" stroke-miterlimit="10" points="758.619,-617.467 
		779.739,-606.363 775.706,-629.881 792.792,-646.536 769.18,-649.967 758.619,-671.363 748.06,-649.967 724.447,-646.536 
		741.533,-629.881 737.5,-606.363 	"/>
</g>
<g>
	<path fill="#EA6E52" d="M918.528-704.863c-37.495,0-68,30.505-68,68s30.505,68,68,68c37.496,0,68.001-30.505,68.001-68
		S956.024-704.863,918.528-704.863z M918.528-576.863c-33.084,0-60-26.916-60-60s26.916-60,60-60c33.085,0,60.001,26.916,60.001,60
		S951.613-576.863,918.528-576.863z"/>
	<path fill="#EA6E52" d="M935.794-653.048c-2.177-0.316-4.755-2.189-5.729-4.162l-9.676-19.604c-0.974-1.973-2.567-1.973-3.541,0
		l-9.675,19.604c-0.974,1.973-3.552,3.846-5.729,4.162l-21.636,3.144c-2.177,0.316-2.669,1.832-1.094,3.367l15.655,15.261
		c1.575,1.535,2.56,4.566,2.188,6.734l-3.696,21.549c-0.371,2.168,0.918,3.104,2.865,2.081l19.35-10.174
		c1.947-1.023,5.135-1.023,7.082,0l19.351,10.173c1.948,1.023,3.236,0.087,2.865-2.081l-3.696-21.548
		c-0.371-2.168,0.613-5.199,2.188-6.734l15.655-15.261c1.575-1.535,1.083-3.051-1.094-3.367L935.794-653.048z M933.751-617.617
		c0.371,2.168-0.917,3.104-2.864,2.081l-8.728-4.589c-1.947-1.023-5.133-1.023-7.08,0l-8.727,4.588
		c-1.947,1.023-3.235,0.087-2.864-2.081l1.667-9.717c0.372-2.168-0.613-5.199-2.188-6.734l-7.06-6.882
		c-1.575-1.535-1.083-3.051,1.094-3.367l9.757-1.417c2.177-0.316,4.755-2.189,5.729-4.162l4.362-8.841
		c0.974-1.973,2.567-1.973,3.541,0l4.363,8.841c0.974,1.973,3.552,3.846,5.729,4.162l9.757,1.417
		c2.177,0.316,2.669,1.832,1.094,3.367l-7.06,6.882c-1.575,1.535-2.56,4.566-2.188,6.734L933.751-617.617z"/>
</g>
<g>
	<g>
		
			<line fill="none" stroke="#1A1A1A" stroke-width="8" stroke-linecap="round" stroke-miterlimit="10" x1="29.498" y1="-441.483" x2="55.584" y2="-420.554"/>
		
			<line fill="none" stroke="#1A1A1A" stroke-width="8" stroke-linecap="round" stroke-miterlimit="10" x1="55.584" y1="-420.554" x2="76.833" y2="-477.102"/>
	</g>
	
		<circle fill="none" stroke="#1A1A1A" stroke-width="8" stroke-linecap="round" stroke-miterlimit="10" cx="56.114" cy="-448" r="64"/>
</g>
<g>
	<path fill="#EA6E52" d="M238.24-480.846c-2.069-0.78-4.375,0.269-5.15,2.337l-19.308,51.381L192-444.604
		c-1.722-1.381-4.239-1.106-5.623,0.617c-1.382,1.723-1.105,4.24,0.617,5.623l26.088,20.93c0.066,0.054,0.14,0.092,0.209,0.14
		c0.085,0.061,0.168,0.12,0.26,0.174c0.156,0.093,0.317,0.17,0.482,0.239c0.05,0.021,0.093,0.052,0.145,0.071
		c0.014,0.006,0.029,0.007,0.044,0.013c0.159,0.058,0.321,0.097,0.485,0.134c0.065,0.015,0.13,0.038,0.195,0.05
		c0.186,0.031,0.373,0.044,0.559,0.05c0.041,0.001,0.082,0.011,0.123,0.011c0.264,0,0.522-0.035,0.777-0.086
		c0.064-0.014,0.128-0.028,0.191-0.045c0.227-0.057,0.447-0.129,0.658-0.224c0.031-0.014,0.062-0.022,0.094-0.036
		c0.234-0.112,0.453-0.253,0.662-0.408c0.054-0.04,0.105-0.081,0.156-0.124c0.209-0.172,0.406-0.357,0.578-0.571
		c0.001-0.002,0.002-0.003,0.004-0.004v-0.001c0.151-0.188,0.282-0.396,0.398-0.614c0.039-0.073,0.07-0.147,0.104-0.222
		c0.041-0.087,0.088-0.168,0.121-0.259l21.25-56.548C241.355-477.763,240.309-480.069,238.24-480.846z"/>
	<path fill="#EA6E52" d="M216.114-516c-37.495,0-68,30.505-68,68s30.505,68,68,68s68-30.505,68-68S253.609-516,216.114-516z
		 M216.114-388c-33.084,0-60-26.916-60-60s26.916-60,60-60s60,26.916,60,60S249.198-388,216.114-388z"/>
</g>
<g id="ojCDV6.tif">
	<g>
		<path d="M799-365.312c0,4.073,0,8.142,0,12.216c-0.32,2.614-0.571,5.23-0.963,7.826c-4.102,27.18-17.026,49.221-38.824,65.935
			c-13.67,10.483-29.155,16.847-46.255,19.161c-3.755,0.512-7.537,0.789-11.309,1.174c-1.767,0-3.533,0-5.3,0
			c-0.661-0.094-1.319-0.221-1.99-0.285c-3.637-0.361-7.312-0.512-10.92-1.095c-19.277-3.116-36.318-11.098-50.861-24.151
			c-16.685-14.965-27.312-33.477-31.542-55.52c-1.027-5.363-1.377-10.866-2.036-16.299c0-1.902,0-3.805,0-5.708
			c0.102-0.724,0.256-1.452,0.3-2.187c0.943-18.086,6.275-34.79,16.381-49.811c15.86-23.554,37.796-38.073,65.753-43.321
			c3.854-0.725,7.773-1.092,11.662-1.625c4.074,0,8.144,0,12.216,0c0.455,0.115,0.898,0.302,1.352,0.334
			c13.648,0.97,26.599,4.526,38.612,11.045c28.51,15.477,45.971,39.169,52.121,71.077C798.106-372.835,798.472-369.061,799-365.312z
			 M755.354-354.703c0-3.061,0-5.806,0-8.763c-17.362,0-34.567,0-51.995,0c0-17.422,0-34.626,0-51.942c-2.959,0-5.698,0-8.692,0
			c0,17.369,0,34.623,0,52.068c-17.469,0-34.677,0-51.979,0c0,2.933,0,5.677,0,8.643c17.363,0,34.625,0,52.106,0
			c0,17.488,0,34.75,0,51.967c2.979,0,5.727,0,8.645,0c0-17.362,0-34.578,0-51.973C720.822-354.703,738.032-354.703,755.354-354.703
			z"/>
	</g>
</g>
<path d="M451.42-418.174l1.094,0.094l1.094-0.094c17.369,0.02,32.318,4.394,41.81,8.064c4.732,1.83,8.628,3.676,11.487,5.156
	c0.187,5.107,0.376,12.521,0.311,20.479c-0.212,25.646-2.819,33.527-3.613,35.331c-4.44,10.087-9.936,18.937-16.332,26.303
	c-5.078,5.848-10.752,10.8-16.864,14.718c-8.102,5.193-14.921,7.25-17.896,7.965c-2.973-0.713-9.786-2.764-17.88-7.949
	c-6.11-3.916-11.783-8.866-16.862-14.715c-6.399-7.369-11.897-16.225-16.342-26.321c-0.791-1.799-3.392-9.652-3.611-35.192
	c-0.069-7.994,0.122-15.477,0.31-20.622c2.709-1.402,6.362-3.138,10.806-4.886C418.564-413.636,433.746-418.154,451.42-418.174
	 M453.486-431.105c-0.331,0-0.654,0.02-0.973,0.047c-0.318-0.027-0.642-0.047-0.973-0.047c-38.236,0-66.016,18.458-66.016,18.458
	s-3.068,52.507,4.066,68.714c22.588,51.314,62.105,56.882,62.922,56.938c0.76-0.047,40.334-5.623,62.923-56.938
	c7.134-16.207,4.065-68.714,4.065-68.714S491.723-431.105,453.486-431.105L453.486-431.105z"/>
<g>
	<g>
		<path fill="#00FFFF" d="M332.8-354.638c0,0-31.074-20.647-73.851-20.647c-0.371,0-0.731,0.018-1.088,0.053
			c-0.356-0.035-0.717-0.053-1.088-0.053c-42.775,0-73.853,20.647-73.853,20.647s-3.431,58.737,4.551,76.869
			c25.268,57.406,69.476,63.638,70.39,63.698c0.85-0.055,45.122-6.292,70.394-63.698C336.234-295.9,332.8-354.638,332.8-354.638z
			 M319.055-323.119c-0.236,28.689-3.151,37.504-4.04,39.523c-4.969,11.283-11.115,21.184-18.271,29.428
			c-5.683,6.538-12.029,12.078-18.868,16.465c-9.062,5.809-16.691,8.107-20.021,8.91c-3.325-0.798-10.946-3.094-20.001-8.896
			c-6.836-4.382-13.182-9.917-18.865-16.462c-7.157-8.244-13.309-18.151-18.28-29.445c-0.886-2.012-3.793-10.799-4.039-39.37
			c-0.079-8.942,0.135-17.312,0.346-23.069c3.031-1.569,7.118-3.51,12.088-5.467c10.778-4.242,27.763-9.297,47.533-9.318
			l1.225,0.105l1.225-0.105c19.433,0.021,36.154,4.913,46.771,9.02c5.297,2.05,9.651,4.113,12.853,5.769
			C318.916-340.316,319.129-332.022,319.055-323.119z"/>
		<path fill="#00FFFF" d="M252.241-340.305l-28.451,71.893h68.223l-26.599-71.893H252.241z M253.095-279.525h-11.876l17.457-45.796
			l6.469,18.554L253.095-279.525z M271.668-289.827l3.884,10.302h-8.377L271.668-289.827z"/>
	</g>
</g>
<g>
	<g>
		<path d="M52.591-132.606c0,0-24.672-16.394-58.635-16.394c-0.294,0-0.581,0.014-0.864,0.042C-7.188-148.986-7.478-149-7.772-149
			c-33.962,0-58.637,16.394-58.637,16.394s-2.724,46.636,3.613,61.032C-42.734-25.995-7.634-21.049-6.908-21
			c0.675-0.043,35.826-4.995,55.891-50.574C55.318-85.971,52.591-132.606,52.591-132.606z M41.677-107.581
			c-0.188,22.778-2.502,29.776-3.207,31.38c-3.946,8.958-8.826,16.819-14.506,23.365c-4.512,5.19-9.551,9.589-14.981,13.072
			C1.788-35.151-4.27-33.327-6.913-32.689c-2.641-0.633-8.691-2.457-15.88-7.062c-5.428-3.479-10.466-7.874-14.979-13.07
			c-5.683-6.546-10.567-14.412-14.514-23.379c-0.703-1.598-3.012-8.574-3.207-31.259c-0.063-7.1,0.106-13.745,0.274-18.316
			c2.407-1.245,5.651-2.789,9.597-4.341c8.558-3.368,22.043-7.381,37.74-7.398l0.972,0.084l0.972-0.084
			c15.429,0.018,28.706,3.901,37.135,7.161c4.206,1.628,7.663,3.267,10.204,4.58C41.567-121.236,41.736-114.65,41.677-107.581z"/>
		<path d="M-11.37-121.227l-22.59,57.081h54.167l-21.119-57.081H-11.37z M-10.693-72.97h-9.429l13.861-36.36l5.136,14.731
			L-10.693-72.97z M4.054-81.148l3.083,8.179h-6.65L4.054-81.148z"/>
	</g>
</g>
<g>
	<path fill="#FFFFFF" d="M-40.309-1050.007c-18.565,0-33.679,15.105-33.679,33.672s15.113,33.674,33.679,33.674
		c17.812,0,32.861-15.422,32.861-33.674C-7.447-1034.585-22.497-1050.007-40.309-1050.007z M-25.334-1000.894
		c-4.028,4.217-9.341,6.541-14.975,6.541c-12.12,0-21.981-9.861-21.981-21.982c0-12.122,9.861-21.983,21.981-21.983
		c5.634,0,10.946,2.322,14.975,6.533c3.99,4.192,6.196,9.681,6.196,15.45S-21.344-1005.083-25.334-1000.894z"/>
	<path fill="#FFFFFF" d="M82.824-1049.645l-26.312,66.485h63.092l-24.596-66.485H82.824z M83.613-993.437H72.631l16.145-42.353
		l5.98,17.161L83.613-993.437z M100.791-1002.962l3.59,9.525h-7.744L100.791-1002.962z"/>
	<path fill="#FFFFFF" d="M-89.662-1001.784c-0.065,0.072-6.95,7.4-17.585,7.4c-11.918,0-20.897-9.627-20.897-22.388
		c0-12.519,8.751-21.605,20.813-21.605c9.693,0,16.397,6.134,16.46,6.187l1.705,1.608l6.429-9.714l-1.062-1.137
		c-0.338-0.359-8.36-8.744-23.879-8.744c-18.996,0-33.321,14.399-33.321,33.487c0,9.354,3.325,17.968,9.365,24.259
		c6.153,6.406,14.72,9.938,24.125,9.938c16.176,0,25.051-10.033,25.422-10.463l1.037-1.203l-7-9.373L-89.662-1001.784z"/>
	<polygon fill="#FFFFFF" points="17.112,-1049.645 3.405,-1049.645 3.405,-983.159 43.85,-983.159 43.85,-995.489 17.112,-995.489 	
		"/>
	<path fill="#FFFFFF" d="M170.824-1018.346c3.635-3.098,5.732-8.05,5.732-13.305c0-10.579-7.982-17.994-19.865-17.994h-23.34v66.485
		h23.861c13.029,0,21.787-7.984,21.787-19.66C179-1009.567,175.887-1015.41,170.824-1018.346z M145-1037.305h11.512
		c4.625,0,7.289,2.891,7.289,7.408c0,4.473-2.797,7.673-7.109,7.673H145V-1037.305z M157.645-995.489H145v-16.453h12.555
		c5.27,0,8.684,3.049,8.684,8.268C166.238-998.349,163.021-995.489,157.645-995.489z"/>
</g>
<g id="ojCDV6.tif_1_">
	<g>
		<path d="M199-89.041c0,2.607,0,5.214,0,7.821c-0.203,1.67-0.365,3.346-0.616,5.009c-2.625,17.395-10.897,31.501-24.846,42.196
			c-8.749,6.708-18.661,10.783-29.604,12.264c-2.403,0.325-4.825,0.505-7.24,0.751c-1.129,0-2.259,0-3.389,0
			c-0.425-0.062-0.848-0.142-1.274-0.185c-2.331-0.23-4.682-0.326-6.988-0.699c-12.341-1.994-23.244-7.102-32.553-15.455
			c-10.676-9.58-17.479-21.427-20.185-35.533c-0.659-3.435-0.882-6.953-1.305-10.434c0-1.217,0-2.433,0-3.649
			c0.065-0.467,0.165-0.932,0.19-1.4c0.607-11.578,4.017-22.267,10.487-31.879c10.147-15.075,24.188-24.366,42.081-27.727
			c2.466-0.463,4.974-0.698,7.462-1.039c2.607,0,5.214,0,7.821,0c0.288,0.074,0.573,0.193,0.864,0.215
			c8.734,0.621,17.024,2.896,24.71,7.068c18.246,9.904,29.423,25.067,33.357,45.489C198.43-93.854,198.663-91.438,199-89.041z
			 M171.065-82.25c0-1.957,0-3.715,0-5.607c-11.113,0-22.124,0-33.274,0c0-11.151,0-22.162,0-33.243c-1.895,0-3.648,0-5.565,0
			c0,11.116,0,22.16,0,33.322c-11.178,0-22.191,0-33.267,0c0,1.877,0,3.633,0,5.532c11.112,0,22.161,0,33.351,0
			c0,11.19,0,22.239,0,33.259c1.903,0,3.663,0,5.53,0c0-11.111,0-22.13,0-33.263C148.965-82.25,159.98-82.25,171.065-82.25z"/>
	</g>
</g>
<g>
	<g>
		<path fill="#FF0000" d="M943-415c-3,0-5,0-8,0c0,17,0,34,0,52c-18,0-35,0-52,0c0,3,0,5,0,8c17,0,34,0,52,0c0,18,0,35,0,52
			c3,0,6,0,8,0c0-17,0-34,0-52c18,0,35,0,52,0c0-3,0-6,0-8c-17,0-34,0-52,0C943-381,943-398,943-415z"/>
	</g>
	<g>
		<path fill="#FF0000" d="M939-451.146c50.729,0,92,41.271,92,92s-41.271,92-92,92s-92-41.271-92-92S888.271-451.146,939-451.146
			 M939-459.146c-55.229,0-100,44.771-100,100s44.771,100,100,100s100-44.771,100-100S994.229-459.146,939-459.146L939-459.146z"/>
	</g>
</g>
<g>
	<g>
		<path d="M282-121c-2,0-4,0-6,0c0,11,0,22,0,33c-11,0-22,0-33,0c0,2,0,4,0,6c11,0,22,0,33,0c0,11,0,22,0,33c2,0,4,0,6,0
			c0-11,0-22,0-33c11,0,22,0,33,0c0-2,0-4,0-6c-11,0-22,0-33,0C282-99,282-110,282-121z"/>
	</g>
	<path d="M279-143.88c32.467,0,58.88,26.414,58.88,58.88S311.467-26.12,279-26.12c-32.466,0-58.88-26.414-58.88-58.88
		S246.534-143.88,279-143.88 M279-149c-35.347,0-64,28.653-64,64s28.653,64,64,64c35.346,0,64-28.653,64-64S314.346-149,279-149
		L279-149z"/>
</g>
<g id="_x38_2lX36.tif">
	<g>
		<path fill-rule="evenodd" clip-rule="evenodd" d="M353-138.146c0.476,0.193,0.968,0.357,1.425,0.586
			c12.274,6.136,24.541,12.282,36.827,18.387c0.925,0.461,1.283,0.968,1.283,2.03c-0.03,28.612-0.023,57.229-0.027,85.841
			c0,0.419-0.034,0.842-0.064,1.497c-0.529-0.255-0.933-0.442-1.329-0.64c-12.02-6.002-24.042-12.001-36.043-18.048
			c-0.792-0.4-1.386-1.192-2.071-1.802C353-79.581,353-108.864,353-138.146z"/>
		<path fill-rule="evenodd" clip-rule="evenodd" d="M440.57-139c0.419,0.274,0.811,0.602,1.253,0.822
			c12.263,6.14,24.529,12.274,36.801,18.41c0.457,0.229,0.91,0.469,1.492,0.77c-13.618,22.123-27.181,44.162-40.833,66.35
			c-0.339-0.499-0.613-0.868-0.854-1.257c-8.181-13.291-16.346-26.598-24.564-39.87c-0.59-0.956-0.56-1.58,0.02-2.51
			c8.824-14.221,17.61-28.472,26.403-42.715C440.384-139,440.475-139,440.57-139z"/>
		<path fill-rule="evenodd" clip-rule="evenodd" d="M481-29.836c-12.785-6.391-25.463-12.728-38.312-19.152
			c12.747-20.714,25.44-41.341,38.312-62.264C481-83.965,481-57.009,481-29.836z"/>
		<path fill-rule="evenodd" clip-rule="evenodd" d="M432.199-54.256c-0.419-0.19-0.842-0.373-1.249-0.579
			c-10.805-5.396-21.602-10.8-32.409-16.186c-0.77-0.381-1.246-0.754-1.242-1.767c0.042-12.423,0.027-24.843,0.031-37.266
			c0-0.271,0.03-0.544,0.319-0.925c11.593,18.836,23.189,37.672,34.782,56.513C432.355-54.393,432.275-54.324,432.199-54.256z"/>
	</g>
</g>
<g>
	<path fill="#0099FF" d="M-59,4c4.411,0,8,3.589,8,8s-3.589,8-8,8s-8-3.589-8-8S-63.411,4-59,4 M-59,0c-6.627,0-12,5.373-12,12
		s5.373,12,12,12c6.627,0,12-5.373,12-12S-52.373,0-59,0L-59,0z"/>
</g>
<line fill="none" stroke="#0099FF" stroke-width="4" stroke-miterlimit="10" x1="-59" y1="22" x2="-59" y2="100"/>
<g>
	<path fill="#66CCFF" d="M-23,22c-5.514,0-10-4.486-10-10s4.486-10,10-10s10,4.486,10,10S-17.486,22-23,22z"/>
	<g>
		<path fill="#0099FF" d="M-23,4c4.411,0,8,3.589,8,8s-3.589,8-8,8s-8-3.589-8-8S-27.411,4-23,4 M-23,0c-6.627,0-12,5.373-12,12
			s5.373,12,12,12s12-5.373,12-12S-16.373,0-23,0L-23,0z"/>
	</g>
</g>
<line fill="none" stroke="#0099FF" stroke-width="4" stroke-miterlimit="10" x1="-23" y1="22" x2="-23" y2="100"/>
<g>
	<path fill="#0099FF" d="M12,22C6.486,22,2,17.514,2,12S6.486,2,12,2s10,4.486,10,10S17.514,22,12,22z"/>
	<g>
		<path fill="#0099FF" d="M12,4c4.411,0,8,3.589,8,8s-3.589,8-8,8s-8-3.589-8-8S7.589,4,12,4 M12,0C5.373,0,0,5.373,0,12
			s5.373,12,12,12s12-5.373,12-12S18.627,0,12,0L12,0z"/>
	</g>
</g>
<line fill="none" stroke="#0099FF" stroke-width="4" stroke-miterlimit="10" x1="12" y1="22" x2="12" y2="100"/>
</svg>
