<svg xmlns="http://www.w3.org/2000/svg" version="1.1" x="0" y="0" width="24" height="300" viewBox="0 0 24 300" enable-background="new 0 0 24 300" xml:space="preserve"><path fill="none" d="M134.7-905.8c0 4.9-2.8 9.7-7.9 11.8C131.9-896.1 134.7-900.9 134.7-905.8zM71-855.2c0-0.3-0.1-0.6-0.1-0.9 0 0 0 0 0 0C71-855.8 71-855.5 71-855.2zM109.6-902.6c-0.3-1.1-0.4-2.2-0.4-3.3C109.2-904.9 109.3-903.7 109.6-902.6zM76.4-789.7c0 0 0.1 0 0.1 0.1 0 0-0.1-0.1-0.1-0.1 -3.9-1.5-5.4-3.7-5.4-7.9C71-793.4 72.5-791.2 76.4-789.7zM128.6-916.6c-1.4-0.8-2.9-1.4-4.4-1.8C125.8-917.9 127.3-917.4 128.6-916.6zM59.3-850c-0.3 0.2-0.5 0.4-0.9 0.5 0.4 0 0.6-0.3 0.9-0.5 3.9-2.2 7.7-4.4 11.6-6.6 0 0 0 0 0 0 0-0.3 0-0.7 0.1-1 0 0.3-0.1 0.7-0.1 1C67.1-854.4 63.2-852.2 59.3-850zM173-856.4c0 0.2-0.1 0.5-0.1 0.7 0 13.4 0 26.9 0 40.3l0 0c0 0.1 0 0.3 0.1 0.4 -0.1 1-0.1 2.1-0.1 3.1 0-1 0-2.1 0.1-3.1 0 0 0 0 0 0 0-0.1 0-0.3-0.1-0.4 0-13.4 0-26.9 0-40.3 0-0.2 0-0.5 0.1-0.7 0 0 0-0.1 0-0.1 0 0 0 0 0 0C173-856.5 173-856.5 173-856.4zM172.9-805.4c0-0.4 0-0.9 0-1.3 0-0.3 0-0.7 0-1 0 0.3 0 0.7 0 1C172.9-806.3 172.9-805.9 172.9-805.4zM172.8-855.5c0-0.3 0-0.5 0.1-0.8C172.9-856 172.8-855.8 172.8-855.5zM58.5-822c0.4 0 0.6 0.3 0.9 0.5 3.8 2.2 7.7 4.3 11.5 6.5 0 0.5 0.2 0.9 0.2 1.4C71-814.1 71-814.5 71-815c0 0 0 0 0 0 -3-2.2-7.7-4.3-11.5-6.5C59.2-821.7 58.8-822 58.5-822zM118.2-880.3c-6.6 0-13.1 0-19.7 0 -6.6 0-13.1 0-19.7 0 -4.8 0-7.8 3-7.8 7.8 0 4.9 0 9.7 0 14.6 0 0.1 0 0.2 0 0.3 0 0.3 0 0.7 0 1 0 0 0-0.4 0-0.4h-0.1c0 0 0.1 0.7 0.1 0.9 0 0 0 0 0 0 0 0.3 0 0.6 0.1 0.9 0 0.1 0 0.2 0 0.3 0 12.7 0 25.4 0 38.2 0 0.4-0.1 0.8-0.1 1.2 0 0 0 0.1 0 0.1 0 0.1-0.1 0.3-0.1 0.4 0 0 0 0 0 0 0 0 0 0 0 0 0 0.5 0.1 0.9 0.1 1.4 0 5.3 0 10.7 0 16 0 4.2 1.5 6.4 5.4 7.9 0 0 0.1 0 0.1 0.1 0.1 0 0.1 0.3 0.2 0.4 0 0 0 0.2 0 0.2 15.1 0 30.2 0 45.4 0 0-31 0-60.7 0-90.9C120.8-880.1 119.5-880 118.2-880.3zM103.8-825.8c-5.1 0-9.1-4-9.1-9.1 0-5 4.1-9.1 9.1-9.1 5 0 9.1 4.1 9.1 9C112.9-829.9 108.8-825.8 103.8-825.8zM172.9-805.4c0-0.5 0-0.9 0-1.4 0-0.3 0-0.7 0-1 0-1.4 0-2.7 0-4.1 0-1 0.1-2.1 0.2-3.1 0-0.1 0-0.3 0-0.4l0 0c0 0 0 0 0 0 0-0.3-0.1-0.6-0.1-0.9 0-0.1 0-0.2 0-0.3 0-12.9 0-25.7 0-38.6 0-0.1 0-0.2 0-0.3 0-0.3 0-0.5 0.1-0.8 0-0.1 0-0.1 0.1-0.2 0 0 0-0.1 0-0.1 0-2-0.1-4.1-0.1-6.1 0-3.2 0-6.4 0-9.6 0-5.1-3-8-8.1-8 -13.1 0-26.1 0-39.2 0 -1.2 0.3-2.4 0.3-3.6 0.4l0 0c0 30.2 0 59.9 0 90.9 15 0 30 0 44.9 0 0.2-1 0.6-0.5 0.8-0.6 2.9-1.1 4.8-3.2 4.9-6.3 0.1-1.8 0.1-3.6 0.1-5.4C172.9-802.7 172.9-804.1 172.9-805.4zM140.1-825.8c-5 0-9.1-4-9.1-9.1 0-5 4.1-9.1 9.1-9.1 5 0 9 4.1 9 9.1C149.2-829.9 145.2-825.8 140.1-825.8zM109.2-905.9c0 1.1 0.1 2.2 0.4 3.3 1.1 4.2 3.7 7.1 7.7 8.7 0.5 0.2 1 0.4 1 1.1 0 4.2-0.1 8.3-0.1 12.5 1.3 0.4 2.6 0.1 3.8 0.2l0 0c1.2-0.1 2.4 0.2 3.6-0.2 0-4 0-8-0.1-12 0-0.9 0.3-1.4 1.2-1.7 5.1-2.1 7.9-6.9 7.9-11.8 0-3.6-1.5-7.2-4.6-9.8 -0.5-0.4-1-0.7-1.5-1 -1.4-0.8-2.9-1.3-4.4-1.8 -0.2-0.1-0.4 0.1-0.6 0.1 0 0-0.1 0.2-0.1 0.2 -1.1 0-2.1 0-3.2 0 -0.1 0-0.1-0.2-0.2-0.2 -0.2 0.1-0.4 0-0.5 0.1C113.5-917 109.3-911.9 109.2-905.9zM58.3-822c0.4 0 0.7 0.3 1.1 0.5 3.8 2.2 7.7 4.3 11.5 6.5 0 0 0 0 0 0 0-0.1 0.1-0.3 0.1-0.4 0 0 0 0 0-0.1 0 0 0 0.1 0 0.1 0-13.6 0-27.1 0-40.7 0 0 0 0 0 0 0 0 0 0 0 0 0 0 0 0 0 0 0-0.2-0.1-0.9-0.1-0.9h0c-3.9 2-7.7 4.6-11.6 6.8 -0.3 0.2-0.7 0.6-1.1 0.6 0 0-0.3 0.1-0.3 0.1 0 0 0 0 0 0 0 9.2 0 18.4 0 27.6C58-822 58.3-822 58.3-822zM186-822c0-9.2 0-18.4 0-27.6 0 0-0.3 0-0.3 0 -0.3 0-0.6-0.3-0.9-0.4 -3.9-2.2-7.8-4.4-11.7-6.6 0 0 0 0 0 0 0 0 0 0.1 0 0.1 0 0.2-0.1 0.5-0.1 0.7 0 13.4 0 26.9 0 40.3 0 0.1 0 0.3 0.1 0.4 3.8-2.2 7.6-4.3 11.5-6.5 0.3-0.2 0.8-0.5 1.2-0.5C185.7-822 186-822 186-822zM71-856.1c0 13.6 0 27.1 0 40.7 0 0 0 0 0-0.1 0-0.4 0.1-0.8 0.1-1.2 0-12.7 0-25.4 0-38.2 0-0.1 0-0.2 0-0.3 0-0.3 0-0.6-0.1-0.9C71-856.1 71-856.1 71-856.1zM173-856.4c0 0.1 0 0.1-0.1 0.2 -0.1 0.3-0.1 0.5-0.1 0.8 0 0.1 0 0.2 0 0.3 0 12.9 0 25.7 0 38.6 0 0.1 0 0.2 0 0.3 0 0.3 0.1 0.6 0.1 0.9 0 0 0 0 0 0 0-13.4 0-26.9 0-40.3C173-855.9 173-856.2 173-856.4z"/><circle fill="#D85642" cx="281.4" cy="-845.4" r="64"/><path fill="#FDF7E4" d="M314-850.5c0.9-8.5-1-16.3-6.1-23.3 -0.2-0.2-0.3-0.5-0.5-0.7l0 0c-0.1-0.1-0.2-0.3-0.3-0.4 -0.2-0.2-0.4-0.4-0.6-0.6 -4.7-5.5-10.5-9-17.5-10.7 -13.1-3.1-27.1 2.6-34.4 13.8 -5.5 8.5-6.5 17.6-4.2 27.3 1.9 7.6 5.3 14.5 9.4 21.1 6.2 9.9 13.7 18.9 21.9 27.1 10-9.9 19-20.7 25.7-33.3C310.8-836.6 313.3-843.3 314-850.5zM281.7-835.4c-10.5 0-19.1-8.6-19.1-19.1 0-10.5 8.6-19.1 19.1-19.1 10.5 0 19.1 8.6 19.1 19C300.9-844 292.3-835.4 281.7-835.4z"/><path fill="#B84536" d="M344.9-837.7c-0.3-0.3-0.6-0.5-0.9-0.8 -11.7-11.7-23.4-23.4-35.1-35.1 -0.1-0.1-0.1-0.1-0.2-0.2 -0.4-0.4-0.7-0.9-1.4-0.8 0.2 0.2 0.3 0.5 0.5 0.7 5.1 7 7 14.7 6.1 23.3 -0.8 7.3-3.3 13.9-6.7 20.3 -6.6 12.6-15.6 23.3-25.7 33.3 0.1 0.6 0.6 1 1 1.4 4.1 4.2 8.5 8.2 12.3 12.7C321.4-788.6 341.7-810.5 344.9-837.7z"/><path fill="#B84536" d="M307.2-874.9c0.1 0.1 0.2 0.3 0.3 0.4C307.5-874.8 307.5-875 307.2-874.9zM281.7-873.6c-10.4 0-19.1 8.6-19.1 19.1 0 10.4 8.6 19.1 19.1 19.1 10.6 0 19.1-8.5 19.1-19.1C300.8-865 292.2-873.6 281.7-873.6zM281.7-845c-5.2 0-9.4-4.3-9.4-9.5 0-5.3 4.2-9.5 9.5-9.5 5.3 0 9.5 4.3 9.5 9.5C291.2-849.2 287-845 281.7-845zM281.8-864c-5.3 0-9.5 4.2-9.5 9.5 0 5.2 4.2 9.5 9.4 9.5 5.3 0 9.5-4.1 9.6-9.4C291.3-859.7 287.1-864 281.8-864z"/><path fill="#89A02B" d="M418-802v-39.8l50.1-21.4 28 23.5c0.1-1.7 0.3-3.5 0.3-5.3 0-35.3-28.6-64-64-64 -35.3 0-64 28.7-64 64s28.7 64 64 64c2.8 0 5.6-0.2 8.4-0.6L416.5-802H418zM496.2-839.7l-28.1-23.5L418-841.8V-802h-1.5l24.3 20.4C470.5-785.5 493.7-809.6 496.2-839.7z"/><polygon fill="#FDF7E4" points="418 -841.8 418 -884.6 418 -888 415 -888 415 -803.1 416.5 -802 418 -802 "/><polygon fill="#FDF7E4" points="468.3 -863.2 468.1 -863.3 468.3 -863.2 "/><polygon fill="#FDF7E4" points="418 -841.8 468.1 -863.2 467.9 -863.3 418 -884.6 "/><path fill="#1A1A1A" d="M872.2-903.3c-25-25-65.5-25-90.5 0s-25 65.5 0 90.5c25 25 65.5 25 90.5 0C897.2-837.7 897.2-878.3 872.2-903.3zM860.9-824.1c-18.7 18.7-49.2 18.7-67.9 0 -18.7-18.7-18.7-49.2 0-67.9 18.7-18.7 49.2-18.7 67.9 0C879.6-873.2 879.6-842.8 860.9-824.1zM849.5-869.4c-3.1-3.1-8.1-3.1-11.2 0l-8.5 8.5c-1.6 1.6-4.1 1.6-5.7 0l-8.5-8.5c-3.1-3.1-8.1-3.1-11.2 0l-0.1 0.1c-3.1 3.1-3.1 8.1 0 11.2l17.1 17.1c3.1 3.1 8.1 3.1 11.2 0l0.1-0.1 5.7-5.7 11.4-11.4c3.1-3.1 3.1-8.1 0-11.2L849.5-869.4z"/><path fill="#1A1A1A" d="M1031.7-903.3c-25-25-65.5-25-90.5 0s-25 65.5 0 90.5c25 25 65.5 25 90.5 0C1056.7-837.7 1056.7-878.3 1031.7-903.3zM1020.4-824.1c-18.7 18.7-49.2 18.7-67.9 0 -18.7-18.7-18.7-49.2 0-67.9 18.7-18.7 49.2-18.7 67.9 0C1039.1-873.2 1039.1-842.8 1020.4-824.1z"/><polygon points="973 -832.9 1010.8 -859.2 1010.8 -859.3 973 -885.5 "/><line fill="none" stroke="#1A1A1A" stroke-width="8" stroke-linecap="round" stroke-miterlimit="10" x1="110" y1="-680" x2="110" y2="-603"/><polyline fill="none" stroke="#1A1A1A" stroke-width="8" stroke-linecap="round" stroke-linejoin="round" stroke-miterlimit="10" points=" 114.6 -634.6 162 -657.6 114.6 -673.8 "/><circle fill="none" stroke="#1A1A1A" stroke-width="8" stroke-linecap="round" stroke-miterlimit="10" cx="128.1" cy="-641" r="64"/><path fill="#EA6E52" d="M326.1-661.4L278.8-677.6c-0.6-0.2-0.8-0.2-1.8-0.2V-680c0-2.2-1.8-4-4-4s-4 1.8-4 4v77c0 2.2 1.8 4 4 4s4-1.8 4-4v-27.6c0 0 0.3 0 0.5 0 0.6 0 1.2-0.1 1.7-0.4l47.4-23c1.5-0.7 2.3-2.2 2.2-3.8C328.8-659.5 327.7-660.9 326.1-661.4zM277-638.8v-31l37.5 12.8L277-638.8zM291-709c-37.5 0-68 30.5-68 68 0 37.5 30.5 68 68 68s68-30.5 68-68C359-678.5 328.5-709 291-709zM291-581c-33.1 0-60-26.9-60-60s26.9-60 60-60 60 26.9 60 60S324.1-581 291-581z"/><path fill="none" stroke="#000000" stroke-width="8" stroke-miterlimit="10" d="M700.1-871.2c0.8-7.3-0.9-13.9-5.2-19.8 -0.1-0.2-0.3-0.4-0.4-0.6l0 0c-0.1-0.1-0.2-0.2-0.2-0.3 -0.2-0.2-0.4-0.3-0.5-0.5 -4-4.7-8.9-7.7-14.9-9.1 -11.1-2.6-23.1 2.2-29.3 11.8 -4.7 7.2-5.6 15-3.5 23.2 1.6 6.4 4.5 12.3 8 17.9 5.3 8.5 11.6 16 18.7 23.1 8.5-8.5 16.2-17.6 21.8-28.3C697.3-859.4 699.5-865.1 700.1-871.2zM672.6-858.4c-8.9 0-16.2-7.3-16.2-16.2 0-8.9 7.4-16.2 16.2-16.2 8.9 0 16.2 7.3 16.2 16.2C688.9-865.7 681.6-858.4 672.6-858.4z"/><circle fill="none" stroke="#1A1A1A" stroke-width="8" stroke-linecap="round" stroke-miterlimit="10" cx="479.5" cy="-640.8" r="64"/><path stroke="#1A1A1A" stroke-width="3" stroke-miterlimit="10" d="M494-662.6c7.7 0 14.3 5.7 15.3 13.2 0.7 5.2-0.7 9.6-4.4 13.4 -7.8 8-21.8 22.1-24.5 24.8 -0.3 0.3-0.6 0.3-0.8 0.3s-0.5-0.1-0.8-0.3c-6.1-6.2-17.3-17.3-23.7-23.8 -2.9-2.9-4.6-6-5.2-9.6 -1.1-6.3 1.9-12.7 7.4-15.9 2.4-1.4 5.1-2.1 7.7-2.1 3.9 0 7.7 1.5 10.6 4.3 1.3 1.2 2.6 1.6 3.7 1.6 1.4 0 2.5-0.6 2.8-0.8 0.7-0.4 1.3-0.9 2-1.4 1.2-0.8 2.3-1.6 3.3-2.1C489.5-662.1 491.7-662.6 494-662.6M494-667.7c-3 0-6 0.7-8.9 2.1 -2 1-3.8 2.5-5.8 3.8l0 0c0 0-0.1-0.1-0.2-0.2 -4-3.7-9-5.7-14.1-5.7 -3.5 0-7 0.9-10.3 2.8 -7.4 4.3-11.4 12.7-9.9 21.2 0.8 4.8 3.2 8.8 6.6 12.3 6.4 6.5 17.6 17.7 23.7 23.8 1.2 1.2 2.8 1.8 4.4 1.8 1.6 0 3.2-0.6 4.4-1.8 6.3-6.3 17.9-17.9 24.6-24.8 4.7-4.9 6.8-10.9 5.8-17.7C512.8-660.6 503.7-667.7 494-667.7L494-667.7z"/><path fill="none" d="M654-661.1c-2.1 0-4.1 0.5-5.9 1.4 -1 0.5-2.1 1.3-3.2 2l-0.2 0.1c-0.6 0.4-1.2 0.9-1.9 1.3 -0.5 0.3-1.8 1.1-3.6 1.1 -1.7 0-3.3-0.7-4.7-2 -2.7-2.5-6.1-3.9-9.6-3.9 -2.4 0-4.8 0.7-7 1.9 -5 2.9-7.7 8.6-6.7 14.3 0.6 3.2 2.1 6.1 4.8 8.8 6.4 6.4 17.3 17.4 23.5 23.6 2.5-2.5 16.4-16.5 24.3-24.5 3.4-3.5 4.7-7.5 4-12.2C666.9-656 660.9-661.1 654-661.1zM639.5-700.8c-33.1 0-60 26.9-60 60s26.9 60 60 60c33.1 0 60-26.9 60-60S672.6-700.8 639.5-700.8zM669.6-631.4c-7.9 8.2-21.9 22.1-24.6 24.9 -1.5 1.5-3.4 2.3-5.4 2.3 -2.1 0-4-0.8-5.4-2.3 -6.1-6.2-17.3-17.4-23.7-23.8 -3.9-3.9-6.2-8.2-7-13.1 -1.6-9 2.7-18.1 10.6-22.7 3.4-1.9 7.2-3 11-3 5.3 0 10.4 1.9 14.5 5.5 0.3-0.2 0.6-0.4 0.9-0.6 1.3-0.9 2.7-1.9 4.1-2.6 3-1.5 6.2-2.3 9.5-2.3 10.9 0 20.3 8.1 21.8 18.8C676.8-643.2 674.6-636.7 669.6-631.4zM639.5-708.8c-37.5 0-68 30.5-68 68s30.5 68 68 68c37.5 0 68-30.5 68-68S677-708.8 639.5-708.8zM639.5-580.8c-33.1 0-60-26.9-60-60s26.9-60 60-60c33.1 0 60 26.9 60 60S672.6-580.8 639.5-580.8zM654-669.2c-3.3 0-6.5 0.8-9.5 2.3 -1.5 0.7-2.8 1.7-4.1 2.6 -0.3 0.2-0.6 0.4-0.9 0.6 -4.1-3.5-9.2-5.5-14.5-5.5 -3.8 0-7.6 1-11 3 -7.9 4.6-12.2 13.7-10.6 22.7 0.8 4.9 3.1 9.2 7 13.1 6.4 6.5 17.6 17.7 23.7 23.8 1.5 1.5 3.4 2.3 5.4 2.3 2.1 0 4-0.8 5.4-2.3 2.7-2.7 16.7-16.7 24.6-24.9 5.1-5.2 7.2-11.8 6.2-18.9C674.3-661.1 664.9-669.2 654-669.2zM663.8-637.1c-7.8 8.1-21.7 22-24.3 24.5 -6.2-6.2-17.1-17.2-23.5-23.6 -2.7-2.7-4.2-5.5-4.8-8.8 -1-5.7 1.7-11.4 6.7-14.3 2.2-1.2 4.6-1.9 7-1.9 3.5 0 6.9 1.4 9.6 3.9 1.4 1.3 3 2 4.7 2 1.8 0 3.1-0.7 3.6-1.1 0.6-0.4 1.3-0.8 1.9-1.3l0.2-0.1c1.1-0.7 2.2-1.5 3.2-2 1.9-0.9 3.9-1.4 5.9-1.4 6.9 0 12.9 5.1 13.8 11.9C668.5-644.5 667.2-640.6 663.8-637.1z"/><circle fill="none" stroke="#1A1A1A" stroke-width="8" stroke-linecap="round" stroke-miterlimit="10" cx="829.5" cy="-636.9" r="64"/><polygon fill="none" stroke="#1A1A1A" stroke-width="8" stroke-linecap="round" stroke-miterlimit="10" points="829.6 -617.5 850.7 -606.4 846.7 -629.9 863.8 -646.5 840.2 -650 829.6 -671.4 819.1 -650 795.4 -646.5 812.5 -629.9 808.5 -606.4 "/><path fill="#EA6E52" d="M989.5-704.9c-37.5 0-68 30.5-68 68s30.5 68 68 68c37.5 0 68-30.5 68-68S1027-704.9 989.5-704.9zM989.5-576.9c-33.1 0-60-26.9-60-60s26.9-60 60-60c33.1 0 60 26.9 60 60S1022.6-576.9 989.5-576.9zM1006.8-653c-2.2-0.3-4.8-2.2-5.7-4.2l-9.7-19.6c-1-2-2.6-2-3.5 0l-9.7 19.6c-1 2-3.6 3.8-5.7 4.2l-21.6 3.1c-2.2 0.3-2.7 1.8-1.1 3.4l15.7 15.3c1.6 1.5 2.6 4.6 2.2 6.7l-3.7 21.5c-0.4 2.2 0.9 3.1 2.9 2.1l19.4-10.2c1.9-1 5.1-1 7.1 0l19.4 10.2c1.9 1 3.2 0.1 2.9-2.1l-3.7-21.5c-0.4-2.2 0.6-5.2 2.2-6.7l15.7-15.3c1.6-1.5 1.1-3.1-1.1-3.4L1006.8-653zM1004.8-617.6c0.4 2.2-0.9 3.1-2.9 2.1l-8.7-4.6c-1.9-1-5.1-1-7.1 0l-8.7 4.6c-1.9 1-3.2 0.1-2.9-2.1l1.7-9.7c0.4-2.2-0.6-5.2-2.2-6.7l-7.1-6.9c-1.6-1.5-1.1-3.1 1.1-3.4l9.8-1.4c2.2-0.3 4.8-2.2 5.7-4.2l4.4-8.8c1-2 2.6-2 3.5 0l4.4 8.8c1 2 3.6 3.8 5.7 4.2l9.8 1.4c2.2 0.3 2.7 1.8 1.1 3.4l-7.1 6.9c-1.6 1.5-2.6 4.6-2.2 6.7L1004.8-617.6z"/><line fill="none" stroke="#1A1A1A" stroke-width="8" stroke-linecap="round" stroke-miterlimit="10" x1="100.5" y1="-441.5" x2="126.6" y2="-420.6"/><line fill="none" stroke="#1A1A1A" stroke-width="8" stroke-linecap="round" stroke-miterlimit="10" x1="126.6" y1="-420.6" x2="147.8" y2="-477.1"/><circle fill="none" stroke="#1A1A1A" stroke-width="8" stroke-linecap="round" stroke-miterlimit="10" cx="127.1" cy="-448" r="64"/><path fill="#EA6E52" d="M309.2-480.8c-2.1-0.8-4.4 0.3-5.1 2.3l-19.3 51.4L263-444.6c-1.7-1.4-4.2-1.1-5.6 0.6 -1.4 1.7-1.1 4.2 0.6 5.6l26.1 20.9c0.1 0.1 0.1 0.1 0.2 0.1 0.1 0.1 0.2 0.1 0.3 0.2 0.2 0.1 0.3 0.2 0.5 0.2 0.1 0 0.1 0.1 0.1 0.1 0 0 0 0 0 0 0.2 0.1 0.3 0.1 0.5 0.1 0.1 0 0.1 0 0.2 0.1 0.2 0 0.4 0 0.6 0.1 0 0 0.1 0 0.1 0 0.3 0 0.5 0 0.8-0.1 0.1 0 0.1 0 0.2 0 0.2-0.1 0.4-0.1 0.7-0.2 0 0 0.1 0 0.1 0 0.2-0.1 0.5-0.3 0.7-0.4 0.1 0 0.1-0.1 0.2-0.1 0.2-0.2 0.4-0.4 0.6-0.6 0 0 0 0 0 0v0c0.2-0.2 0.3-0.4 0.4-0.6 0-0.1 0.1-0.1 0.1-0.2 0-0.1 0.1-0.2 0.1-0.3l21.3-56.5C312.4-477.8 311.3-480.1 309.2-480.8zM287.1-516c-37.5 0-68 30.5-68 68s30.5 68 68 68 68-30.5 68-68S324.6-516 287.1-516zM287.1-388c-33.1 0-60-26.9-60-60s26.9-60 60-60 60 26.9 60 60S320.2-388 287.1-388z"/><path d="M870-365.3c0 4.1 0 8.1 0 12.2 -0.3 2.6-0.6 5.2-1 7.8 -4.1 27.2-17 49.2-38.8 65.9 -13.7 10.5-29.2 16.8-46.3 19.2 -3.8 0.5-7.5 0.8-11.3 1.2 -1.8 0-3.5 0-5.3 0 -0.7-0.1-1.3-0.2-2-0.3 -3.6-0.4-7.3-0.5-10.9-1.1 -19.3-3.1-36.3-11.1-50.9-24.2 -16.7-15-27.3-33.5-31.5-55.5 -1-5.4-1.4-10.9-2-16.3 0-1.9 0-3.8 0-5.7 0.1-0.7 0.3-1.5 0.3-2.2 0.9-18.1 6.3-34.8 16.4-49.8 15.9-23.6 37.8-38.1 65.8-43.3 3.9-0.7 7.8-1.1 11.7-1.6 4.1 0 8.1 0 12.2 0 0.5 0.1 0.9 0.3 1.4 0.3 13.6 1 26.6 4.5 38.6 11 28.5 15.5 46 39.2 52.1 71.1C869.1-372.8 869.5-369.1 870-365.3zM826.4-354.7c0-3.1 0-5.8 0-8.8 -17.4 0-34.6 0-52 0 0-17.4 0-34.6 0-51.9 -3 0-5.7 0-8.7 0 0 17.4 0 34.6 0 52.1 -17.5 0-34.7 0-52 0 0 2.9 0 5.7 0 8.6 17.4 0 34.6 0 52.1 0 0 17.5 0 34.8 0 52 3 0 5.7 0 8.6 0 0-17.4 0-34.6 0-52C791.8-354.7 809-354.7 826.4-354.7z"/><path d="M522.4-418.2l1.1 0.1 1.1-0.1c17.4 0 32.3 4.4 41.8 8.1 4.7 1.8 8.6 3.7 11.5 5.2 0.2 5.1 0.4 12.5 0.3 20.5 -0.2 25.6-2.8 33.5-3.6 35.3 -4.4 10.1-9.9 18.9-16.3 26.3 -5.1 5.8-10.8 10.8-16.9 14.7 -8.1 5.2-14.9 7.3-17.9 8 -3-0.7-9.8-2.8-17.9-7.9 -6.1-3.9-11.8-8.9-16.9-14.7 -6.4-7.4-11.9-16.2-16.3-26.3 -0.8-1.8-3.4-9.7-3.6-35.2 -0.1-8 0.1-15.5 0.3-20.6 2.7-1.4 6.4-3.1 10.8-4.9C489.6-413.6 504.7-418.2 522.4-418.2M524.5-431.1c-0.3 0-0.7 0-1 0 -0.3 0-0.6 0-1 0 -38.2 0-66 18.5-66 18.5s-3.1 52.5 4.1 68.7c22.6 51.3 62.1 56.9 62.9 56.9 0.8 0 40.3-5.6 62.9-56.9 7.1-16.2 4.1-68.7 4.1-68.7S562.7-431.1 524.5-431.1L524.5-431.1z"/><path fill="#00FFFF" d="M403.8-354.6c0 0-31.1-20.6-73.9-20.6 -0.4 0-0.7 0-1.1 0.1 -0.4 0-0.7-0.1-1.1-0.1 -42.8 0-73.9 20.6-73.9 20.6s-3.4 58.7 4.6 76.9c25.3 57.4 69.5 63.6 70.4 63.7 0.9-0.1 45.1-6.3 70.4-63.7C407.2-295.9 403.8-354.6 403.8-354.6zM390.1-323.1c-0.2 28.7-3.2 37.5-4 39.5 -5 11.3-11.1 21.2-18.3 29.4 -5.7 6.5-12 12.1-18.9 16.5 -9.1 5.8-16.7 8.1-20 8.9 -3.3-0.8-10.9-3.1-20-8.9 -6.8-4.4-13.2-9.9-18.9-16.5 -7.2-8.2-13.3-18.2-18.3-29.4 -0.9-2-3.8-10.8-4-39.4 -0.1-8.9 0.1-17.3 0.3-23.1 3-1.6 7.1-3.5 12.1-5.5 10.8-4.2 27.8-9.3 47.5-9.3l1.2 0.1 1.2-0.1c19.4 0 36.2 4.9 46.8 9 5.3 2.1 9.7 4.1 12.9 5.8C389.9-340.3 390.1-332 390.1-323.1zM323.2-340.3l-28.5 71.9h68.2l-26.6-71.9H323.2zM324.1-279.5h-11.9l17.5-45.8 6.5 18.6L324.1-279.5zM342.7-289.8l3.9 10.3h-8.4L342.7-289.8z"/><path d="M123.6-132.6c0 0-24.7-16.4-58.6-16.4 -0.3 0-0.6 0-0.9 0 -0.3 0-0.6 0-0.9 0 -34 0-58.6 16.4-58.6 16.4S1.9-86 8.2-71.6C28.3-26 63.4-21 64.1-21c0.7 0 35.8-5 55.9-50.6C126.3-86 123.6-132.6 123.6-132.6zM112.7-107.6c-0.2 22.8-2.5 29.8-3.2 31.4 -3.9 9-8.8 16.8-14.5 23.4 -4.5 5.2-9.6 9.6-15 13.1 -7.2 4.6-13.3 6.4-15.9 7.1 -2.6-0.6-8.7-2.5-15.9-7.1 -5.4-3.5-10.5-7.9-15-13.1 -5.7-6.5-10.6-14.4-14.5-23.4 -0.7-1.6-3-8.6-3.2-31.3 -0.1-7.1 0.1-13.7 0.3-18.3 2.4-1.2 5.7-2.8 9.6-4.3 8.6-3.4 22-7.4 37.7-7.4l1 0.1 1-0.1c15.4 0 28.7 3.9 37.1 7.2 4.2 1.6 7.7 3.3 10.2 4.6C112.6-121.2 112.7-114.6 112.7-107.6zM59.6-121.2L37-64.1h54.2l-21.1-57.1H59.6zM60.3-73h-9.4l13.9-36.4 5.1 14.7L60.3-73zM75.1-81.1l3.1 8.2h-6.6L75.1-81.1z"/><path fill="#FFFFFF" d="M30.7-1050c-18.6 0-33.7 15.1-33.7 33.7s15.1 33.7 33.7 33.7c17.8 0 32.9-15.4 32.9-33.7C63.6-1034.6 48.5-1050 30.7-1050zM45.7-1000.9c-4 4.2-9.3 6.5-15 6.5 -12.1 0-22-9.9-22-22 0-12.1 9.9-22 22-22 5.6 0 10.9 2.3 15 6.5 4 4.2 6.2 9.7 6.2 15.5S49.7-1005.1 45.7-1000.9zM153.8-1049.6l-26.3 66.5h63.1l-24.6-66.5H153.8zM154.6-993.4h-11l16.1-42.4 6 17.2L154.6-993.4zM171.8-1003l3.6 9.5h-7.7L171.8-1003zM-18.7-1001.8c-0.1 0.1-6.9 7.4-17.6 7.4 -11.9 0-20.9-9.6-20.9-22.4 0-12.5 8.8-21.6 20.8-21.6 9.7 0 16.4 6.1 16.5 6.2l1.7 1.6 6.4-9.7 -1.1-1.1c-0.3-0.4-8.4-8.7-23.9-8.7 -19 0-33.3 14.4-33.3 33.5 0 9.4 3.3 18 9.4 24.3 6.2 6.4 14.7 9.9 24.1 9.9 16.2 0 25.1-10 25.4-10.5l1-1.2 -7-9.4L-18.7-1001.8z"/><polygon fill="#FFFFFF" points="88.1 -1049.6 74.4 -1049.6 74.4 -983.2 114.9 -983.2 114.9 -995.5 88.1 -995.5 "/><path fill="#FFFFFF" d="M241.8-1018.3c3.6-3.1 5.7-8 5.7-13.3 0-10.6-8-18-19.9-18h-23.3v66.5h23.9c13 0 21.8-8 21.8-19.7C250-1009.6 246.9-1015.4 241.8-1018.3zM216-1037.3h11.5c4.6 0 7.3 2.9 7.3 7.4 0 4.5-2.8 7.7-7.1 7.7H216V-1037.3zM228.6-995.5H216v-16.5h12.6c5.3 0 8.7 3 8.7 8.3C237.2-998.3 234-995.5 228.6-995.5z"/><path d="M270-89c0 2.6 0 5.2 0 7.8 -0.2 1.7-0.4 3.3-0.6 5 -2.6 17.4-10.9 31.5-24.8 42.2 -8.7 6.7-18.7 10.8-29.6 12.3 -2.4 0.3-4.8 0.5-7.2 0.8 -1.1 0-2.3 0-3.4 0 -0.4-0.1-0.8-0.1-1.3-0.2 -2.3-0.2-4.7-0.3-7-0.7 -12.3-2-23.2-7.1-32.6-15.5 -10.7-9.6-17.5-21.4-20.2-35.5 -0.7-3.4-0.9-7-1.3-10.4 0-1.2 0-2.4 0-3.6 0.1-0.5 0.2-0.9 0.2-1.4 0.6-11.6 4-22.3 10.5-31.9 10.1-15.1 24.2-24.4 42.1-27.7 2.5-0.5 5-0.7 7.5-1 2.6 0 5.2 0 7.8 0 0.3 0.1 0.6 0.2 0.9 0.2 8.7 0.6 17 2.9 24.7 7.1 18.2 9.9 29.4 25.1 33.4 45.5C269.4-93.9 269.7-91.4 270-89zM242.1-82.2c0-2 0-3.7 0-5.6 -11.1 0-22.1 0-33.3 0 0-11.2 0-22.2 0-33.2 -1.9 0-3.6 0-5.6 0 0 11.1 0 22.2 0 33.3 -11.2 0-22.2 0-33.3 0 0 1.9 0 3.6 0 5.5 11.1 0 22.2 0 33.4 0 0 11.2 0 22.2 0 33.3 1.9 0 3.7 0 5.5 0 0-11.1 0-22.1 0-33.3C220-82.2 231-82.2 242.1-82.2z"/><path fill="#FF0000" d="M1014-415c-3 0-5 0-8 0 0 17 0 34 0 52 -18 0-35 0-52 0 0 3 0 5 0 8 17 0 34 0 52 0 0 18 0 35 0 52 3 0 6 0 8 0 0-17 0-34 0-52 18 0 35 0 52 0 0-3 0-6 0-8 -17 0-34 0-52 0C1014-381 1014-398 1014-415z"/><path fill="#FF0000" d="M1010-451.1c50.7 0 92 41.3 92 92s-41.3 92-92 92 -92-41.3-92-92S959.3-451.1 1010-451.1M1010-459.1c-55.2 0-100 44.8-100 100s44.8 100 100 100 100-44.8 100-100S1065.2-459.1 1010-459.1L1010-459.1z"/><path d="M353-121c-2 0-4 0-6 0 0 11 0 22 0 33 -11 0-22 0-33 0 0 2 0 4 0 6 11 0 22 0 33 0 0 11 0 22 0 33 2 0 4 0 6 0 0-11 0-22 0-33 11 0 22 0 33 0 0-2 0-4 0-6 -11 0-22 0-33 0C353-99 353-110 353-121z"/><path d="M350-143.9c32.5 0 58.9 26.4 58.9 58.9S382.5-26.1 350-26.1c-32.5 0-58.9-26.4-58.9-58.9S317.5-143.9 350-143.9M350-149c-35.3 0-64 28.7-64 64s28.7 64 64 64c35.3 0 64-28.7 64-64S385.3-149 350-149L350-149z"/><path fill-rule="evenodd" clip-rule="evenodd" d="M424-138.1c0.5 0.2 1 0.4 1.4 0.6 12.3 6.1 24.5 12.3 36.8 18.4 0.9 0.5 1.3 1 1.3 2 0 28.6 0 57.2 0 85.8 0 0.4 0 0.8-0.1 1.5 -0.5-0.3-0.9-0.4-1.3-0.6 -12-6-24-12-36-18 -0.8-0.4-1.4-1.2-2.1-1.8C424-79.6 424-108.9 424-138.1zM511.6-139c0.4 0.3 0.8 0.6 1.3 0.8 12.3 6.1 24.5 12.3 36.8 18.4 0.5 0.2 0.9 0.5 1.5 0.8 -13.6 22.1-27.2 44.2-40.8 66.4 -0.3-0.5-0.6-0.9-0.9-1.3 -8.2-13.3-16.3-26.6-24.6-39.9 -0.6-1-0.6-1.6 0-2.5 8.8-14.2 17.6-28.5 26.4-42.7C511.4-139 511.5-139 511.6-139zM552-29.8c-12.8-6.4-25.5-12.7-38.3-19.2 12.7-20.7 25.4-41.3 38.3-62.3C552-84 552-57 552-29.8zM503.2-54.3c-0.4-0.2-0.8-0.4-1.2-0.6 -10.8-5.4-21.6-10.8-32.4-16.2 -0.8-0.4-1.2-0.8-1.2-1.8 0-12.4 0-24.8 0-37.3 0-0.3 0-0.5 0.3-0.9 11.6 18.8 23.2 37.7 34.8 56.5C503.4-54.4 503.3-54.3 503.2-54.3z"/><path fill="#0099FF" d="M12 4c4.4 0 8 3.6 8 8s-3.6 8-8 8 -8-3.6-8-8S7.6 4 12 4M12 0C5.4 0 0 5.4 0 12s5.4 12 12 12c6.6 0 12-5.4 12-12S18.6 0 12 0L12 0z"/><line fill="none" stroke="#0099FF" stroke-width="4" stroke-miterlimit="10" x1="12" y1="22" x2="12" y2="102"/><path fill="#66CCFF" d="M12 122c-5.5 0-10-4.5-10-10s4.5-10 10-10 10 4.5 10 10S17.5 122 12 122z"/><path fill="#0099FF" d="M12 104c4.4 0 8 3.6 8 8s-3.6 8-8 8 -8-3.6-8-8S7.6 104 12 104M12 100c-6.6 0-12 5.4-12 12s5.4 12 12 12 12-5.4 12-12S18.6 100 12 100L12 100z"/><line fill="none" stroke="#0099FF" stroke-width="4" stroke-miterlimit="10" x1="12" y1="122" x2="12" y2="202"/><path fill="#0099FF" d="M12 222c-5.5 0-10-4.5-10-10s4.5-10 10-10 10 4.5 10 10S17.5 222 12 222z"/><path fill="#0099FF" d="M12 204c4.4 0 8 3.6 8 8s-3.6 8-8 8 -8-3.6-8-8S7.6 204 12 204M12 200c-6.6 0-12 5.4-12 12s5.4 12 12 12 12-5.4 12-12S18.6 200 12 200L12 200z"/><line fill="none" stroke="#0099FF" stroke-width="4" stroke-miterlimit="10" x1="12" y1="222" x2="12" y2="300"/></svg>