<svg xmlns="http://www.w3.org/2000/svg" style="display: none;">
  
    <symbol id="icon-play" viewBox="0 0 512 512">
      <path d="m256 512c-141 0-256-115-256-256c0-141 115-256 256-256c141 0 256 115 256 256c0 141-115 256-256 256z m0-448c-106 0-192 86-192 192c0 106 86 192 192 192c106 0 192-86 192-192c0-106-86-192-192-192z m-64 96l160 96l-160 96z"/>
    </symbol>
  
    <symbol id="icon-cc" viewBox="0 0 512 512">
      <path d="m406 237c-8 0-15 7-15 15l0 105-166 92 0-208 75-42c7-4 10-13 6-20-4-7-13-9-20-5l-76 41-163-90 163-79 74 35c7 4 16 1 19-7 4-7 1-16-6-19l-80-39c-4-2-9-2-13 0l-196 94c0 0 0 0 0 0 0 1-1 1-1 1 0 0-1 0-1 1 0 0-1 0-1 1 0 0 0 0 0 0-1 0-1 1-2 1 0 0 0 0 0 0 0 1 0 1-1 2 0 0 0 0 0 0 0 0 0 0 0 1 0 0 0 0-1 0 0 0 0 1 0 1 0 0 0 1 0 1 0 1 0 1 0 1-1 0-1 1-1 1 0 0 0 1 0 1 0 0 0 1 0 2 0 0 0 0 0 0l0 241c0 6 3 11 8 13l195 109c0 0 0 0 0 0 1 0 1 0 2 1 0 0 0 0 0 0 1 0 1 0 2 0 0 0 0 0 0 0 0 0 1 0 1 0 0 0 1 0 1 1 0 0 1 0 1 0 1 0 2 0 2 0 0-1 0-1 1-1 0 0 0 0 1 0 0 0 0 0 0 0 1 0 1 0 2 0 0 0 0 0 0 0 0-1 1-1 2-1 0 0 0 0 0 0l195-109c5-2 8-7 8-13l0-113c0-8-7-15-15-15z m-210 212l-167-92 0-208 167 92z m210-430c-58 0-105 47-105 105 0 58 47 105 105 105 58 0 105-47 105-105 0-58-47-105-105-105z m0 180c-42 0-75-34-75-75 0-42 33-76 75-76 42 0 76 34 76 76 0 41-34 75-76 75z m-12-65c-2 2-6 6-14 6-9 0-16-7-16-16 0-10 7-17 16-17 4 0 8 2 12 5l2 2 11-12-2-2c-6-6-14-9-23-9-19 0-33 14-33 33 0 18 14 32 33 32 11 0 20-4 27-12l1-2-12-11z m11-10c0 18 14 32 33 32 11 0 21-4 27-12l2-2-13-11-1 3c-2 2-7 6-14 6-10 0-17-7-17-16 0-10 7-17 16-17 5 0 9 2 12 5l2 2 11-12-2-2c-6-6-14-9-23-9-19 0-33 14-33 33z"/>
    </symbol>
  
    <symbol id="icon-shield-logo" viewBox="0 0 512 512">
      <path d="m494 66c0 0-98-66-234-66-1 0-2 0-4 0-1 0-2 0-3 0-136 0-235 66-235 66 0 0-11 186 15 244 80 182 220 202 223 202 3 0 144-20 224-202 25-58 14-244 14-244z m-43 100c-1 91-10 119-13 125-16 36-35 67-58 94-18 20-38 38-60 52-29 18-53 26-64 28-10-2-34-10-63-28-22-14-42-32-60-52-23-26-42-58-58-94-3-6-12-34-13-125 0-28 0-55 1-73 10-5 23-11 39-17 34-14 88-30 150-30l4 0 4 0c62 0 115 16 149 29 17 6 30 13 41 18 0 18 1 44 1 73z m-212-55l-91 228 217 0-85-228z m2 193l-37 0 55-145 21 59z m59-33l13 33-27 0z"/>
    </symbol>
  
    <symbol id="icon-plus" viewBox="0 0 512 512">
      <path d="m256 0c-141 0-256 115-256 256 0 141 115 256 256 256 141 0 256-115 256-256 0-141-115-256-256-256z m0 487c-128 0-231-104-231-231 0-127 104-231 231-231 127 0 231 104 231 231 0 127-104 231-231 231z m113-228c0 7-6 12-12 12l-89 0 0 88c0 7-5 12-12 12-7 0-12-5-12-12l0-88-89 0c-6 0-12-5-12-12 0-6 6-12 12-12l88 0 0-88c0-7 6-12 12-12 7 0 12 5 12 12l0 88 88 0c8 0 14 6 14 12z"/>
    </symbol>
  
    <symbol id="icon-logo-triangle" viewBox="0 0 512 512">
      <path d="m216 0l-203 512 486 0-189-512z m6 433l-85 0 125-326 46 132z m132-73l28 73-60 0z"/>
    </symbol>
  
</svg>
