<svg xmlns="http://www.w3.org/2000/svg" style="display: none;">
  
    <symbol id="icon-play" viewBox="0 0 512 512">
      <path d="m256 512c-141 0-256-115-256-256c0-141 115-256 256-256c141 0 256 115 256 256c0 141-115 256-256 256z m0-448c-106 0-192 86-192 192c0 106 86 192 192 192c106 0 192-86 192-192c0-106-86-192-192-192z m-64 96l160 96l-160 96z"/>
    </symbol>
  
    <symbol id="icon-cc" viewBox="0 0 512 512">
      <path d="m406 237c-8 0-15 7-15 15l0 105-166 92 0-208 75-42c7-4 10-13 6-20-4-7-13-9-20-5l-76 41-163-90 163-79 74 35c7 4 16 1 19-7 4-7 1-16-6-19l-80-39c-4-2-9-2-13 0l-196 94c0 0 0 0 0 0 0 1-1 1-1 1 0 0-1 0-1 1 0 0-1 0-1 1 0 0 0 0 0 0-1 0-1 1-2 1 0 0 0 0 0 0 0 1 0 1-1 2 0 0 0 0 0 0 0 0 0 0 0 1 0 0 0 0-1 0 0 0 0 1 0 1 0 0 0 1 0 1 0 1 0 1 0 1-1 0-1 1-1 1 0 0 0 1 0 1 0 0 0 1 0 2 0 0 0 0 0 0l0 241c0 6 3 11 8 13l195 109c0 0 0 0 0 0 1 0 1 0 2 1 0 0 0 0 0 0 1 0 1 0 2 0 0 0 0 0 0 0 0 0 1 0 1 0 0 0 1 0 1 1 0 0 1 0 1 0 1 0 2 0 2 0 0-1 0-1 1-1 0 0 0 0 1 0 0 0 0 0 0 0 1 0 1 0 2 0 0 0 0 0 0 0 0-1 1-1 2-1 0 0 0 0 0 0l195-109c5-2 8-7 8-13l0-113c0-8-7-15-15-15z m-210 212l-167-92 0-208 167 92z m210-430c-58 0-105 47-105 105 0 58 47 105 105 105 58 0 105-47 105-105 0-58-47-105-105-105z m0 180c-42 0-75-34-75-75 0-42 33-76 75-76 42 0 76 34 76 76 0 41-34 75-76 75z m-12-65c-2 2-6 6-14 6-9 0-16-7-16-16 0-10 7-17 16-17 4 0 8 2 12 5l2 2 11-12-2-2c-6-6-14-9-23-9-19 0-33 14-33 33 0 18 14 32 33 32 11 0 20-4 27-12l1-2-12-11z m11-10c0 18 14 32 33 32 11 0 21-4 27-12l2-2-13-11-1 3c-2 2-7 6-14 6-10 0-17-7-17-16 0-10 7-17 16-17 5 0 9 2 12 5l2 2 11-12-2-2c-6-6-14-9-23-9-19 0-33 14-33 33z"/>
    </symbol>
  
    <symbol id="icon-shield-logo" viewBox="0 0 512 512">
      <path d="m494 66c0 0-98-66-234-66-1 0-2 0-4 0-1 0-2 0-3 0-136 0-235 66-235 66 0 0-11 186 15 244 80 182 220 202 223 202 3 0 144-20 224-202 25-58 14-244 14-244z m-43 100c-1 91-10 119-13 125-16 36-35 67-58 94-18 20-38 38-60 52-29 18-53 26-64 28-10-2-34-10-63-28-22-14-42-32-60-52-23-26-42-58-58-94-3-6-12-34-13-125 0-28 0-55 1-73 10-5 23-11 39-17 34-14 88-30 150-30l4 0 4 0c62 0 115 16 149 29 17 6 30 13 41 18 0 18 1 44 1 73z m-212-55l-91 228 217 0-85-228z m2 193l-37 0 55-145 21 59z m59-33l13 33-27 0z"/>
    </symbol>
  
    <symbol id="icon-plus" viewBox="0 0 512 512">
      <path d="m256 0c-141 0-256 115-256 256 0 141 115 256 256 256 141 0 256-115 256-256 0-141-115-256-256-256z m0 487c-128 0-231-104-231-231 0-127 104-231 231-231 127 0 231 104 231 231 0 127-104 231-231 231z m113-228c0 7-6 12-12 12l-89 0 0 88c0 7-5 12-12 12-7 0-12-5-12-12l0-88-89 0c-6 0-12-5-12-12 0-6 6-12 12-12l88 0 0-88c0-7 6-12 12-12 7 0 12 5 12 12l0 88 88 0c8 0 14 6 14 12z"/>
    </symbol>
  
    <symbol id="icon-logo-triangle" viewBox="0 0 512 512">
      <path d="m216 0l-203 512 486 0-189-512z m6 433l-85 0 125-326 46 132z m132-73l28 73-60 0z"/>
    </symbol>
  
    <symbol id="icon-box-open" viewBox="0 0 512 512">
      <path d="m512 135c0 0 0 0 0 0 0-1 0-2 0-2 0 0 1-1 1-1 0 0 0-1 0-1 0 0 0-1 0-1 0-1 0-1 0-1 0-1 0-1 0-2 0 0 0 0 0-1 0 0 0-1 0-1 0-1 0-1-1-1 0-1 0-1 0-2 0 0 0 0 0 0 0 0-1 0-1-1 0 0 0 0-1-1 0 0 0-1-1-1 0 0 0 0 0-1-1 0-1 0-2-1 0 0 0 0 0 0l-1 0c0 0 0 0 0 0l-155-88c0 0 0 0 0 0-1 0-1 0-1 0-1 0-1-1-2-1 0 0 0 0 0 0-1 0-2 0-2 0 0 0-1 0-1 0 0 0-1 0-2 0 0 0 0 0 0 0-1 0-2 0-2 0 0 0-1 1-1 1 0 0-1 0-2 0 0 0 0 0 0 0l-81 46-81-46c0 0 0 0 0 0 0 0-1 0-2 0 0 0 0-1 0-1-1 0-2 0-2 0 0 0-1 0-1 0 0 0-1 0-2 0 0 0 0 0 0 0-1 0-2 0-2 0 0 0-1 0-1 0 0 0-1 1-1 1-1 0-1 0-1 0 0 0 0 0-1 0l-155 88c0 0 0 0 0 0l0 0c0 0-1 0-1 0 0 1-1 1-1 1 0 1-1 1-1 1 0 0-1 1-1 1 0 1-1 1-1 1 0 1 0 1 0 1 0 0 0 0 0 0-1 1-1 1-1 2 0 0 0 0 0 1 0 0 0 1-1 1 0 0 0 1 0 1 0 1 0 1 0 1 0 1 0 1 0 2 0 0 0 0 1 1 0 0 0 1 0 1 0 0 0 1 0 1 0 1 1 1 1 2 0 0 0 0 0 0 0 0 0 0 0 0 1 1 1 1 2 2 0 0 0 1 0 1 1 0 2 1 2 1 1 0 1 1 1 1 0 0 0 0 0 0l70 37-61 29c0 0 0 0 0 0-1 1-1 1-2 1 0 0 0 1-1 1 0 0 0 0 0 1-1 0-1 0-1 1-1 0-1 0-1 0 0 1 0 1 0 1 0 0 0 1-1 1 0 0 0 1 0 1 0 1 0 1-1 1 0 1 0 1 0 2 0 0 0 0 0 1 0 0 0 1 0 1 0 0 0 1 0 1 0 1 0 1 0 2 0 0 0 0 1 1 0 0 0 1 0 1 0 0 0 0 0 0 0 1 0 1 1 1 0 1 0 1 1 2 0 0 0 0 1 1 0 0 1 1 2 2l78 52c0 1 0 2 0 3l0 77c0 0 0 0 0 0l0 0c0 0 0 0 0 1 0 0 0 1 0 2 0 0 0 0 0 1 1 0 1 1 1 1 0 0 0 1 0 1 1 0 1 1 1 1 0 1 1 1 1 1 0 1 0 1 1 1 0 1 0 1 1 1 0 1 0 1 1 1l0 0 150 103c0 0 0 0 0 0 0 0 0 0 1 0 0 0 0 0 1 1 0 0 1 0 1 0 0 0 1 0 1 0 0 0 0 1 0 1 1 0 2 0 3 0 0 0 0 0 0 0l0 0c0 0 0 0 0 0 0 0 0 0 0 0 1 0 2 0 3 0 0 0 0-1 1-1 0 0 0 0 0 0 1 0 1 0 2 0 0-1 0-1 1-1 0 0 0 0 1 0 0 0 0 0 0 0l150-103c0 0 0-1 1-1 0 0 0 0 1-1 0 0 0 0 1-1 0 0 0 0 0-1 1 0 1-1 1-1 0 0 0-1 1-1 0 0 0-1 0-1 0-1 0-1 0-1 0-1 1-2 1-2 0-1 0-1 0-1l0 0c0 0 0 0 0 0l0-77c0-1-1-2-1-3l79-52c1-1 1-2 2-2 0 0 0-1 0-1 1-1 2-1 2-2 0 0 0 0 0-1 0 0 0 0 0 0 1 0 1-1 1-1 0-1 0-1 0-1 0-1 0-1 0-2 0 0 0-1 0-1 1 0 0-1 0-1 0-1 0-1 0-1 0-1 0-1 0-2 0 0 0 0 0-1 0 0-1-1-1-1 0 0 0-1-1-1 0 0 0 0 0-1 0 0 0 0 0 0 0 0-1-1-1-1 0-1-1-1-1-1 0 0-1-1-1-1 0 0-1 0-1-1 0 0-1 0-1 0l-60-29 69-37c0 0 0 0 0 0 1 0 1-1 1-1 1 0 1-1 2-1 0 0 0-1 1-1 0-1 1-1 1-2 0 0 1 0 1 0z m-167 165l-62-41 125-67 57 28z m-175 0l-121-80 58-28 125 67z m0-244l61 34-124 72-65-34z m87 187l-123-66 123-72 124 72z m27-153l61-34 128 72-65 34z m-121 236c0 0 0 0 0 0 1 1 2 1 2 1 1 1 1 1 1 1 1 0 3 0 4 0 0 0 0 0 0 0l0 0c0 0 0 0 0 0 1 0 2 0 3 0 1 0 1 0 1-1 1 0 2 0 3-1 0 0 0 0 0 0l67-44 0 157-124-85 0-56z m231 28l-124 85 0-157 68 44c0 0 0 0 0 0 1 1 1 1 2 1 1 1 1 1 1 1 1 0 2 0 4 0 0 0 0 0 0 0l0 0c0 0 0 0 0 0 1 0 2 0 3 0 0 0 1 0 1-1 1 0 2 0 2-1 1 0 1 0 1 0l43-28 0 56z"/>
    </symbol>
  
    <symbol id="icon-box-inside" viewBox="0 0 512 512">
      <path d="m470 138c0-1 0-1 0-1 0 0 0-1 0-1 0-1 0-1 0-1 0 0-1-1-1-1 0-1 0-1 0-1 0 0 0 0 0-1-1 0-1 0-1 0 0 0 0 0 0-1 0 0-1-1-1-1 0 0 0 0 0 0-1-1-1-1-2-1 0-1 0-1 0-1 0 0-1 0-1-1 0 0 0 0 0 0-1 0-1-1-2-1 0 0 0 0 0 0l-63-30 0-20c0 0 0 0 0 0 0 0 0-1 0-2 0 0 0 0 0 0 0-1-1-1-1-2 0 0 0 0 0 0 0-1 0-1 0-2 0 0-1 0-1 0 0 0 0-1 0-1 0 0 0 0 0 0 0-1-1-1-1-1 0 0 0-1-1-1 0 0 0 0 0 0 0-1-1-1-1-2 0 0 0 0 0 0-1 0-1-1-2-1 0 0 0 0 0 0 0-1-1-1-2-1 0 0 0 0 0 0l-128-62c-4-2-8-2-12 0l-128 62c0 0 0 0 0 0-1 0-2 0-2 1 0 0 0 0 0 0-1 0-1 1-2 1 0 0 0 0 0 0 0 1-1 1-1 2 0 0 0 0 0 0-1 0-1 1-1 1 0 0-1 0-1 1 0 0 0 0 0 0 0 0 0 1 0 1 0 0-1 0-1 0 0 1 0 1 0 2 0 0 0 0 0 0 0 1-1 1-1 2 0 0 0 0 0 0 0 1 0 2 0 2 0 0 0 0 0 0l0 20-63 30c0 0 0 0 0 0-1 0-1 1-2 1 0 0 0 0 0 0 0 1-1 1-1 1 0 0 0 0 0 1-1 0-1 0-2 1 0 0 0 0 0 0 0 0-1 1-1 1 0 1 0 1 0 1 0 0 0 0 0 0-1 1-1 1-1 1 0 0 0 0 0 1 0 0-1 1-1 1 0 0 0 1 0 1 0 0 0 1 0 1 0 0 0 0 0 1 0 0 0 1 0 2 0 0 0 0 0 0l0 246c0 5 3 10 7 13l200 111c0 0 0 0 0 0 0 0 1 0 1 0 0 0 1 0 1 0 0 1 1 1 1 1 0 0 0 0 0 0 1 0 1 0 2 0 0 0 0 0 0 0 1 0 1 0 2 0 1 0 1 0 2 0 0 0 0 0 0 0 1 0 1 0 1 0 1 0 1 0 1 0 0 0 1 0 1-1 0 0 1 0 1 0 0 0 1 0 1 0 0 0 0 0 0 0l200-111c4-3 7-8 7-13l0-246c0 0 0 0 0 0 0-1 0-2 0-2z m-47 3l-24 13 0-25z m-152 84l0-69 98-54 0 68z m-128-123l98 54 0 69-98-55z m113-71l95 46-95 53-95-53z m-143 123l-24-13 24-12z m-41 11l49 27c0 0 0 0 0 0l120 67 0 212-169-94 0-212z m199 306l0-212 120-67c0 0 0 0 0 0l49-27 0 212z"/>
    </symbol>
  
    <symbol id="icon-box-piece" viewBox="0 0 512 512">
      <path d="m481 115c0 0 0 0 0 0 0-1 0-1 0-2 0 0 0 0 0 0-1-1-1-1-1-2 0 0 0 0 0 0 0-1-1-1-1-1 0 0 0-1 0-1 0 0 0 0 0 0-1-1-1-1-1-2 0 0 0 0 0 0-1 0-1-1-2-1 0 0 0-1 0-1-1 0-1 0-2-1 0 0 0 0 0 0 0 0-1-1-2-1 0 0 0 0 0 0l-105-50-105-51c-4-2-9-2-14 0l-105 51-105 50c0 0 0 0 0 0 0 0-1 1-1 1-1 0-1 0-1 0 0 1-1 1-1 1 0 0 0 1 0 1-1 0-1 1-2 1 0 0 0 0 0 0 0 1-1 1-1 2 0 0 0 0 0 0 0 0-1 1-1 1 0 0 0 0 0 1 0 0 0 0 0 0-1 1-1 1-1 2 0 0 0 0 0 0 0 1 0 1 0 2 0 0 0 0 0 0-1 1-1 2-1 2 0 0 0 0 0 0l0 259c0 6 4 11 9 14l102 57c1 1 2 1 3 2l105 58c0 0 0 0 0 0 0 1 1 1 1 1 1 0 1 0 1 0 0 0 1 1 1 1 0 0 1 0 1 0 0 0 1 0 1 0 0 0 0 0 1 0 0 0 1 0 1 0 1 0 2 0 2 0 0 0 1 0 1 0 0 0 1 0 1 0 0 0 0 0 1 0 0 0 1-1 1-1 0 0 0 0 0 0 1 0 1 0 2-1 0 0 0 0 0 0l105-58c1-1 2-1 3-2l102-57c5-3 8-8 8-14l0-259c0 0 0 0 0 0 0 0 0-1 0-2z m-420 29l73 41 0 93-73-40z m89-59l71 33-71 39-70-39z m210 0l71 33-71 39-70-39z m-105 261l-72-41 72-40 73 40z m90-68l-74-40 0-94 74 41z m-105-40l-74 40 0-93 74-41z m-74 94l74 41 0 93-74-40z m105 41l74-41 0 94-74 40z m105-95l0-93 74-41 0 94z m-121-244l69 33-69 33-68-33z m-194 240l73 41 0 93-73-41z m315 134l0-93 74-41 0 93z"/>
    </symbol>
  
    <symbol id="icon-box-line" viewBox="0 0 512 512">
      <path d="m205 231l0 0c0 0 0 1 0 1 1 0 1 0 1 0l1 0 0 0c0 0 0 0 0 0 0 0 0 0 0 0 0 0 0 0 0 0 0 0 0 1 0 1l2 0c0 0 0 0 0 0 0 0 0 0 0 0 0 0 0 0 0 0l1 1c0 0 0 0 0 0 0 0 0 0 0 0 0 0 0 0 0 0l1 0c0 0 0 0 0 0l0 1c0 0 0 0 1 0 0 0 0 0 0 0l1 0c0 0 0 0 0 1 0 0 0 0 0 0l1 0c0 0 0 0 0 0 0 0 0 0 0 0 0 0 0 0 1 0l0 0c0 0 0 0 0 0l1 1c0 0 0 0 0 0 0 0 0 0 0 0l1 1c0 0 1 0 1 0 0 0 0 0 0 0l0 0c0 0 1 0 1 0 0 0 0 0 0 0l0 1c0 0 0 0 1 0l0 0c0 0 0 0 0 0 0 0 1 0 1 0l1 1c0 0 0 0 0 0 0 0 0 0 0 0l1 0c0 0 0 0 0 0 0 0 0 1 0 1 0 0 0 0 0 0l1 0c0 0 0 0 0 0l0 0 0 0c0 0 0 0 0 0 1 0 1 0 1 0 0 0 0 1 0 1l1 0c0 0 0 0 0 0 0 0 1 0 1 0l0 1c0 0 0 0 0 0 0 0 0 0 0 0 1 0 1 0 1 0l0 0c0 0 0 0 0 0l1 0 0 1c0 0 0 0 0 0l0 0c0 0 0 0 0 0 0 0 0 0 0 0 0 0 0 0 0 0l2 0c0 0 0 0 0 0 0 1 0 1 0 1l1 0c0 0 0 0 0 0 0 0 0 0 0 0 0 0 0 0 0 0l1 0c0 0 0 0 0 0l0 1c0 0 0 0 1 0 0 0 0 0 0 0l0 0 0 0c0 0 0 0 0 0l1 1c0 0 0 0 0 0 0 0 0 0 0 0l1 0c0 0 0 0 0 0 0 0 0 0 1 0l0 1c0 0 0 0 0 0l1 0 0 0c0 0 0 0 0 0 0 0 0 0 0 0l1 1c0 0 0 0 0 0l0 0c0 0 1 0 1 0 0 0 0 0 0 0l0 0c0 0 0 0 0 0 0 0 0 0 0 0l0 1c0 0 0 0 0 1 0 0 0 0 0 0l0 1c0 0 0 0 0 0 0 0 0 0 0 1l0 1c0 0 0 0 0 0 0 0 0 0 0 0l0 1c0 0 0 0 0 1 0 0 0 0 0 0l0 1c0 0 0 0 0 0 0 0 0 0 0 1l0 1c0 0 0 0 0 0 0 0 0 0 0 0l0 1c0 0 0 0 0 1 0 0 0 0 0 0l0 1c0 0 0 0 0 0 0 0 0 0 0 0l0 2c0 0 0 0 0 0 0 0 0 0 0 0l0 1c0 0 0 0 0 1 0 0 0 0 0 0l0 1c0 0 0 0 0 0 0 0 0 0 0 0l0 2c0 0 0 0 0 0 0 0 0 0 0 0l0 1c0 0 0 0 0 0 0 1 0 1 0 1l0 1c0 0 0 0 0 0 0 0 0 0 0 0l0 2c0 0 0 0 0 0 0 0 0 0 0 0l0 1c0 0 0 0 0 0 0 1 0 1 0 1l0 1c0 0 0 0 0 0 0 0 0 0 0 0l0 2c0 0 0 0 0 0 0 0 0 0 0 0l0 1c0 0 0 0 0 0 0 1 0 1 0 1l0 1c0 0 0 0 0 0 0 0 0 0 0 0l0 1c0 1 0 1 0 1 0 0 0 0 0 0l0 1c0 0 0 0 0 0 0 1 0 1 0 1l0 1c0 0 0 0 0 0 0 0 0 0 0 0l0 1c0 1 0 1 0 1 0 0 0 0 0 0l0 0c0 9 7 16 16 16 9 0 16-7 16-16l0 0c0 0 0 0 0 0 0 0 0 0 0-1l0-1c0 0 0 0 0 0 0 0 0 0 0 0l0-1c0 0 0 0 0-1 0 0 0 0 0 0l0-1c0 0 0 0 0 0 0 0 0 0 0-1l0-1c0 0 0 0 0 0 0 0 0 0 0 0l0-1c0 0 0 0 0-1 0 0 0 0 0 0l0-1c0 0 0 0 0 0 0 0 0 0 0 0l0-2c0 0 0 0 0 0 0 0 0 0 0 0l0-1c0 0 0 0 0-1 0 0 0 0 0 0l0-1c0 0 0 0 0 0 0 0 0 0 0 0l0-2c0 0 0 0 0 0 0 0 0 0 0 0l0-1c0 0 0 0 0-1 0 0 0 0 0 0l0-1c0 0 0 0 0 0 0 0 0 0 0 0l0-2c0 0 0 0 0 0 0 0 0 0 0 0l0-1c0 0 0 0 0 0 0-1 0-1 0-1l0-1c0 0 0 0 0 0 0 0 0 0 0 0l0-2c0 0 0 0 0 0 0 0 0 0 0 0l0-1c0 0 0 0 0 0 0-1 0-1 0-1l0-1c0 0 0 0 0 0 0 0 0 0 0 0l0-2c0 0 0 0 0 0 0 0 0 0 0 0l0-1c0 0 0 0 0 0 0-1 0-1 0-1l0-1c0 0 0 0 0 0 0 0 0 0 0 0l0-1c0-1 0-1 0-1 0 0 0 0 0 0l0-1c0 0 0 0 0 0 0-1 0-1 0-1l0-1c0 0 0 0 0 0 0 0 0 0 0 0 0 0 0 0 0 0l1-1c0 0 0 0 0 0 0 0 0 0 0 0l1 0c0 0 0-1 1-1 0 0 0 0 0 0l0 0c1 0 1 0 1 0 0 0 0-1 0-1l1 0c0 0 0 0 0 0 0 0 0 0 1 0l1-1c0 0 0 0 0 0 0 0 0 0 0 0l1 0c0-1 0-1 0-1 1 0 1 0 1 0l0 0c1 0 1 0 1-1 0 0 0 0 0 0l1 0c0 0 0 0 0 0 0 0 1-1 1-1l0 0c0 0 1 0 1 0 0 0 0 0 0-1l1 0c0 0 0 0 0 0 0 0 0 0 0 0l1-1c1 0 1 0 1 0 0 0 0 0 0 0l1 0c0 0 0-1 0-1 0 0 0 0 1 0l0 0c0 0 0 0 0 0 1 0 1-1 1-1l1 0c0 0 0 0 0 0 0 0 0 0 0 0l1-1c0 0 0 0 1 0 0 0 0 0 0 0l1-1c0 0 0 0 0 0 0 0 0 0 0 0l1-1c0 0 0 0 1 0 0 0 0 0 0 0l0 0c1 0 1 0 1-1 0 0 0 0 0 0l1 0c0 0 0 0 0 0 0 0 0 0 1 0l1-1c0 0 0 0 0 0 0 0 0 0 0 0l1-1c0 0 0 0 0 0 0 0 1 0 1 0l0 0c8-5 10-14 6-22-4-7-13-10-21-6l0 0c0 1-1 1-1 1 0 0 0 0 0 0l-1 0c0 0 0 1 0 1 0 0 0 0-1 0l-1 0c0 0 0 0 0 1 0 0 0 0 0 0l-1 0c0 0 0 0 0 0 0 0-1 0-1 1l0 0c0 0-1 0-1 0 0 0 0 0 0 0l-1 1c0 0 0 0 0 0 0 0 0 0-1 0l0 0c0 0 0 1-1 1 0 0 0 0 0 0l-1 0c0 0 0 0 0 0 0 1 0 1 0 1l-1 0c0 0-1 0-1 0 0 0 0 0 0 1l0 0c-1 0-1 0-1 0 0 0 0 0-1 0l0 1c0 0 0 0 0 0-1 0-1 0-1 0l-1 1c0 0 0 0 0 0 0 0 0 0 0 0l-1 0c0 0 0 0 0 1-1 0-1 0-1 0l-1 0c0 0 0 0 0 0 0 0 0 0 0 0l-1 1c0 0 0 0 0 0-1 0-1 0-1 0l0 1c0 0-1 0-1 0 0 0 0 0 0 0l-1 1c0 0 0 0 0 0 0 0 0 0 0 0l-2 1c0 0 0 0 0 0 0 0 0 0 0 0l-1 0c0 0 0 0 0 0 0 1-1 1-1 1l0 0c0 0-1 0-1 0 0 0 0 0 0 0l-1 1c0 0 0 0 0 0 0 0 0 0-1 0l0 1c0 0 0 0-1 0 0 0 0 0 0 0l0 0 0 0-1 0c0 0 0 0 0 0 0 0 0 0 0 0l-1-1c0 0 0 0 0 0 0 0 0 0 0 0 0 0 0 0-1 0l-1 0 0 0c0 0 0-1 0-1 0 0 0 0 0 0l-1 0c0 0-1 0-1 0 0 0 0-1 0-1l0 0c0 0-1 0-1 0 0 0 0 0 0 0l0 0c0 0 0 0 0 0l-1-1c0 0 0 0 0 0 0 0-1 0-1 0l-1-1c0 0 0 0 0 0 0 0 0 0 0 0 0 0 0 0 0 0l-1 0 0 0c0 0 0 0 0 0l0 0c0 0 0 0 0 0 0 0 0 0 0 0l-1-1c0 0 0 0 0 0l0 0c-1 0-1 0-1 0 0 0 0 0 0 0 0 0 0 0 0 0l-1-1c0 0 0 0 0 0 0 0-1 0-1 0l0 0c0 0 0 0 0 0 0 0 0 0 0 0-1-1-1-1-1-1l0 0c0 0 0 0 0 0l-1 0 0 0c0 0 0 0 0 0 0 0 0 0 0 0 0 0 0 0 0 0l-2-1c0 0 0 0 0 0 0 0 0 0 0 0l-1-1 0 0c0 0 0 0 0 0l0 0c0 0 0 0 0 0 0 0 0 0 0 0 0 0 0 0 0 0l-1 0c0 0 0 0 0 0l0 0c0 0 0-1-1-1 0 0 0 0 0 0l-1 0c0 0 0 0 0 0 0 0 0 0 0-1l-1 0c0 0 0 0 0 0 0 0 0 0-1 0l0 0c0 0 0 0 0 0l-1-1c0 0 0 0 0 0 0 0 0 0 0 0l-1-1c0 0-1 0-1 0 0 0 0 0 0 0l0 0c0 0 0 0-1 0 0 0 0 0 0 0 0 0 0 0 0 0l0-1c0 0 0 0 0 0l-1 0 0 0c0 0 0 0 0 0l0 0c0 0 0 0 0 0 0 0 0 0-1 0l-1-1c0 0 0 0 0 0 0 0 0 0 0 0l-1 0c0 0 0 0 0-1 0 0 0 0 0 0l-1 0c0 0 0 0 0 0l0 0 0 0c-1 0-1 0-1 0 0 0 0 0 0 0 0 0 0 0 0 0l-1-1c0 0 0 0 0 0-1 0-1 0-1 0l0 0c-8-4-17-1-21 6-1 3-2 5-2 7 0 6 4 12 9 14z m67 115c0-9-7-16-16-16-9 0-16 7-16 16l0 0c0 0 0 1 0 1 0 0 0 0 0 0l0 1c0 0 0 0 0 0 0 0 0 1 0 1l0 1c0 0 0 0 0 0 0 0 0 0 0 1l0 0c0 0 0 1 0 1 0 0 0 0 0 0l0 1c0 0 0 0 0 0 0 0 0 1 0 1l0 1c0 0 0 0 0 0 0 0 0 0 0 0l0 1c0 0 0 1 0 1 0 0 0 0 0 0l0 1c0 0 0 0 0 0 0 0 0 0 0 1l0 1c0 0 0 0 0 0 0 0 0 0 0 0l0 1c0 0 0 0 0 1 0 0 0 0 0 0l0 1c0 0 0 0 0 0 0 0 0 0 0 1l0 1c0 0 0 0 0 0 0 0 0 0 0 0l0 1c0 0 0 0 0 1 0 0 0 0 0 0l0 1c0 0 0 0 0 0 0 0 0 0 0 0l0 2c0 0 0 0 0 0 0 0 0 0 0 0l0 1c0 0 0 0 0 1 0 0 0 0 0 0l0 1c0 0 0 0 0 0 0 0 0 0 0 0l0 2c0 0 0 0 0 0 0 0 0 0 0 0l0 1c0 0 0 0 0 0 0 1 0 1 0 1l0 1c0 0 0 0 0 0 0 0 0 0 0 0l0 2c0 0 0 0 0 0 0 0 0 0 0 0l0 1c0 0 0 0 0 0 0 1 0 1 0 1l0 1c0 0 0 0 0 0 0 0 0 0 0 0l0 2c0 0 0 0 0 0 0 0 0 0 0 0l0 1c0 0 0 0 0 0 0 1 0 1 0 1l0 1c0 0 0 0 0 0 0 0 0 0 0 0l0 1c0 1 0 1 0 1 0 0 0 0 0 0l0 1c0 0 0 0 0 0 0 1 0 1 0 1l0 1c0 0 0 0 0 0 0 0 0 0 0 0l0 1c0 0 0 1 0 1 0 0 0 0 0 0l0 0c0 9 7 16 16 16 9 0 16-7 16-16l0 0c0 0 0 0 0 0 0 0 0-1 0-1l0-1c0 0 0 0 0 0 0 0 0 0 0 0l0-1c0 0 0 0 0-1 0 0 0 0 0 0l0-1c0 0 0 0 0 0 0 0 0 0 0-1l0-1c0 0 0 0 0 0 0 0 0 0 0 0l0-1c0 0 0 0 0-1 0 0 0 0 0 0l0-1c0 0 0 0 0 0 0 0 0 0 0 0l0-2c0 0 0 0 0 0 0 0 0 0 0 0l0-1c0 0 0 0 0-1 0 0 0 0 0 0l0-1c0 0 0 0 0 0 0 0 0 0 0 0l0-2c0 0 0 0 0 0 0 0 0 0 0 0l0-1c0 0 0 0 0-1 0 0 0 0 0 0l0-1c0 0 0 0 0 0 0 0 0 0 0 0l0-2c0 0 0 0 0 0 0 0 0 0 0 0l0-1c0 0 0 0 0 0 0-1 0-1 0-1l0-1c0 0 0 0 0 0 0 0 0 0 0 0l0-2c0 0 0 0 0 0 0 0 0 0 0 0l0-1c0 0 0 0 0 0 0-1 0-1 0-1l0-1c0 0 0 0 0 0 0 0 0 0 0 0l0-2c0 0 0 0 0 0 0 0 0 0 0 0l0-1c0 0 0 0 0 0 0-1 0-1 0-1l0-1c0 0 0 0 0 0 0 0 0 0 0 0l0-1c0-1 0-1 0-1 0 0 0 0 0 0l0-1c0 0 0 0 0 0 0-1 0-1 0-1l0-1c0 0 0 0 0 0 0 0 0 0 0 0l0-1c0-1 0-1 0-1 0 0 0 0 0 0l0-1c0 0 0 0 0 0 0 0 0-1 0-1l0-1c0 0 0 0 0 0 0 0 0 0 0 0l0-1c0 0 0-1 0-1 0 0 0 0 0 0l0-1c0 0 0 0 0 0 0 0 0-1 0-1z m-94-166l0 0c0 0 0 0 0 0 0-1-1-1-1-1l-1 0c0 0 0 0 0 0 0 0 0 0 0 0l-1-1c0 0 0 0 0 0 0 0-1 0-1 0l0-1c0 0 0 0-1 0 0 0 0 0 0 0l-1 0c0 0 0-1 0-1 0 0 0 0 0 0l-1 0c0 0 0 0 0 0-1 0-1 0-1-1l0 0c-1 0-1 0-1 0 0 0 0 0 0 0l-1-1c0 0 0 0 0 0 0 0 0 0-1 0l0 0c0 0 0 0-1-1 0 0 0 0 0 0l-1 0c0 0 0 0 0 0 0 0 0 0 0 0l-1-1c0 0 0 0 0 0-1 0-1 0-1 0l0 0c0-1-1-1-1-1 0 0 0 0 0 0l-1 0c0 0 0 0 0 0 0-1 0-1 0-1l-1 0c0 0-1 0-1 0 0 0 0 0 0 0l0-1c-1 0-1 0-1 0 0 0 0 0 0 0l-1-1c0 0 0 0 0 0 0 0 0 0 0 0l-2 0c0 0 0-1 0-1 0 0 0 0 0 0l-1 0c0 0 0 0 0 0 0 0 0 0-1-1l0 0c0 0 0 0 0 0 0 0-1 0-1 0l-1-1c0 0 0 0 0 0 0 0 0 0 0 0l-1 0c0 0 0 0 0-1 0 0-1 0-1 0l0 0c0 0 0 0-1 0 0 0 0 0 0 0l-1-1c0 0 0 0 0 0 0 0 0 0 0 0l-1 0c0-1 0-1 0-1-1 0-1 0-1 0l0 0c-1 0-1 0-1 0 0-1 0-1 0-1l-1 0c0 0 0 0 0 0 0 0 0 0-1 0l0-1c0 0 0 0-1 0 0 0 0 0 0 0l0 0c-8-5-17-2-21 6-5 7-2 17 6 21l0 0c0 0 0 0 1 0 0 0 0 1 0 1l1 0c0 0 0 0 0 0 0 0 0 0 0 0l1 1c0 0 0 0 0 0 1 0 1 0 1 0l0 0c0 0 1 1 1 1 0 0 0 0 0 0l1 0c0 0 0 0 0 0 0 0 0 0 0 0l1 1c0 0 1 0 1 0 0 0 0 0 0 0l0 1c1 0 1 0 1 0 0 0 0 0 0 0l1 0c0 0 0 1 0 1 0 0 0 0 0 0l2 0c0 0 0 0 0 0 0 0 0 1 0 1l1 0c0 0 0 0 0 0 0 0 0 0 1 0l0 1c0 0 0 0 0 0 0 0 1 0 1 0l1 1c0 0 0 0 0 0 0 0 0 0 0 0l1 0c0 0 0 0 0 0 0 0 1 1 1 1l0 0c0 0 0 0 0 0 1 0 1 0 1 0l1 1c0 0 0 0 0 0 0 0 0 0 0 0l1 0c0 0 0 1 0 1 1 0 1 0 1 0l0 0c1 0 1 0 1 0 0 0 0 0 0 0l1 1c0 0 0 0 0 0 0 0 0 0 1 0l0 1c0 0 0 0 1 0 0 0 0 0 0 0l1 0c0 0 0 1 0 1 0 0 0 0 0 0l1 0c0 0 0 0 0 0 1 0 1 1 1 1l0 0c0 0 1 0 1 0 0 0 0 0 0 0l1 1c0 0 0 0 0 0 0 0 0 0 0 0l1 1c0 0 1 0 1 0 0 0 0 0 0 0l0 0c1 0 1 0 1 0 0 0 0 1 0 1l1 0c0 0 0 0 0 0 0 0 0 0 0 0l2 1c0 0 0 0 0 0 0 0 0 0 0 0l0 0c3 1 5 2 8 2 5 0 11-3 13-8 5-8 2-17-6-21z m-78-46l0-1c-1 0-1 0-1 0 0 0 0 0 0 0l-1 0c0 0 0-1 0-1 0 0-1 0-1 0l0 0c0 0-1 0-1 0 0 0 0 0 0-1l-1 0c0 0 0 0 0 0 0 0 0 0 0 0l-1-1c-1 0-1 0-1 0 0 0 0 0 0 0l-1 0c0 0 0 0 0 0 0-1-1-1-1-1l0 0c0 0 0 0-1 0 0 0 0 0 0 0l-1-1c0 0 0 0 0 0 0 0 0 0 0 0l-1 0c0-1 0-1-1-1 0 0 0 0 0 0l-1 0c0 0 0 0 0 0 0-1 0-1 0-1l-1 0c0 0 0 0-1 0 0 0 0 0 0 0l0-1c-1 0-1 0-1 0 0 0 0 0 0 0l-1-1c0 0 0 0 0 0 0 0 0 0 0 0 0 0 0 0 0 0l1 0c0 0 0 0 0 0 1-1 1-1 1-1l1 0c0 0 0 0 0 0 0 0 0 0 0 0l1-1c0 0 0 0 0 0 1 0 1 0 1 0l0-1c0 0 1 0 1 0 0 0 0 0 0 0l1-1c0 0 0 0 0 0 0 0 0 0 1 0l1 0c0 0 0-1 0-1 0 0 0 0 0 0l1 0c0 0 0 0 0 0 0 0 1-1 1-1l0 0c0 0 1 0 1 0 0 0 0 0 0 0l1-1c0 0 0 0 0 0 0 0 0 0 1 0l0 0c7-4 10-14 6-21-4-8-14-11-21-7l-1 1c0 0 0 0 0 0 0 0 0 0 0 0l-1 0c0 1 0 1-1 1 0 0 0 0 0 0l0 0c-1 0-1 0-1 0 0 1 0 1 0 1l-1 0c0 0 0 0 0 0 0 0 0 0-1 0l-1 1c0 0 0 0 0 0 0 0 0 0 0 0l-1 1c0 0 0 0 0 0 0 0-1 0-1 0l0 0c0 1-1 1-1 1 0 0 0 0 0 0l-1 0c0 0 0 0 0 1 0 0 0 0-1 0l0 0c0 0 0 0-1 0 0 0 0 0 0 1l-1 0c0 0 0 0 0 0 0 0 0 0 0 0l-1 1c0 0-1 0-1 0 0 0 0 0 0 0l0 0c-1 1-1 1-1 1 0 0 0 0-1 0l0 0c0 0 0 0 0 0 0 1-1 1-1 1l-1 0c0 0 0 0 0 0 0 0 0 1 0 1l-1 0c0 0 0 0 0 0-1 0-1 0-1 0l-1 1c0 0 0 0 0 0 0 0 0 0 0 0l-1 1c0 0 0 0 0 0-1 0-1 0-1 0l0 0c0 0-1 1-1 1 0 0 0 0 0 0l-1 0c0 0 0 0 0 0 0 0 0 0 0 1l-2 0c0 0 0 0 0 0 0 0 0 0 0 0l-1 1c0 0 0 0 0 0 0 0-1 0-1 0l0 1c0 0 0 0-1 0 0 0 0 0 0 0l-1 1c0 0 0 0 0 0 0 0 0 0 0 0l-1 0c0 0 0 0-1 0 0 1 0 1 0 1l-1 0c0 0 0 0 0 0 0 0 0 0 0 0l-1 1c0 0-1 0-1 0 0 0 0 0 0 0l0 1c-1 0-1 0-1 0 0 0 0 0-1 0l0 0c0 0 0 0 0 0l0 0c0 0 0 1 0 1-1 0-1 0-1 0 0 0 0 0 0 0 0 0 0 0 0 0-1 1-1 1-1 1 0 0 0 0 0 0 0 0 0 0 0 0-1 0-1 0-1 1 0 0 0 0 0 0 0 0 0 0 0 0 0 0 0 0 0 0-1 0-1 1-1 1 0 0 0 0 0 0 0 0 0 0 0 0-1 0-1 1-1 1 0 0 0 0 0 0 0 0 0 1 0 1 0 0-1 0-1 0 0 0 0 1 0 1 0 0 0 0 0 0 0 1-1 1-1 1 0 0 0 0 0 0 0 0 0 1 0 1 0 0 0 0 0 1 0 0 0 0 0 0 0 0 0 0 0 0 0 1-1 1-1 1 0 0 0 0 0 0 0 0 0 1 0 1 0 0 0 0 0 0 0 1 0 1 0 1 0 0 0 0 0 1 0 0 0 0 0 0 0 0 0 0 0 0l0 0c0 0 0 0 0 0l0 0c0 0 0 0 0 0 0 0 0 0 0 0 0 1 0 1 0 1 0 0 0 0 0 1l0 0c0 0 0 0 0 0 0 1 0 1 0 1l0 1c0 0 0 0 0 0 0 0 0 1 0 1l0 0c0 0 0 1 0 1 0 0 0 0 0 0l0 1c0 0 0 0 0 0 0 0 0 1 0 1l0 1c0 0 0 0 0 0 0 0 0 0 0 1l0 0c0 0 0 1 0 1 0 0 0 0 0 0l0 1c0 0 0 0 0 0 0 0 0 1 0 1l0 1c0 0 0 0 0 0 0 0 0 0 0 1l0 0c0 0 0 1 0 1 0 0 0 0 0 0l0 1c0 0 0 0 0 0 0 0 0 1 0 1l0 1c0 0 0 0 0 0 0 0 0 0 0 0l0 1c0 0 0 0 0 1 0 0 0 0 0 0l0 1c0 0 0 0 0 0 0 0 0 0 0 1l0 1c0 0 0 0 0 0 0 0 0 0 0 0l0 1c0 0 0 0 0 1 0 0 0 0 0 0l0 1c0 0 0 0 0 0 0 0 0 0 0 1l0 1c0 0 0 0 0 0 0 0 0 0 0 0l0 1c0 0 0 0 0 1 0 0 0 0 0 0l0 1c0 0 0 0 0 0 0 0 0 0 0 0l0 2c0 0 0 0 0 0 0 0 0 0 0 0l0 1c0 0 0 0 0 1 0 0 0 0 0 0l0 1c0 0 0 0 0 0 0 0 0 0 0 0l0 2c0 0 0 0 0 0 0 0 0 0 0 0l0 1c0 0 0 0 0 0 0 1 0 1 0 1l0 1c0 0 0 0 0 0 0 0 0 0 0 0l0 2c0 0 0 0 0 0 0 0 0 0 0 0l0 1c0 0 0 0 0 0 0 1 0 1 0 1l0 1c0 0 0 0 0 0 0 0 0 0 0 0l0 2c0 0 0 0 0 0 0 0 0 0 0 0l0 0c0 9 7 16 16 16 8 0 15-7 15-16l0 0c0 0 0 0 0 0 0 0 0 0 0 0l0-2c0 0 0 0 0 0 0 0 0 0 0 0l0-1c0 0 0 0 0-1 0 0 0 0 0 0l0-1c0 0 0 0 0 0 0 0 0 0 0 0l0-2c0 0 0 0 0 0 0 0 0 0 0 0l0-1c0 0 0 0 0-1 0 0 0 0 0 0l0-1c0 0 0 0 0 0 0 0 0 0 0 0l0-2c0 0 0 0 0 0 0 0 0 0 0 0l0-1c0 0 0 0 0-1 0 0 0 0 0 0l0-1c0 0 0 0 0 0 0 0 0 0 0 0l0-2c0 0 0 0 0 0 0 0 0 0 0 0l0-1c0 0 0 0 0 0 0-1 0-1 0-1l0-1c0 0 0 0 0 0 0 0 0 0 0 0l0-2c0 0 0 0 0 0 0 0 0 0 0 0l0-1c0 0 0 0 0 0 0 0 0-1 0-1 0 0 0 0 0 0 1 1 1 1 1 1l1 0c0 0 0 0 0 0 0 0 0 0 0 0l1 1c0 0 0 0 1 0 0 0 0 0 0 0l0 0c1 1 1 1 1 1 0 0 0 0 0 0l1 0c0 0 0 0 0 0 0 0 0 1 1 1l1 0c0 0 0 0 0 0 0 0 0 0 0 0l1 1c0 0 0 0 0 0 0 0 1 0 1 0l0 1c0 0 1 0 1 0 0 0 0 0 0 0l1 0c0 0 0 0 0 1 0 0 0 0 1 0l0 0c0 0 0 0 1 0 0 0 0 0 0 1l1 0c0 0 0 0 0 0 0 0 0 0 0 0l1 1c1 0 1 0 1 0 0 0 0 0 0 0l1 0c0 0 0 0 0 0 0 1 0 1 1 1l0 0c0 0 0 0 0 0 1 0 1 0 1 0l1 1c0 0 0 0 0 0 0 0 0 0 0 0l1 0c2 1 4 2 7 2 5 0 11-3 14-9 4-7 0-17-7-20z m237 75c2 0 5-1 7-2l0 0c1 0 1 0 1 0 0 0 0 0 0 0l1-1c0 0 0 0 0 0 0 0 0 0 1 0l0-1c0 0 1 0 1 0 0 0 0 0 0 0l1-1c0 0 0 0 0 0 0 0 0 0 0 0l1 0c1-1 1-1 1-1 0 0 0 0 0 0l1 0c0 0 0 0 0 0 0-1 0-1 1-1l0 0c0 0 0 0 0 0 1 0 1 0 1 0l1-1c0 0 0 0 0 0 0 0 0 0 0 0l1-1c0 0 0 0 0 0 1 0 1 0 1 0l1 0c0 0 0-1 0-1 0 0 0 0 0 0l1 0c0 0 0 0 1-1 0 0 0 0 0 0l0 0c1 0 1 0 1 0 0 0 0 0 0-1l1 0c0 0 0 0 0 0 0 0 0 0 1 0l1-1c0 0 0 0 0 0 0 0 0 0 0 0l1 0c0-1 0-1 0-1 0 0 1 0 1 0l0 0c0 0 1 0 1 0 0-1 0-1 0-1l1 0c0 0 0 0 0 0 0 0 0 0 1-1l0 0c0 0 0 0 1 0 0 0 0 0 0 0l1-1c0 0 0 0 0 0 0 0 0 0 0 0l1-1c0 0 1 0 1 0 0 0 0 0 0 0l0 0c1 0 1 0 1-1 0 0 0 0 1 0l0 0c0 0 0 0 0 0 0 0 1 0 1 0l1-1c0 0 0 0 0 0 0 0 0 0 0 0l1-1c0 0 0 0 0 0 1 0 1 0 1 0l1-1c0 0 0 0 0 0 0 0 0 0 0 0l1-1c0 0 0 0 0 0 1 0 1 0 1 0l0 0c0 0 1 0 1-1 0 0 0 0 0 0l1 0c7-4 10-14 6-21-4-8-14-10-21-6l-1 0c0 0 0 0 0 0 0 0-1 1-1 1l0 0c0 0-1 0-1 0 0 0 0 0 0 0l-1 1c0 0 0 0 0 0 0 0 0 0-1 0l0 0c0 1 0 1-1 1 0 0 0 0 0 0l-1 0c0 0 0 0 0 1 0 0 0 0 0 0l-1 0c-1 0-1 0-1 0 0 0 0 1 0 1l-1 0c0 0 0 0 0 0 0 0 0 0-1 0l0 1c0 0 0 0 0 0-1 0-1 0-1 0l-1 1c0 0 0 0 0 0 0 0 0 0 0 0l-1 0c0 0 0 1 0 1-1 0-1 0-1 0l-1 0c0 0 0 0 0 0 0 0 0 0 0 1l-1 0c0 0 0 0 0 0-1 0-1 0-1 0l0 1c0 0-1 0-1 0 0 0 0 0 0 0l-1 1c0 0 0 0 0 0 0 0 0 0 0 0l-2 1c0 0 0 0 0 0 0 0 0 0 0 0l-1 0c0 0 0 0 0 0 0 1-1 1-1 1l0 0c0 0-1 0-1 0 0 0 0 0 0 0l-1 1c0 0 0 0 0 0 0 0 0 0-1 0l0 1c0 0 0 0-1 0 0 0 0 0 0 0l-1 1c0 0 0 0 0 0 0 0 0 0 0 0l-1 0c0 0-1 1-1 1 0 0 0 0 0 0l0 0c-1 0-1 0-1 0 0 0 0 1-1 1l0 0c0 0 0 0 0 0 0 0-1 0-1 0l-1 1c0 0 0 0 0 0 0 0 0 0 0 0l-1 0c0 1 0 1 0 1-1 0-1 0-1 0l0 0c-1 0-1 0-1 1 0 0 0 0 0 0l-1 0c0 0 0 0 0 0-1 1-1 1-1 1l0 0c-8 4-10 13-6 21 3 5 8 8 14 8z m-49 251l0 1c0 0-1 0-1 0 0 0 0 0 0 0l-1 0c0 1 0 1 0 1 0 0 0 0-1 0l-1 0c0 0 0 1 0 1 0 0 0 0 0 0l-1 0c0 0 0 0 0 0 0 0-1 1-1 1l0 0c0 0-1 0-1 0 0 0 0 0 0 0l-1 1c0 0 0 0 0 0 0 0 0 0-1 0l0 0c0 1 0 1-1 1 0 0 0 0 0 0l-1 0c0 0 0 0 0 1 0 0 0 0 0 0l-1 0c0 0-1 0-1 0 0 0 0 1 0 1l0 0c-1 0-1 0-1 0 0 0 0 0-1 0l0 1c0 0 0 0 0 0-1 0-1 0-1 0l0 1 0-1c0 0 0 0 0 0 0 0 0 0 0-1l0 0c0 0 0-1 0-1 0 0 0 0 0 0l0-1c0 0 0 0 0 0 0 0 0-1 0-1l0-1c0 0 0 0 0 0 0 0 0 0 0 0l0-1c0 0 0 0 0-1 0 0 0 0 0 0l0-1c0 0 0 0 0 0 0 0 0 0 0-1l0-1c0 0 0 0 0 0 0 0 0 0 0 0l0-1c0 0 0 0 0-1 0 0 0 0 0 0l0-1c0 0 0 0 0 0 0 0 0 0 0-1l0-1c0 0 0 0 0 0 0 0 0 0 0 0l0-1c0 0 0 0 0-1 0 0 0 0 0 0l0-1c0 0 0 0 0 0 0 0 0 0 0 0l0-2c0 0 0 0 0 0 0 0 0 0 0 0l0-1c0 0 0 0 0-1 0 0 0 0 0 0l0 0c0-9-7-16-16-16-9 0-16 7-16 16l0 0c0 0 0 0 0 0 0 1 0 1 0 1l0 1c0 0 0 0 0 0 0 0 0 0 0 0l0 2c0 0 0 0 0 0 0 0 0 0 0 0l0 1c0 0 0 0 0 0 0 1 0 1 0 1l0 1c0 0 0 0 0 0 0 0 0 0 0 0l0 2c0 0 0 0 0 0 0 0 0 0 0 0l0 1c0 0 0 0 0 0 0 1 0 1 0 1l0 1c0 0 0 0 0 0 0 0 0 0 0 0l0 1c0 1 0 1 0 1 0 0 0 0 0 0l0 1c0 0 0 0 0 0 0 1 0 1 0 1l0 1c0 0 0 0 0 0 0 0 0 0 0 0l0 1c0 1 0 1 0 1 0 0 0 0 0 0l0 1c0 0 0 0 0 0 0 0 0 1 0 1l0 0c0 1 0 1 0 1 0 0 0 0 0 0l0 1c0 0 0 0 0 1 0-1 0-1 0-1l0 0c0 0 0 0 0 0l-1 0c0 0 0 0 0 0 0 0 0 0 0 0l-1-1c-1 0-1 0-1 0 0 0 0 0 0 0l-1-1c0 0 0 0 0 0 0 0 0 0 0 0 0 0 0 0 0 0l-1 0 0 0c0 0 0 0 0 0l0 0c0 0 0 0 0 0 0 0 0 0-1 0 0-1 0-1 0-1l-1 0c0 0 0 0 0 0 0 0 0 0 0 0l-1-1 0 0c0 0 0 0 0 0l0 0c0 0 0 0 0 0 0 0 0 0 0 0 0 0 0 0-1 0l0 0c0 0 0 0 0 0l-1-1c0 0 0 0 0 0 0 0 0 0 0 0l-1 0c0 0 0-1-1-1 0 0 0 0 0 0l0 0c-1 0-1 0-1 0 0 0 0 0 0 0l0-1c0 0-1 0-1 0l0 0c0 0 0 0 0 0 0 0-1 0-1 0l-1-1c0 0 0 0 0 0 0 0 0 0 0 0l-1 0c0 0 0 0 0 0 0 0 0 0 0-1l-1 0c-1 0-1 0-1 0 0 0 0 0 0 0 0 0 0 0 0 0l-1-1c0 0 0 0 0 0-1 0-1 0-1 0l0 0c-8-4-17-1-21 6-1 3-2 5-2 8 0 5 3 11 9 13l0 1c0 0 0 0 0 0 1 0 1 0 1 0l0 0c0 0 0 0 0 0l1 0c0 0 0 0 0 1 0 0 0 0 0 0l1 0c1 0 1 0 1 0 0 0 0 0 0 0 0 0 0 0 0 1l1 0c0 0 0 0 0 0 0 0 0 0 0 0l1 0c0 0 0 0 0 0l0 1 0 0c0 0 0 0 0 0l0 0c0 0 0 0 0 0 1 0 1 0 1 0l1 0c0 1 0 1 0 1 0 0 0 0 0 0l1 0c0 0 0 0 0 0 0 0 0 0 0 0 0 0 0 0 1 0l0 1c0 0 0 0 0 0l1 0c0 0 0 0 0 0 0 0 0 0 0 0l1 1c0 0 0 0 1 0 0 0 0 0 0 0l0 0c0 0 1 0 1 0 0 0 0 1 0 1l0 0c0 0 0 0 1 0l0 0c0 0 0 0 0 0 0 0 0 0 1 0l1 1c0 0 0 0 0 0 0 0 0 0 0 0l1 1c0 0 0 0 0 0 0 0 0 0 0 0l1 0c0 0 0 0 0 0l0 0c1 0 1 0 1 1 0 0 0 0 0 0l1 0c0 0 0 0 0 0 0 0 1 0 1 0l0 1c0 0 0 0 0 0 0 0 0 0 0 0 1 0 1 0 1 0l0 0c0 0 0 0 0 0l1 1c0 0 0 0 0 0 0 0 0 0 0 0l1 0c1 0 1 1 1 1 0 0 0 0 0 0l1 0c0 0 0 0 0 0 0 0 0 0 0 0 0 0 0 0 0 0l1 1 0 0c0 0 0 0 0 0l0 0c0 0 0 0 0 0 0 0 0 0 1 0 0 0 0 0 0 0l1 1c0 0 0 0 0 0 0 0 0 0 0 0l1 0c0 0 0 0 0 0 0 0 0 0 1 1l0 0c0 0 0 0 0 0l1 0c0 0 0 0 0 0 0 0 0 0 0 0l1 1c0 0 0 0 1 0 0 0 0 0 0 0l0 0c0 1 1 1 1 1 0 0 0 0 0 0l0 0c0 0 0 0 1 0l0 0 0 0c0 0 0 0 0 0l0 0c0 0 0 0 0 0 0 0 0 1 1 1l1 0c0 0 0 0 0 0 0 0 0 0 0 0l1 1c0 0 0 0 0 0 0 0 0 0 0 0l1 0 0 1c1 0 1 0 1 0 0 0 0 0 0 0l1 0c0 0 0 0 0 1 0 0 0 0 0 0 1 0 1 0 1 0 0 0 0 0 0 0l0 0c0 0 0 0 0 0 1 0 1 0 1 0 0 1 1 1 1 1 0 0 0 0 0 0 0 0 1 0 1 0 0 0 0 0 1 0 0 0 0 0 1 0 0 0 0 0 0 0 1 0 1 1 2 1 0 0 0 0 0 0 0 0 0 0 0 0 1 0 1-1 2-1 0 0 0 0 0 0 0 0 0 0 0 0 1 0 1 0 2 0 0 0 0 0 0 0 0 0 0 0 0 0 1 0 1 0 1 0 1-1 1-1 1-1 0 0 1 0 2 0 0 0 0 0 0 0l0-1c0 0 0 0 0 0 0 0 0 0 0 0 0 0 0 0 0 0 0 0 0 0 0 0l1-1c1 0 1 0 1 0 0 0 0 0 0 0l1 0c0 0 0 0 0 0 0-1 0-1 1-1l0 0c0 0 0 0 1 0 0 0 0 0 0 0l1-1c0 0 0 0 0 0 0 0 0 0 0 0l1-1c0 0 0 0 1 0 0 0 0 0 0 0l1 0c0 0 0-1 0-1 0 0 0 0 0 0l1 0c0 0 0 0 1 0 0-1 0-1 0-1l0 0c1 0 1 0 1 0 0 0 0 0 0-1l1 0c0 0 0 0 0 0 0 0 0 0 1 0l1-1c0 0 0 0 0 0 0 0 0 0 0 0l1 0c0 0 0-1 0-1 0 0 1 0 1 0l0 0c0 0 1 0 1 0 0 0 0-1 0-1l1 0c0 0 0 0 0 0 0 0 0 0 1-1l0 0c0 0 0 0 1 0 0 0 0 0 0 0l1-1c0 0 0 0 0 0 0 0 0 0 0 0l1-1c1 0 1 0 1 0 0 0 0 0 0 0l1 0c0 0 0 0 0-1 0 0 0 0 1 0l0 0c0 0 0 0 0 0 1 0 1 0 1 0l1-1c0 0 0 0 0 0 0 0 0 0 0 0l1-1c0 0 0 0 0 0 1 0 1 0 1 0l1-1c0 0 0 0 0 0 0 0 0 0 0 0l1-1c0 0 0 0 0 0 1 0 1 0 1 0l0 0c0 0 1 0 1 0 0-1 0-1 0-1l1 0c0 0 0 0 0 0 0 0 0 0 0 0l2-1c0 0 0 0 0 0 0 0 0 0 0 0l1-1c0 0 0 0 0 0 0 0 1 0 1 0l0 0c8-4 10-14 6-21-4-8-13-11-21-7z m188-70c0 0 0 0 0 0 0-1 1-1 1-1 0 0 0 0 0-1 0 0 0 0 0 0 0-1 1-1 1-1 0 0 0 0 0-1 0 0 0 0 0-1 0 0 0 0 0 0 0 0 0-1 1-1 0 0 0 0 0-1 0 0 0 0 0 0 0-1 0-1 0-2 0 0 0 0 0 0l0 0c0 0 0 0 0 0l0 0c0 0 0 0 0-1 0 0 0 0 0 0l0-1c0 0 0 0 0 0 0-1 0-1 0-1l0 0c0-1 0-1 0-1 0 0 0 0 0-1l0 0c0 0 0 0 0-1 0 0 0 0 0 0l0-1c0 0 0 0 0 0 0 0 0-1 0-1l0 0c0-1 0-1 0-1 0 0 0 0 0-1l0 0c0 0 0 0 0 0 0-1 0-1 0-1l0-1c0 0 0 0 0 0 0 0 0-1 0-1l0 0c0 0 0-1 0-1 0 0 0 0 0-1l0 0c0 0 0 0 0 0 0-1 0-1 0-1l0-1c0 0 0 0 0 0 0 0 0 0 0-1l0 0c0 0 0-1 0-1 0 0 0 0 0 0l0-1c0 0 0 0 0 0 0 0 0-1 0-1l0-1c0 0 0 0 0 0 0 0 0 0 0-1l0 0c0 0 0-1 0-1 0 0 0 0 0 0l0-1c0 0 0 0 0 0 0 0 0-1 0-1l0-1c0 0 0 0 0 0 0 0 0 0 0 0l0-1c0 0 0-1 0-1 0 0 0 0 0 0l0-1c0 0 0 0 0 0 0 0 0 0 0-1l0-1c0 0 0 0 0 0 0 0 0 0 0 0l0-1c0 0 0 0 0-1 0 0 0 0 0 0l0-1c0 0 0 0 0 0 0 0 0 0 0-1l0-1c0 0 0 0 0 0 0 0 0 0 0 0l0-1c0 0 0 0 0-1 0 0 0 0 0 0l0-1c0 0 0 0 0 0 0 0 0 0 0 0l0-2c0 0 0 0 0 0 0 0 0 0 0 0l0-1c0 0 0 0 0-1 0 0 0 0 0 0l0-1c0 0 0 0 0 0 0 0 0 0 0 0l0-2c0 0 0 0 0 0 0 0 0 0 0 0l0-1c0 0 0 0 0 0 0-1 0-1 0-1l0 0c0-9-7-16-16-16-8 0-15 7-15 16l0 0c0 0 0 0 0 1 0 0 0 0 0 0l0 1c0 0 0 0 0 0 0 0 0 0 0 0l0 2c0 0 0 0 0 0 0 0 0 0 0 0l0 1c0 0 0 0 0 0 0 1 0 1 0 1l0 1c0 0 0 0 0 0 0 0 0 0 0 0l0 2c0 0 0 0 0 0 0 0 0 0 0 0l0 1c0 0 0 0 0 0 0 1 0 1 0 1l0 1c0 0 0 0 0 0 0 0 0 0 0 0l0 2c0 0 0 0 0 0 0 0 0 0 0 0l0 1c0 0 0 0 0 0 0 1 0 1 0 1l0 1c0 0 0 0 0 0 0 0 0 0 0 0l0 1c0 1 0 1 0 1 0 0 0 0 0 0l0 1c0 0 0 0 0 0 0 1 0 1 0 1l0 1c0 0 0 0 0 0 0 0 0 0 0 0l0 1c0 1 0 1 0 1 0 0 0 0 0 0l0 1c0 0 0 0 0 0 0 0 0 1 0 1l0 1c0 0 0 0 0 0 0 0 0 0 0 0l0 1c0 0 0 1 0 1 0 0 0 0 0 0l0 1c0 0 0 0 0 0 0 0 0 1 0 1l0 0c0 1 0 1 0 1 0 0 0 0 0 0l0 1c0 0 0 1 0 1 0 0 0 0 0 0l0 1c0 0 0 0 0 0 0 0 0 1 0 1l0 0c0 1 0 1 0 1 0 0 0 0 0 0l0 1c0 0 0 0 0 1 0 0 0 0 0 0l0 0c0 1 0 1 0 1 0 0 0 0-1 0 0 0 0 0 0 0l0 0c-1 1-1 1-1 1 0 0 0 0 0 0l-1 0c0 0 0 0 0 1 0 0 0 0-1 0l-1 0c0 0 0 0 0 0 0 0 0 1 0 1l-1 0c0 0 0 0 0 0 0 0-1 0-1 1l0 0c0 0-1 0-1 0 0 0 0 0 0 0l-1 1c0 0 0 0 0 0 0 0 0 0-1 0l0 0c0 0-1 1-1 1 0 0 0 0 0 0l-1 0c0 0 0 0 0 0 0 0 0 1 0 1l-1 0c-1 0-1 0-1 0 0 0 0 0 0 0l0 1c-1 0-1 0-1 0 0 0 0 0-1 0l0 1c0 0 0 0 0 0-1 0-1 0-1 0l-1 1c0 0 0 0 0 0 0 0 0 0 0 0l-1 0c0 0 0 0 0 1-1 0-1 0-1 0l-1 0c0 0 0 0 0 0 0 0 0 0 0 0l-1 1c0 0 0 0 0 0-1 0-1 0-1 0l0 1c0 0-1 0-1 0 0 0 0 0 0 0l-1 1c0 0 0 0 0 0 0 0 0 0 0 0l-2 0c0 1 0 1 0 1 0 0 0 0 0 0l-1 0c0 0 0 0 0 0 0 0-1 1-1 1l0 0c0 0-1 0-1 0 0 0 0 0 0 0l-1 1c0 0 0 0 0 0 0 0 0 0 0 0l-1 0c-7 4-10 14-6 21 3 6 8 9 14 9 2 0 5-1 7-2l1-1c0 0 0 0 0 0 0 0 0 0 0 0l1 0c0-1 0-1 1-1 0 0 0 0 0 0l0 0c1 0 1 0 1 0 0 0 0-1 0-1l1 0c0 0 0 0 0 0 0 0 0 0 1 0l1-1c0 0 0 0 0 0 0 0 0 0 0 0l1-1c0 0 0 0 0 0 0 0 1 0 1 0l0 0c0 0 1-1 1-1 0 0 0 0 0 0l1 0c0 0 0 0 0 0 0-1 0-1 1-1l0 0c0 0 0 0 1 0 0 0 0 0 0-1l1 0c0 0 0 0 0 0 0 0 0 0 0 0l1-1c0 0 1 0 1 0 0 0 0 0 0 0l1 0c0 0 0-1 0-1 0 0 0 0 1 0l0 0c0 0 0 0 0 0 1-1 1-1 1-1l1 0c0 0 0 0 0 0 0 0 0 0 0 0l1-1c0 0 0 0 0 0 1 0 1 0 1 0l1-1c0 0 0 0 0 0 0 0 0 0 0 0l1-1c0 0 0 0 0 0 1 0 1 0 1 0l0 0c0 0 1 0 1-1 0 0 0 0 0 0l1 0c0 0 0 0 0 0 0 0 0 0 0 0l2-1c0 0 0 0 0 0 0 0 0 0 0 0l1-1c0 0 0 0 0 0 0 0 1 0 1 0l0-1c0 0 0 0 1 0 0 0 0 0 0 0l1 0c0-1 0-1 0-1 0 0 0 0 0 0l1 0c0 0 0 0 1 0 0-1 0-1 0-1l1 0c0 0 0 0 0 0 0 0 0 0 0 0l1-1c0 0 0 0 1 0 0 0 0 0 0 0l0-1c1 0 1 0 1 0 0 0 0 0 0 0l1 0c0 0 0 0 0 0l0 0c0 0 0 0 0 0 0-1 1-1 1-1 0 0 0 0 1 0 0-1 0-1 0-1 0 0 1 0 1-1 0 0 0 0 0 0 1 0 1 0 1-1 0 0 0 0 0 0 1 0 1-1 1-1z m-107 24l-1 0c0 0 0 0 0 0 0 0-1 1-1 1l0 0c0 0-1 0-1 0 0 0 0 0 0 0l-1 1c0 0 0 0 0 0 0 0 0 0-1 0l0 0c0 1 0 1-1 1 0 0 0 0 0 0l-1 0c0 0 0 1 0 1 0 0 0 0 0 0l-1 0c-1 0-1 0-1 0 0 1 0 1 0 1l-1 0c0 0 0 0 0 0 0 0 0 0-1 1l0 0c0 0 0 0 0 0-1 0-1 0-1 0l-1 1c0 0 0 0 0 0 0 0 0 0 0 0l-1 0c0 0 0 1 0 1-1 0-1 0-1 0l-1 0c0 0 0 0 0 0 0 0 0 1 0 1l-1 0c0 0 0 0 0 0-1 0-1 0-1 1l0 0c0 0-1 0-1 0 0 0 0 0 0 0l-1 1c0 0 0 0 0 0 0 0 0 0-1 0l-1 1c0 0 0 0 0 0 0 0 0 0 0 0l-1 0c0 0 0 0 0 1 0 0-1 0-1 0l0 0c0 0-1 0-1 0 0 0 0 0 0 0l-1 1c0 0 0 0 0 0 0 0 0 0-1 0l0 1c0 0 0 0-1 0 0 0 0 0 0 0l-1 1c0 0 0 0 0 0 0 0 0 0 0 0l-1 0c0 1-1 1-1 1 0 0 0 0 0 0l0 0c-1 0-1 0-1 0 0 1 0 1-1 1l0 0c0 0 0 0 0 0 0 0-1 0-1 0l-1 1c0 0 0 0 0 0 0 0 0 0 0 0l-1 1c0 0 0 0 0 0-1 0-1 0-1 0l0 0c-1 0-1 1-1 1 0 0 0 0 0 0l-1 0c0 0 0 0 0 1 0 0-1 0-1 0l0 0c-7 4-10 13-6 21 3 5 8 8 14 8 2 0 5-1 7-2l0 0c0 0 1 0 1 0 0 0 0 0 0 0l1-1c0 0 0 0 0 0 0 0 1 0 1 0l0-1c0 0 1 0 1 0 0 0 0 0 0 0l1-1c0 0 0 0 0 0 0 0 0 0 0 0l1 0c1 0 1-1 1-1 0 0 0 0 0 0l1 0c0 0 0 0 0 0 0 0 0-1 1-1l0 0c0 0 0 0 0 0 1 0 1 0 1 0l1-1c0 0 0 0 0 0 0 0 0 0 0 0l1 0c0-1 0-1 0-1 1 0 1 0 1 0l1 0c0 0 0 0 0-1 0 0 0 0 0 0l1 0c0 0 0 0 1 0 0-1 0-1 0-1l0 0c0 0 1 0 1 0 0 0 0 0 0-1l1 0c0 0 0 0 0 0 0 0 0 0 1 0l1-1c0 0 0 0 0 0 0 0 0 0 0 0l1 0c0 0 0-1 0-1 0 0 1 0 1 0l0 0c0 0 1 0 1 0 0 0 0 0 0-1l1 0c0 0 0 0 0 0 0 0 0 0 1 0l0-1c0 0 0 0 1 0 0 0 0 0 0 0l1-1c0 0 0 0 0 0 0 0 0 0 0 0l1-1c0 0 1 0 1 0 0 0 0 0 0 0l0 0c1 0 1 0 1-1 0 0 0 0 1 0l0 0c0 0 0 0 0 0 1 0 1 0 1 0l1-1c0 0 0 0 0 0 0 0 0 0 0 0l1-1c0 0 0 0 0 0 1 0 1 0 1 0l1-1c0 0 0 0 0 0 0 0 0 0 0 0l1 0c0-1 0-1 0-1 1 0 1 0 1 0l0 0c0 0 1 0 1 0 0-1 0-1 0-1l1 0c7-4 10-13 6-21-4-8-14-10-21-6z m110-183c0-9-7-16-16-16-8 0-15 7-15 16l0 0c0 0 0 1 0 1 0 0 0 0 0 1l0 0c0 0 0 0 0 0 0 1 0 1 0 1l0 1c0 0 0 0 0 0 0 0 0 1 0 1l0 0c0 0 0 1 0 1 0 0 0 0 0 0l0 1c0 0 0 0 0 0 0 0 0 1 0 1l0 1c0 0 0 0 0 0 0 0 0 0 0 1l0 0c0 0 0 1 0 1 0 0 0 0 0 0l0 1c0 0 0 0 0 0 0 0 0 1 0 1l0 1c0 0 0 0 0 0 0 0 0 0 0 0l0 1c0 0 0 1 0 1 0 0 0 0 0 0l0 1c0 0 0 0 0 0 0 0 0 0 0 1l0 1c0 0 0 0 0 0 0 0 0 0 0 0l0 1c0 0 0 0 0 1 0 0 0 0 0 0l0 1c0 0 0 0 0 0 0 0 0 0 0 1l0 1c0 0 0 0 0 0 0 0 0 0 0 0l0 1c0 0 0 0 0 1 0 0 0 0 0 0l0 1c0 0 0 0 0 0 0 0 0 0 0 0l0 2c0 0 0 0 0 0 0 0 0 0 0 0l0 1c0 0 0 0 0 1 0 0 0 0 0 0l0 1c0 0 0 0 0 0 0 0 0 0 0 0l0 2c0 0 0 0 0 0 0 0 0 0 0 0l0 1c0 0 0 0 0 1 0 0 0 0 0 0l0 1c0 0 0 0 0 0 0 0 0 0 0 0l0 2c0 0 0 0 0 0 0 0 0 0 0 0l0 1c0 0 0 0 0 0 0 1 0 1 0 1l0 1c0 0 0 0 0 0 0 0 0 0 0 0l0 2c0 0 0 0 0 0 0 0 0 0 0 0l0 1c0 0 0 0 0 0 0 1 0 1 0 1l0 1c0 0 0 0 0 0 0 0 0 0 0 0l0 1c0 1 0 1 0 1 0 0 0 0 0 0l0 0c0 9 7 16 15 16 9 0 16-7 16-16l0 0c0 0 0 0 0 0 0 0 0 0 0-1l0-1c0 0 0 0 0 0 0 0 0 0 0 0l0-1c0 0 0 0 0-1 0 0 0 0 0 0l0-1c0 0 0 0 0 0 0 0 0 0 0 0l0-2c0 0 0 0 0 0 0 0 0 0 0 0l0-1c0 0 0 0 0-1 0 0 0 0 0 0l0-1c0 0 0 0 0 0 0 0 0 0 0 0l0-2c0 0 0 0 0 0 0 0 0 0 0 0l0-1c0 0 0 0 0-1 0 0 0 0 0 0l0-1c0 0 0 0 0 0 0 0 0 0 0 0l0-2c0 0 0 0 0 0 0 0 0 0 0 0l0-1c0 0 0 0 0 0 0-1 0-1 0-1l0-1c0 0 0 0 0 0 0 0 0 0 0 0l0-2c0 0 0 0 0 0 0 0 0 0 0 0l0-1c0 0 0 0 0 0 0-1 0-1 0-1l0-1c0 0 0 0 0 0 0 0 0 0 0 0l0-2c0 0 0 0 0 0 0 0 0 0 0 0l0-1c0 0 0 0 0 0 0-1 0-1 0-1l0-1c0 0 0 0 0 0 0 0 0 0 0 0l0-1c0-1 0-1 0-1 0 0 0 0 0 0l0-1c0 0 0 0 0 0 0-1 0-1 0-1l0-1c0 0 0 0 0 0 0 0 0 0 0 0l0-1c0 0 0-1 0-1 0 0 0 0 0 0l0-1c0 0 0 0 0 0 0 0 0-1 0-1l0 0c0-1 0-1 0-1 0 0 0 0 0 0l0-1c0 0 0-1 0-1 0 0 0 0 0 0l0-1c0 0 0 0 0 0 0 0 0-1 0-1l0 0c0-1 0-1 0-1 0 0 0 0 0 0l0-1c0 0 0 0 0-1 0 0 0 0 0 0l0-1c0 0 0 0 0 0 0 0 0-1 0-1z m-446 49c0 9 7 16 16 16 8 0 15-7 15-16l0 0c0 0 0 0 0 0 0 0 0 0 0-1l0-1c0 0 0 0 0 0 0 0 0 0 0 0l0-1c0 0 0 0 0-1 0 0 0 0 0 0l0-1c0 0 0 0 0 0 0 0 0 0 0-1l0-1c0 0 0 0 0 0 0 0 0 0 0 0l0-1c0 0 0 0 0-1 0 0 0 0 0 0l0-1c0 0 0 0 0 0 0 0 0 0 0 0l0-2c0 0 0 0 0 0 0 0 0 0 0 0l0-1c0 0 0 0 0-1 0 0 0 0 0 0l0-1c0 0 0 0 0 0 0 0 0 0 0 0l0-2c0 0 0 0 0 0 0 0 0 0 0 0l0-1c0 0 0 0 0 0 0-1 0-1 0-1l0-1c0 0 0 0 0 0 0 0 0 0 0 0l0-2c0 0 0 0 0 0 0 0 0 0 0 0l0-1c0 0 0 0 0 0 0-1 0-1 0-1l0-1c0 0 0 0 0 0 0 0 0 0 0 0l0-2c0 0 0 0 0 0 0 0 0 0 0 0l0-1c0 0 0 0 0 0 0-1 0-1 0-1l0-1c0 0 0 0 0 0 0 0 0 0 0 0l0-1c0-1 0-1 0-1 0 0 0 0 0 0l0-1c0 0 0 0 0 0 0-1 0-1 0-1l0-1c0 0 0 0 0 0 0 0 0 0 0 0l0-1c0 0 0-1 0-1 0 0 0 0 0 0l0-1c0 0 0 0 0 0 0 0 0-1 0-1l0 0c0-1 0-1 0-1 0 0 0 0 0 0l0-1c0 0 0-1 0-1 0 0 0 0 0 0l0-1c0 0 0 0 0 0 0 0 0-1 0-1l0 0c0-1 0-1 0-1 0 0 0 0 0 0l0-1c0 0 0 0 0-1 0 0 0 0 0 0l0-1c0 0 0 0 0 0 0 0 0-1 0-1l0 0c0-9-7-16-15-16-9 0-16 7-16 16l0 0c0 0 0 1 0 1 0 0 0 0 0 0l0 1c0 0 0 0 0 0 0 1 0 1 0 1l0 1c0 0 0 0 0 0 0 0 0 0 0 1l0 0c0 0 0 1 0 1 0 0 0 0 0 0l0 1c0 0 0 0 0 0 0 0 0 1 0 1l0 1c0 0 0 0 0 0 0 0 0 0 0 1l0 0c0 0 0 1 0 1 0 0 0 0 0 0l0 1c0 0 0 0 0 0 0 0 0 1 0 1l0 1c0 0 0 0 0 0 0 0 0 0 0 0l0 1c0 0 0 1 0 1 0 0 0 0 0 0l0 1c0 0 0 0 0 0 0 0 0 0 0 1l0 1c0 0 0 0 0 0 0 0 0 0 0 0l0 1c0 0 0 0 0 1 0 0 0 0 0 0l0 1c0 0 0 0 0 0 0 0 0 0 0 0l0 2c0 0 0 0 0 0 0 0 0 0 0 0l0 1c0 0 0 0 0 1 0 0 0 0 0 0l0 1c0 0 0 0 0 0 0 0 0 0 0 0l0 2c0 0 0 0 0 0 0 0 0 0 0 0l0 1c0 0 0 0 0 1 0 0 0 0 0 0l0 1c0 0 0 0 0 0 0 0 0 0 0 0l0 2c0 0 0 0 0 0 0 0 0 0 0 0l0 1c0 0 0 0 0 0 0 1 0 1 0 1l0 1c0 0 0 0 0 0 0 0 0 0 0 0l0 2c0 0 0 0 0 0 0 0 0 0 0 0l0 1c0 0 0 0 0 0 0 1 0 1 0 1l0 1c0 0 0 0 0 0 0 0 0 0 0 0l0 2c0 0 0 0 0 0 0 0 0 0 0 0l0 1c0 0 0 0 0 0 0 1 0 1 0 1l0 1c0 0 0 0 0 0 0 0 0 0 0 0l0 1c0 1 0 1 0 1 0 0 0 0 0 0z m145 156l0 0c0 0 0 0 0 0 0 0-1-1-1-1l-1 0c0 0 0 0 0 0 0 0 0 0 0 0l-1-1c0 0 0 0 0 0 0 0-1 0-1 0l0-1c0 0 0 0-1 0 0 0 0 0 0 0l-1 0c0 0 0 0 0-1 0 0 0 0 0 0l-1 0c0 0 0 0 0 0-1 0-1 0-1-1l0 0c-1 0-1 0-1 0 0 0 0 0 0 0l-1-1c0 0 0 0 0 0 0 0 0 0-1 0l0 0c0 0 0 0-1 0 0-1 0-1 0-1l-1 0c0 0 0 0 0 0 0 0 0 0 0 0l-1-1c0 0 0 0 0 0-1 0-1 0-1 0l0 0c0-1-1-1-1-1 0 0 0 0 0 0l-1 0c0 0 0 0 0 0 0 0 0-1 0-1l-1 0c0 0 0 0-1 0 0 0 0 0 0 0l0-1c-1 0-1 0-1 0 0 0 0 0 0 0l-1-1c0 0 0 0 0 0 0 0 0 0 0 0l-1 0c-1 0-1 0-1-1 0 0 0 0 0 0l-1 0c0 0 0 0 0 0 0 0 0 0-1-1l0 0c0 0 0 0 0 0 0 0-1 0-1 0l-1-1c0 0 0 0 0 0 0 0 0 0 0 0l-1 0c0 0 0 0 0 0 0-1-1-1-1-1l0 0c0 0 0 0-1 0 0 0 0 0 0 0l-1-1c0 0 0 0 0 0 0 0 0 0 0 0l-1 0c0-1 0-1 0-1-1 0-1 0-1 0l0 0c0 0-1 0-1 0 0 0 0-1 0-1l-1 0c0 0 0 0 0 0 0 0 0 0 0 0l-1-1c0 0 0 0-1 0 0 0 0 0 0 0l0 0c-8-4-17-2-21 6-5 7-2 17 6 21l0 0c0 0 0 0 1 0 0 0 0 1 0 1l1 0c0 0 0 0 0 0 0 0 0 0 0 0l1 1c0 0 0 0 0 0 1 0 1 0 1 0l0 0c0 0 1 1 1 1 0 0 0 0 0 0l1 0c0 0 0 0 0 0 0 0 0 0 0 1l1 0c0 0 1 0 1 0 0 0 0 0 0 0l0 1c1 0 1 0 1 0 0 0 0 0 0 0l1 0c0 1 0 1 0 1 0 0 0 0 1 0l1 0c0 0 0 0 0 0 0 1 0 1 0 1l1 0c0 0 0 0 0 0 0 0 0 0 1 0l0 1c0 0 0 0 0 0 0 0 1 0 1 0l1 1c0 0 0 0 0 0 0 0 0 0 0 0l1 0c0 0 0 0 0 0 0 1 1 1 1 1l0 0c0 0 0 0 1 0 0 0 0 0 0 0l1 1c0 0 0 0 0 0 0 0 0 0 0 0l1 0c0 0 0 1 0 1 1 0 1 0 1 0l0 0c1 0 1 0 1 0 0 0 0 0 0 1l1 0c0 0 0 0 0 0 0 0 0 0 1 0l0 1c0 0 0 0 1 0 0 0 0 0 0 0l1 0c0 1 0 1 0 1 0 0 0 0 0 0l1 0c0 0 0 0 0 0 1 1 1 1 1 1l0 0c0 0 1 0 1 0 0 0 0 0 0 0l1 1c0 0 0 0 0 0 0 0 0 0 0 0l1 1c0 0 1 0 1 0 0 0 0 0 0 0l0 0c1 0 1 0 1 0 0 0 0 1 0 1l1 0c0 0 0 0 0 0 0 0 0 0 0 0l2 1c0 0 0 0 0 0 0 0 0 0 0 0l0 0c3 2 5 2 8 2 5 0 11-3 13-8 5-8 2-17-6-21z m-78-46l0-1c-1 0-1 0-1 0 0 0 0 0 0 0l-1 0c0 0 0 0 0 0 0-1-1-1-1-1l0 0c0 0-1 0-1 0 0 0 0 0 0 0l-1-1c0 0 0 0 0 0 0 0 0 0 0 0l-1-1c-1 0-1 0-1 0 0 0 0 0 0 0l-1 0c0 0 0 0 0 0 0-1 0-1-1-1l0 0c0 0 0 0-1 0 0 0 0 0 0 0l-1-1c0 0 0 0 0 0 0 0 0 0 0 0l-1 0c0-1 0-1-1-1 0 0 0 0 0 0l-1 0c0 0 0 0 0 0 0 0 0 0 0-1l-1 0c0 0 0 0-1 0 0 0 0 0 0 0l0-1c-1 0-1 0-1 0 0 0 0 0 0 0l-1-1c0 0 0 0 0 0 0 0-1 0-1 0l-1 0c0 0 0 0 0 0 0-1 0-1 0-1l-1 0c0 0 0 0 0 0-1 0-1 0-1 0l0-1c-1 0-1 0-1 0 0 0 0 0 0 0l-1-1c0 0 0 0 0 0 0 0-1 0-1 0l0 0c0 0-1 0-1 0 0-1 0-1 0-1l-1 0c0 0 0 0 0 0 0 0 0 0 0 0l-1-1c-1 0-1 0-1 0 0 0 0 0 0 0l-1 0c0 0 0-1 0-1 0 0 0 0-1 0l0 0c0 0 0 0 0 0-1 0-1 0-1-1l-1 0c0 0 0 0 0 0 0 0 0 0 0 0l-1-1c0 0 0 0-1 0 0 0 0 0 0 0l-1-1c0 0 0 0 0 0l0 0c0 0 0 0 0 0 0-1 0-1 0-1l0-1c0 0 0 0 0 0 0 0 0-1 0-1l0 0c0 0 0-1 0-1 0 0 0 0 0 0l0-1c0 0 0 0 0 0 0-1 0-1 0-1l0-1c0 0 0 0 0 0 0 0 0 0 0-1l0 0c0 0 0-1 0-1 0 0 0 0 0 0l0-1c0 0 0 0 0 0 0 0 0-1 0-1l0-1c0 0 0 0 0 0 0 0 0 0 0-1l0 0c0 0 0-1 0-1 0 0 0 0 0 0l0-1c0 0 0 0 0 0 0 0 0-1 0-1l0-1c0 0 0 0 0 0 0 0 0 0 0 0l0-1c0 0 0-1 0-1 0 0 0 0 0 0l0-1c0 0 0 0 0 0 0 0 0 0 0-1l0-1c0 0 0 0 0 0 0 0 0 0 0 0l0-1c0 0 0 0 0-1 0 0 0 0 0 0l0-1c0 0 0 0 0 0 0 0 0 0 0-1l0-1c0 0 0 0 0 0 0 0 0 0 0 0l0-1c0 0 0 0 0-1 0 0 0 0 0 0l0-1c0 0 0 0 0 0 0 0 0 0 0 0l0-2c0 0 0 0 0 0 0 0 0 0 0 0l0-1c0 0 0 0 0-1 0 0 0 0 0 0l0-1c0 0 0 0 0 0 0 0 0 0 0 0l0-2c0 0 0 0 0 0 0 0 0 0 0 0l0-1c0 0 0 0 0 0 0-1 0-1 0-1l0 0c0-9-7-16-15-16-9 0-16 7-16 16l0 0c0 0 0 0 0 1 0 0 0 0 0 0l0 1c0 0 0 0 0 0 0 0 0 0 0 0l0 2c0 0 0 0 0 0 0 0 0 0 0 0l0 1c0 0 0 0 0 0 0 1 0 1 0 1l0 1c0 0 0 0 0 0 0 0 0 0 0 0l0 2c0 0 0 0 0 0 0 0 0 0 0 0l0 1c0 0 0 0 0 0 0 1 0 1 0 1l0 1c0 0 0 0 0 0 0 0 0 0 0 0l0 2c0 0 0 0 0 0 0 0 0 0 0 0l0 1c0 0 0 0 0 0 0 1 0 1 0 1l0 1c0 0 0 0 0 0 0 0 0 0 0 0l0 1c0 1 0 1 0 1 0 0 0 0 0 0l0 1c0 0 0 0 0 0 0 1 0 1 0 1l0 1c0 0 0 0 0 0 0 0 0 0 0 0l0 1c0 1 0 1 0 1 0 0 0 0 0 0l0 1c0 0 0 0 0 0 0 0 0 1 0 1l0 1c0 0 0 0 0 0 0 0 0 0 0 0l0 1c0 0 0 1 0 1 0 0 0 0 0 0l0 1c0 0 0 0 0 0 0 0 0 1 0 1l0 0c0 1 0 1 0 1 0 0 0 0 0 0l0 1c0 0 0 1 0 1 0 0 0 0 0 0l0 1c0 0 0 0 0 0 0 0 0 1 0 1l0 0c0 1 0 1 0 1 0 0 0 0 0 0l0 1c0 0 0 0 0 1 0 0 0 0 0 0l0 0c0 1 0 1 0 1 0 0 0 1 0 1l0 0c0 0 0 1 0 1 0 0 0 0 0 0l0 1c0 0 0 0 0 1 0 0 0 0 0 0l0 0c0 1 0 1 0 1 0 0 0 0 0 1l0 0c0 0 0 0 0 1 0 0 0 0 0 0l0 1c0 0 0 0 0 0 0 1 0 1 0 1l0 0c0 0 0 0 0 0 0 1 0 1 0 1 0 0 0 1 0 1 0 0 0 0 0 1 0 0 0 0 1 0 0 1 0 1 0 1 0 0 0 1 0 1 0 0 0 0 0 0 0 1 0 1 0 1 1 0 1 1 1 1 0 0 0 0 0 1 0 0 0 0 1 0 0 0 0 1 0 1 0 0 0 0 0 1 1 0 1 0 1 0 0 0 0 1 0 1 1 0 1 0 1 0 0 0 0 1 0 1 1 0 1 0 1 0 0 0 0 0 1 1 0 0 0 0 0 0 0 0 1 0 1 0 0 1 0 1 1 1 0 0 0 0 0 0l0 0c0 0 0 0 0 0 0 0 0 0 0 0 1 0 1 1 1 1l1 0c0 0 0 0 0 0 0 0 0 0 0 0l1 1c0 0 0 0 0 0 1 0 1 0 1 0l0 0c1 0 1 1 1 1 0 0 0 0 0 0l1 0c0 0 0 0 0 0 0 0 0 0 1 0l1 1c0 0 0 0 0 0 0 0 0 0 0 0l1 1c0 0 0 0 0 0 0 0 1 0 1 0l0 0c0 0 1 1 1 1 0 0 0 0 0 0l1 0c0 0 0 0 0 0 0 0 0 0 1 1l0 0c0 0 1 0 1 0 0 0 0 0 0 0l1 1c0 0 0 0 0 0 0 0 0 0 0 0l1 1c1 0 1 0 1 0 0 0 0 0 0 0l1 0c0 0 0 0 0 0 0 0 0 1 1 1l0 0c0 0 0 0 0 0 1 0 1 0 1 0l1 1c0 0 0 0 0 0 0 0 0 0 0 0l1 0c0 0 0 0 0 1 1 0 1 0 1 0l1 0c0 0 0 0 0 0 0 0 0 0 0 0l1 1c0 0 0 0 1 0 0 0 0 0 0 0l0 1c1 0 1 0 1 0 0 0 0 0 0 0l1 0c0 0 0 0 0 1 0 0 0 0 1 0l1 0c0 0 0 0 0 0 0 0 0 0 0 1l1 0c0 0 0 0 0 0 0 0 1 0 1 0l0 1c0 0 1 0 1 0 0 0 0 0 0 0l1 0c0 1 0 1 0 1 0 0 0 0 1 0l0 0c0 0 0 0 1 0 0 0 0 1 0 1l1 0c0 0 0 0 0 0 0 0 0 0 0 0l1 1c1 0 1 0 1 0 0 0 0 0 0 0l1 0c0 0 0 0 0 1 0 0 0 0 1 0l0 0c0 0 0 0 0 0 1 0 1 0 1 0l1 1c0 0 0 0 0 0 0 0 0 0 0 0l1 0c2 2 4 2 7 2 5 0 11-3 14-8 4-8 0-17-7-21z m206-372l0 0c0 0-1 0-1 0 0 0 0 0 0 0l-1-1c0 0 0 0 0 0 0 0 0 0-1 0l0 0c0 0 0 0 0 0l-1 0c0 0 0 0 0 0 0 0 0-1 0-1l-1 0c0 0 0 0 0 0 0 0 0 0 0 0l-1 0c0 0 0 0 0 0l0 0c0-1-1-1-1-1 0 0 0 0 0 0 0 0 0 0 0 0l0 0-1 0c0 0 0 0 0 0l0 0c0 0 0 0 0 0 0 0-1 0-1 0l0-1 0 0c0 0 0 0 0 0-1 0-1 0-1 0l0 0c0 0 0 0 0 0l-1 0c0 0 0 0 0 0 0 0 0 0 0-1l-1 0c-1 0-1 0-1 0 0 0 0 0 0 0l-1 0c0 0 0-1 0-1 0 0 0 0 0 0l-1 0c0 0 0 0 0 0l0 0 0 0c0 0 0 0 0 0 0 0 0 0 0 0-1 0-1 0-1 0l0-1c0 0 0 0 0 0l-1 0c0 0 0 0 0 0 0 0 0 0 0 0l-1 0c0 0 0 0 0 0 0 0 0 0 0 0 0 0 0 0-1 0l0-1c0 0 0 0 0 0l-1 0c0 0 0 0 0 0 0 0 0 0 0 0 0 0 0 0 0 0l-1 0c0 0 0 0 0 0l0-1c0 0 0 0-1 0 0 0 0 0 0 0l0 0c0 0 0 0 0 0l0 0 0 0c0 0 0 0 0 0 0 0-1 0-1 0 0 0 0 0 0 0l0 0c0 0 0 0 0 0l-1-1c0 0 0 0 0 0 0 0 0 0-1 0 0 0 0 0 0 0l0 0c0 0 0 0 0 0l-1 0c0 0 0 0 0-1 0 0 0 0 0 0l-1 0c0 0 0 0 0 0 0 0 0 0 0 0 0 0 0 0 0 0l-1 0c0 0 0 0 0 0l0-1c0 0-1 0-1 0 0 0 0 0 0 0l-1 0c0 0 0 0 0 0 0 0-1 0-1 0l0-1c0 0 0 0 0 0-1 0-1 0-1 0l0 0c0 0 0 0 0 0l-1 0c0 0 0 0 0 0 0 0 0-1 0-1l0 0 0 0-1 0c-1 0-1 0-1 0 0 0 0 0 0 0l-1 0c0 0 0 0 0-1 0 0 0 0 0 0 0 0 0 0 0 0l-1 0c0 0 0 0 0 0l0 0c0 0 0 0 0 0-1 0-1 0-1 0l-1-1c0 0 0 0 0 0 0 0 0 0 0 0l-1 0c0 0 0 0 0 0 0 0 0 0-1-1l0 0c0 0 0 0 0 0l-1 0c0 0 0 0 0 0 0 0 0 0 0 0 0 0 0 0 0 0 0 0 0 0 0 0l-1-1c0 0 0 0-1 0 0 0 0 0 0 0l0 0c-3-1-5-1-8-1 0 0 0 0 0 0-1 0-1 0-1 0 0 0-1 0-1 0 0 0 0 0-1 1 0 0 0 0 0 0-1 0-1 0-1 0 0 0 0 0 0 0l-1 0c0 0 0 0 0 0 0 0 0 1 0 1l-1 0c0 0 0 0-1 0 0 0 0 0 0 0l0 1c-1 0-1 0-1 0 0 0 0 0 0 0l-1 0c0 0 0 0 0 0 0 0 0 0-1 1l-1 0c0 0 0 0 0 0 0 0 0 0 0 0l-1 0c0 1 0 1 0 1 0 0-1 0-1 0l0 0c0 0-1 0-1 0 0 0 0 0 0 0l-1 1c0 0 0 0 0 0 0 0 0 0-1 0l0 0c0 0 0 1-1 1 0 0 0 0 0 0l-1 0c0 0 0 0 0 0 0 0 0 0 0 0l-1 1c-1 0-1 0-1 0 0 0 0 0 0 0l0 0c-1 0-1 1-1 1 0 0 0 0-1 0l0 0c0 0 0 0 0 0 0 0-1 0-1 0l-1 1c0 0 0 0 0 0 0 0 0 0 0 0l-1 0c0 0 0 0 0 1-1 0-1 0-1 0l-1 0c0 0 0 0 0 0 0 0 0 0 0 0l-1 1c0 0 0 0 0 0-1 0-1 0-1 0l0 0c0 0-1 0-1 1 0 0 0 0 0 0l-1 0c0 0 0 0 0 0 0 0 0 0 0 0l-2 1c0 0 0 0 0 0 0 0 0 0 0 0l-1 0c0 0 0 0 0 0 0 1-1 1-1 1l0 0c0 0 0 0-1 0 0 0 0 0 0 0l-1 1c0 0 0 0 0 0 0 0 0 0-1 0l0 0c0 0 0 0-1 0 0 0 0 1 0 1l-1 0c0 0 0 0 0 0 0 0 0 0 0 0l-1 1c0 0-1 0-1 0 0 0 0 0 0 0l0 0c-1 0-1 0-1 0 0 0 0 0-1 1l0 0c-8 3-11 12-8 20 3 6 9 10 15 10 2 0 4-1 6-2l0 0c0 0 0 0 1 0 0 0 0 0 0 0l1-1c0 0 0 0 0 0 0 0 0 0 0 0l1 0c0 0 1 0 1-1 0 0 0 0 0 0l0 0c1 0 1 0 1 0 0 0 0 0 1 0l0-1c0 0 0 0 0 0 0 0 1 0 1 0l1 0c0 0 0 0 0 0 0 0 0-1 0-1l1 0c0 0 0 0 0 0 1 0 1 0 1 0l0-1c1 0 1 0 1 0 0 0 0 0 0 0l1 0c0 0 0 0 0 0 1 0 1 0 1-1l0 0c0 0 1 0 1 0 0 0 0 0 0 0l1 0c0-1 0-1 0-1 0 0 0 0 0 0l2 0c0 0 0 0 0 0 0 0 0 0 0 0l1-1c0 0 0 0 0 0 0 0 1 0 1 0l0 0c0 0 0 0 1-1 0 0 0 0 0 0l1 0c0 0 0 0 0 0 0 0 0 0 0 0l1-1c0 0 0 0 1 0 0 0 0 0 0 0l1 0c0 0 0 0 0 0 0-1 0-1 0-1l1 0c0 0 0 0 1 0 0 0 0 0 0 0l0-1c1 0 1 0 1 0 0 0 0 0 0 0l1 0c0 0 0 0 0 0 0 0 1-1 1-1l1 0c0 0 0 0 0 0 0 0 0 0 0 0l1-1c0 0 0 0 0 0 1 0 1 0 1 0l0 0c1 0 1 0 1 0 0 0 0 0 0 0l0-1 0 0c1 1 1 1 1 1 0 0 0 0 0 0l1 0c0 0 0 0 0 0 0 0 1 0 1 0l0 1c0 0 0 0 0 0 0 0 0 0 0 0 1 0 1 0 1 0l0 0c0 0 0 0 0 0l1 0c0 0 0 0 0 0 0 0 0 0 0 0 0 0 0 0 0 0 0 0 0 0 0 0l1 1 0 0c0 0 0 0 0 0l0 0c1 0 1 0 1 0 0 0 0 0 0 0l1 0c0 0 0 0 0 0 0 1 0 1 0 1l1 0c0 0 0 0 0 0l0 0c0 0 0 0 0 0 0 0 0 0 0 0 1 0 1 0 1 0l0 1c0 0 0 0 0 0l1 0c0 0 0 0 0 0 0 0 0 0 0 0l1 0c0 0 0 0 0 0 0 0 0 0 0 0 0 0 0 0 1 0l0 1c0 0 0 0 0 0l1 0c0 0 0 0 0 0 0 0 0 0 0 0 0 0 0 0 0 0l1 0c0 0 0 0 0 0l0 1c0 0 0 0 1 0 0 0 0 0 0 0l0 0 0 0c0 0 1 0 1 0 0 0 0 0 0 0l0 0c0 0 0 0 0 0l1 1c0 0 0 0 0 0 0 0 0 0 1 0l1 0c0 0 0 0 0 0 0 0 0 1 0 1l1 0c0 0 0 0 0 0 0 0 0 0 0 0 0 0 0 0 0 0l1 0c0 0 0 0 0 0l0 0 0 0c0 0 0 0 0 0l0 0c1 1 1 1 1 1 0 0 0 0 0 0l1 0c0 0 0 0 0 0l0 0c0 0 0 0 0 0 0 0 1 0 1 0l0 1c0 0 0 0 0 0 1 0 1 0 1 0l0 0c0 0 0 0 0 0l1 0c0 0 0 0 0 0 0 0 0 0 0 1l1 0c0 0 0 0 0 0l0 0c1 0 1 0 1 0 0 0 0 0 0 0l0 0c0 0 0 0 0 0l0 0 1 0c0 0 0 0 0 0 0 0 0 0 0 1 0 0 0 0 0 0l1 0 0 0c0 0 0 0 1 0 0 0 0 0 0 0 0 0 0 0 0 0l0 1c0 0 0 0 0 0l1 0c0 0 0 0 0 0 0 0 0 0 0 0 0 0 0 0 0 0l1 0c0 0 0 0 0 0 0 0 0 0 0 0 0 0 0 0 1 0l0 1c0 0 0 0 0 0l1 0c0 0 0 0 0 0 0 0 0 0 0 0 0 0 0 0 0 0l1 0c0 0 0 0 0 0l0 1c0 0 0 0 1 0 0 0 0 0 0 0l0 0c2 1 4 1 6 1 6 0 12-4 14-10 1-2 2-4 2-5 0-7-4-12-10-15z m-138 25l0 0c-1 0-1 0-1 0 0 0 0 0 0 0l-1 1c0 0 0 0 0 0 0 0-1 0-1 0l0 1c0 0-1 0-1 0 0 0 0 0 0 0l-1 1c0 0 0 0 0 0 0 0 0 0 0 0l-1 0c-1 0-1 1-1 1 0 0 0 0 0 0l-1 0c0 0 0 0 0 0 0 0 0 1-1 1l0 0c0 0 0 0 0 0-1 0-1 0-1 0l-1 1c0 0 0 0 0 0 0 0 0 0 0 0l-1 0c0 1 0 1 0 1-1 0-1 0-1 0l-1 0c0 0 0 0 0 1 0 0 0 0 0 0l-1 0c0 0 0 0 0 0-1 0-1 1-1 1l0 0c-1 0-1 0-1 0 0 0 0 0 0 1l-1 0c0 0 0 0 0 0 0 0 0 0 0 0l-2 1c0 0 0 0 0 0 0 0 0 0 0 0l-1 0c0 0 0 1 0 1 0 0-1 0-1 0l0 0c0 0-1 0-1 0 0 0 0 1 0 1l-1 0c0 0 0 0 0 0 0 0 0 0-1 0l0 1c0 0 0 0-1 0 0 0 0 0 0 0l-1 1c0 0 0 0 0 0 0 0 0 0 0 0l-1 1c0 0-1 0-1 0 0 0 0 0 0 0l0 0c-1 0-1 0-1 1 0 0 0 0-1 0l0 0c0 0 0 0 0 0 0 0-1 0-1 0l-1 1c0 0 0 0 0 0 0 0 0 0 0 0l-1 1c0 0 0 0 0 0-1 0-1 0-1 0l-1 1c0 0 0 0 0 0 0 0 0 0 0 0l-1 0c0 1 0 1 0 1-1 0-1 0-1 0l0 0c0 0-1 0-1 0 0 1 0 1 0 1l-1 0c-7 4-10 14-6 21 3 5 8 8 14 8 2 0 5-1 7-2l1 0c0 0 0 0 0 0 1-1 1-1 1-1l0 0c0 0 1 0 1 0 0 0 0 0 0 0l1-1c0 0 0 0 0 0 0 0 1 0 1 0l0-1c0 0 0 0 1 0 0 0 0 0 0 0l1 0c0 0 0-1 0-1 0 0 0 0 0 0l1 0c1 0 1 0 1 0 0-1 0-1 0-1l1 0c0 0 0 0 0 0 0 0 0 0 1-1l0 0c0 0 0 0 0 0 1 0 1 0 1 0l1-1c0 0 0 0 0 0 0 0 0 0 0 0l1 0c0 0 0-1 0-1 1 0 1 0 1 0l1 0c0 0 0 0 0 0 0 0 0-1 0-1l1 0c0 0 0 0 0 0 1 0 1 0 1-1l0 0c0 0 1 0 1 0 0 0 0 0 0 0l1-1c0 0 0 0 0 0 0 0 0 0 0 0l2-1c0 0 0 0 0 0 0 0 0 0 0 0l1 0c0 0 0 0 0-1 0 0 1 0 1 0l0 0c0 0 1 0 1 0 0 0 0 0 0 0l1-1c0 0 0 0 0 0 0 0 0 0 1 0l0-1c0 0 0 0 1 0 0 0 0 0 0 0l1-1c0 0 0 0 0 0 0 0 0 0 0 0l1-1c0 0 1 0 1 0 0 0 0 0 0 0l0 0c1 0 1 0 1 0 0-1 0-1 1-1l0 0c0 0 0 0 0 0 0 0 1 0 1 0l1-1c0 0 0 0 0 0 0 0 0 0 0 0l1-1c0 0 0 0 0 0 1 0 1 0 1 0l1 0c0-1 0-1 0-1 0 0 0 0 0 0l1 0c0 0 0-1 0-1 1 0 1 0 1 0l0 0c8-4 10-14 6-21-4-8-14-10-21-6z m218 20l0 0c0 0-1 0-1 0 0 0 0-1 0-1l-1 0c0 0 0 0 0 0 0 0 0 0 0 0l-1-1c0 0 0 0-1 0 0 0 0 0 0 0l0 0c0 0-1-1-1-1 0 0 0 0 0 0l-1 0c0 0 0 0 0 0 0 0 0 0 0-1l-1 0c-1 0-1 0-1 0 0 0 0 0 0 0l0-1c-1 0-1 0-1 0 0 0 0 0-1 0l0 0c0-1 0-1 0-1 0 0 0 0-1 0l-1 0c0 0 0 0 0 0 0-1 0-1 0-1l-1 0c0 0 0 0 0 0 0 0-1 0-1 0l0-1c0 0 0 0 0 0-1 0-1 0-1 0l-1-1c0 0 0 0 0 0 0 0 0 0 0 0l-1 0c0 0 0 0 0 0-1-1-1-1-1-1l0 0c0 0-1 0-1 0 0 0 0 0 0 0l-1-1c0 0 0 0 0 0 0 0 0 0 0 0l-1 0c0 0 0-1-1-1 0 0 0 0 0 0l-1 0c0 0 0 0 0 0 0 0 0 0 0 0l-1-1c0 0 0 0 0 0 0 0-1 0-1 0l0-1c0 0 0 0-1 0 0 0 0 0 0 0l-1 0c0-1 0-1 0-1 0 0 0 0 0 0l-1 0c0 0 0 0 0 0-1 0-1-1-1-1l0 0c0 0-1 0-1 0 0 0 0 0 0 0l-1-1c0 0 0 0 0 0 0 0 0 0 0 0l-1-1c0 0-1 0-1 0 0 0 0 0 0 0l0 0c-1 0-1 0-1 0 0-1 0-1 0-1l-1 0c0 0 0 0 0 0 0 0 0 0 0 0l-1-1c-1 0-1 0-1 0 0 0 0 0 0 0l0 0c-8-4-17-2-21 6-5 8-2 17 6 21l0 0c0 0 0 0 0 0 0 0 1 1 1 1l1 0c0 0 0 0 0 0 0 0 0 0 0 0l1 1c0 0 0 0 0 0 0 0 1 0 1 0l0 1c0 0 0 0 1 0 0 0 0 0 0 0l1 0c0 0 0 0 0 1 0 0 0 0 0 0l1 0c0 0 0 0 0 0 1 0 1 0 1 1l0 0c1 0 1 0 1 0 0 0 0 0 0 0l1 1c0 0 0 0 0 0 0 0 0 0 1 0l0 0c0 0 0 0 1 0 0 1 0 1 0 1l1 0c0 0 0 0 0 0 0 0 0 0 0 0l1 1c0 0 0 0 0 0 1 0 1 0 1 0l0 0c0 1 1 1 1 1 0 0 0 0 0 0l1 0c0 0 0 0 0 0 0 0 0 1 0 1l1 0c0 0 1 0 1 0 0 0 0 0 0 0l0 1c1 0 1 0 1 0 0 0 0 0 0 0l1 1c0 0 0 0 0 0 0 0 0 0 0 0l2 0c0 0 0 0 0 1 0 0 0 0 0 0l1 0c0 0 0 0 0 0 0 0 0 0 1 1l0 0c0 0 0 0 0 0 0 0 1 0 1 0l1 1c0 0 0 0 0 0 0 0 0 0 0 0l1 0c0 0 0 0 0 0 0 1 1 1 1 1l0 0c0 0 0 0 1 0 0 0 0 0 0 0l1 1c0 0 0 0 0 0 0 0 0 0 0 0l1 0c0 1 0 1 0 1 1 0 1 0 1 0l0 0c1 0 1 0 1 0 0 0 0 1 0 1l1 0c0 0 0 0 0 0 0 0 0 0 1 0l0 1c0 0 0 0 1 0 0 0 0 0 0 0l0 0c3 2 5 2 8 2 5 0 11-3 14-8 3-7 1-17-7-21z m26 53l0 1c1 0 1 0 1 0 0 0 0 0 0 0l1 0c0 0 0 0 0 1 0 0 1 0 1 0l0 0c0 0 1 0 1 0 0 0 0 0 0 0l1 1c0 0 0 0 0 0 0 0 0 0 0 0l1 1c1 0 1 0 1 0 0 0 0 0 0 0l1 0c0 0 0 0 0 0 0 1 1 1 1 1l0 0c0 0 0 0 1 0 0 0 0 0 0 0l1 1c0 0 0 0 0 0 0 0 0 0 0 0l1 0c0 1 0 1 1 1 0 0 0 0 0 0l1 0c0 0 0 0 0 0 0 0 0 0 0 1l1 0c0 0 0 0 1 0 0 0 0 0 0 0l0 1c1 0 1 0 1 0 0 0 0 0 1 0l0 1c0 0 0 0 0 0 0 0 0 0 0 0 0 0 0 0 0 0l-1 0c0 0 0 0 0 0-1 1-1 1-1 1l-1 0c0 0 0 0 0 0 0 0 0 0 0 0l-1 1c0 0 0 0 0 0-1 0-1 0-1 0l0 1c-1 0-1 0-1 0 0 0 0 0 0 0l-1 0c0 1 0 1 0 1 0 0 0 0-1 0l-1 0c0 0 0 0 0 1 0 0 0 0 0 0l-1 0c0 0 0 0 0 0 0 0-1 1-1 1l0 0c0 0-1 0-1 0 0 0 0 0 0 0l-1 1c0 0 0 0 0 0 0 0 0 0-1 0l0 0c-7 4-10 14-6 21 3 6 8 8 14 8 2 0 5 0 7-1l1-1c0 0 0 0 0 0 0 0 0 0 0 0l1-1c0 0 0 0 0 0 1 0 1 0 1 0l0 0c1 0 1 0 1 0 0-1 0-1 0-1l1 0c0 0 0 0 0 0 0 0 0 0 1 0l1-1c0 0 0 0 0 0 0 0 0 0 0 0l1-1c0 0 0 0 0 0 0 0 1 0 1 0l0-1c0 0 1 0 1 0 0 0 0 0 0 0l1 0c0 0 0-1 0-1 0 0 0 0 1 0l0 0c0 0 0 0 1 0 0 0 0-1 0-1l1 0c0 0 0 0 0 0 0 0 0 0 0 0l1-1c0 0 1 0 1 0 0 0 0 0 0 0l1 0c0-1 0-1 0-1l0 1c0 0 0 0 0 0 0 0 0 0 0 0l0 2c0 0 0 0 0 0 0 0 0 0 0 0l0 1c0 0 0 0 0 1 0 0 0 0 0 0l0 1c0 0 0 0 0 0 0 0 0 0 0 0l0 2c0 0 0 0 0 0 0 0 0 0 0 0l0 1c0 0 0 0 0 0 0 1 0 1 0 1l0 1c0 0 0 0 0 0 0 0 0 0 0 0l0 2c0 0 0 0 0 0 0 0 0 0 0 0l0 1c0 0 0 0 0 0 0 1 0 1 0 1l0 1c0 0 0 0 0 0 0 0 0 0 0 0l0 2c0 0 0 0 0 0 0 0 0 0 0 0l0 1c0 0 0 0 0 0 0 1 0 1 0 1l0 1c0 0 0 0 0 0 0 0 0 0 0 0l0 1c0 1 0 1 0 1 0 0 0 0 0 0l0 0c0 9 7 16 15 16 9 0 16-7 16-16l0 0c0 0 0 0 0 0 0 0 0 0 0-1l0-1c0 0 0 0 0 0 0 0 0 0 0 0l0-1c0 0 0 0 0-1 0 0 0 0 0 0l0-1c0 0 0 0 0 0 0 0 0 0 0 0l0-2c0 0 0 0 0 0 0 0 0 0 0 0l0-1c0 0 0 0 0-1 0 0 0 0 0 0l0-1c0 0 0 0 0 0 0 0 0 0 0 0l0-2c0 0 0 0 0 0 0 0 0 0 0 0l0-1c0 0 0 0 0-1 0 0 0 0 0 0l0-1c0 0 0 0 0 0 0 0 0 0 0 0l0-2c0 0 0 0 0 0 0 0 0 0 0 0l0-1c0 0 0 0 0 0 0-1 0-1 0-1l0-1c0 0 0 0 0 0 0 0 0 0 0 0l0-2c0 0 0 0 0 0 0 0 0 0 0 0l0-1c0 0 0 0 0 0 0-1 0-1 0-1l0-1c0 0 0 0 0 0 0 0 0 0 0 0l0-2c0 0 0 0 0 0 0 0 0 0 0 0l0-1c0 0 0 0 0 0 0-1 0-1 0-1l0-1c0 0 0 0 0 0 0 0 0 0 0 0l0-1c0-1 0-1 0-1 0 0 0 0 0 0l0-1c0 0 0 0 0 0 0-1 0-1 0-1l0-1c0 0 0 0 0 0 0 0 0 0 0 0l0-1c0-1 0-1 0-1 0 0 0 0 0 0l0-1c0 0 0 0 0 0 0 0 0-1 0-1l0 0c0-1 0-1 0-1 0 0 0 0 0 0l0-1c0 0 0-1 0-1 0 0 0 0 0 0l0-1c0 0 0 0 0 0 0 0 0-1 0-1l0 0c0-1 0-1 0-1 0 0 0 0 0 0l0-1c0 0 0 0 0-1 0 0 0 0 0 0l0 0c0-1 0-1 0-1 0 0 0-1 0-1l0 0c0 0 0 0 0 0 0 0 0 0 0 0 0-1 0-1 0-1 0 0 0 0 0 0 0-1 0-1 0-1 0 0 0 0 0 0 0 0 0 0 0 0 0-1 0-1 0-1 0 0 0 0 0 0 0 0-1 0-1 0 0 0 0-1 0-1 0 0 0 0 0 0 0 0 0 0 0-1 0 0 0 0 0 0 0 0 0 0 0 0 0 0 0 0 0 0 0 0 0-1 0-1 0 0 0 0 0 0 0 0-1 0-1 0 0-1 0-1 0-2 0 0 0 0 0 0 0 0 0 0 0 0 0 0 0 0 0 0-1 0-1-1-1-1 0 0 0 0 0 0 0 0 0 0 0 0 0 0 0 0 0-1-1 0-1 0-1 0 0 0 0 0 0 0 0 0 0 0 0-1 0 0 0 0 0 0-1 0-1 0-1 0 0 0 0 0 0 0 0 0 0-1-1-1 0 0 0 0 0 0 0 0 0 0 0 0 0 0 0-1-1-1 0 0 0 0 0 0 0 0 0 0 0 0 0 0-1 0-1 0 0-1 0-1-1-1 0 0 0 0 0 0l0 0c0 0 0 0 0 0-1 0-1 0-1-1l-1 0c0 0 0 0 0 0 0 0 0 0 0 0l-1-1c0 0 0 0-1 0 0 0 0 0 0 0l0 0c-1 0-1 0-1-1 0 0 0 0 0 0l-1 0c0 0 0 0 0 0 0 0 0 0-1 0l-1-1c0 0 0 0 0 0 0 0 0 0 0 0l-1-1c0 0 0 0 0 0 0 0-1 0-1 0l0 0c0 0-1 0-1-1 0 0 0 0 0 0l-1 0c0 0 0 0 0 0 0 0 0 0-1 0l0-1c0 0 0 0-1 0 0 0 0 0 0 0l-1-1c0 0 0 0 0 0 0 0 0 0 0 0l-1 0c-1 0-1-1-1-1 0 0 0 0 0 0l-1 0c0 0 0 0 0 0 0 0 0 0-1-1l0 0c0 0 0 0 0 0-1 0-1 0-1 0l-1-1c0 0 0 0 0 0 0 0 0 0 0 0l-1 0c0 0 0 0 0-1-1 0-1 0-1 0l-1 0c0 0 0 0 0 0 0 0 0 0 0 0l-1-1c0 0 0 0-1 0 0 0 0 0 0 0l0-1c-1 0-1 0-1 0 0 0 0 0 0 0l-1 0c0 0 0 0 0 0 0-1 0-1-1-1l-1 0c0 0 0 0 0 0 0 0 0 0 0 0l-1-1c0 0 0 0 0 0 0 0-1 0-1 0l0-1c0 0-1 0-1 0 0 0 0 0 0 0l-1 0c0 0 0-1 0-1 0 0 0 0-1 0l0 0c0 0 0 0-1 0 0 0 0 0 0-1l-1 0c0 0 0 0 0 0 0 0 0 0 0 0l-1-1c-1 0-1 0-1 0 0 0 0 0 0 0l-1 0c0 0 0 0 0-1 0 0 0 0-1 0l0 0c0 0 0 0 0 0-1 0-1 0-1 0l-1-1c0 0 0 0 0 0 0 0 0 0 0 0l-1 0c-7-4-17-1-21 6-4 8 0 17 7 21z"/>
    </symbol>
  
    <symbol id="icon-unlock" viewBox="0 0 512 512">
      <path d="m263 218l0-89c0-71-58-129-129-129-71 0-129 58-129 129l0 89c0 0 0 1 0 2l48 0c0-1 0-1 0-2l0-89c0-45 37-81 81-81 45 0 81 36 81 81l0 90-43 0 0 293 335 0 0-293-244 0z m95 160l0 59-36 0 0-59c-14-6-22-20-22-36 0-22 18-41 40-41 22 0 41 19 41 41-1 16-10 30-23 36z"/>
    </symbol>
  
    <symbol id="icon-menu" viewBox="0 0 512 512">
      <path d="m475 384l0 37c0 5-1 9-5 12-4 4-8 6-13 6l-402 0c-5 0-9-2-13-6-4-3-5-7-5-12l0-37c0-5 1-9 5-13 4-3 8-5 13-5l402 0c5 0 9 2 13 5 4 4 5 8 5 13z m0-146l0 36c0 5-1 10-5 13-4 4-8 6-13 6l-402 0c-5 0-9-2-13-6-4-3-5-8-5-13l0-36c0-5 1-10 5-13 4-4 8-6 13-6l402 0c5 0 9 2 13 6 4 3 5 8 5 13z m0-147l0 37c0 5-1 9-5 13-4 3-8 5-13 5l-402 0c-5 0-9-2-13-5-4-4-5-8-5-13l0-37c0-5 1-9 5-12 4-4 8-6 13-6l402 0c5 0 9 2 13 6 4 3 5 7 5 12z"/>
    </symbol>
  
</svg>
