<svg xmlns="http://www.w3.org/2000/svg" style="display: none;">
  
    <symbol id="icon-play" viewBox="0 0 512 512">
      <path d="m256 512c-141 0-256-115-256-256c0-141 115-256 256-256c141 0 256 115 256 256c0 141-115 256-256 256z m0-448c-106 0-192 86-192 192c0 106 86 192 192 192c106 0 192-86 192-192c0-106-86-192-192-192z m-64 96l160 96l-160 96z"/>
    </symbol>
  
    <symbol id="icon-cc" viewBox="0 0 512 512">
      <path d="m406 237c-8 0-15 7-15 15l0 105-166 92 0-208 75-42c7-4 10-13 6-20-4-7-13-9-20-5l-76 41-163-90 163-79 74 35c7 4 16 1 19-7 4-7 1-16-6-19l-80-39c-4-2-9-2-13 0l-196 94c0 0 0 0 0 0 0 1-1 1-1 1 0 0-1 0-1 1 0 0-1 0-1 1 0 0 0 0 0 0-1 0-1 1-2 1 0 0 0 0 0 0 0 1 0 1-1 2 0 0 0 0 0 0 0 0 0 0 0 1 0 0 0 0-1 0 0 0 0 1 0 1 0 0 0 1 0 1 0 1 0 1 0 1-1 0-1 1-1 1 0 0 0 1 0 1 0 0 0 1 0 2 0 0 0 0 0 0l0 241c0 6 3 11 8 13l195 109c0 0 0 0 0 0 1 0 1 0 2 1 0 0 0 0 0 0 1 0 1 0 2 0 0 0 0 0 0 0 0 0 1 0 1 0 0 0 1 0 1 1 0 0 1 0 1 0 1 0 2 0 2 0 0-1 0-1 1-1 0 0 0 0 1 0 0 0 0 0 0 0 1 0 1 0 2 0 0 0 0 0 0 0 0-1 1-1 2-1 0 0 0 0 0 0l195-109c5-2 8-7 8-13l0-113c0-8-7-15-15-15z m-210 212l-167-92 0-208 167 92z m210-430c-58 0-105 47-105 105 0 58 47 105 105 105 58 0 105-47 105-105 0-58-47-105-105-105z m0 180c-42 0-75-34-75-75 0-42 33-76 75-76 42 0 76 34 76 76 0 41-34 75-76 75z m-12-65c-2 2-6 6-14 6-9 0-16-7-16-16 0-10 7-17 16-17 4 0 8 2 12 5l2 2 11-12-2-2c-6-6-14-9-23-9-19 0-33 14-33 33 0 18 14 32 33 32 11 0 20-4 27-12l1-2-12-11z m11-10c0 18 14 32 33 32 11 0 21-4 27-12l2-2-13-11-1 3c-2 2-7 6-14 6-10 0-17-7-17-16 0-10 7-17 16-17 5 0 9 2 12 5l2 2 11-12-2-2c-6-6-14-9-23-9-19 0-33 14-33 33z"/>
    </symbol>
  
    <symbol id="icon-shield-logo" viewBox="0 0 512 512">
      <path d="m494 66c0 0-98-66-234-66-1 0-2 0-4 0-1 0-2 0-3 0-136 0-235 66-235 66 0 0-11 186 15 244 80 182 220 202 223 202 3 0 144-20 224-202 25-58 14-244 14-244z m-43 100c-1 91-10 119-13 125-16 36-35 67-58 94-18 20-38 38-60 52-29 18-53 26-64 28-10-2-34-10-63-28-22-14-42-32-60-52-23-26-42-58-58-94-3-6-12-34-13-125 0-28 0-55 1-73 10-5 23-11 39-17 34-14 88-30 150-30l4 0 4 0c62 0 115 16 149 29 17 6 30 13 41 18 0 18 1 44 1 73z m-212-55l-91 228 217 0-85-228z m2 193l-37 0 55-145 21 59z m59-33l13 33-27 0z"/>
    </symbol>
  
    <symbol id="icon-plus" viewBox="0 0 512 512">
      <path d="m256 0c-141 0-256 115-256 256 0 141 115 256 256 256 141 0 256-115 256-256 0-141-115-256-256-256z m0 487c-128 0-231-104-231-231 0-127 104-231 231-231 127 0 231 104 231 231 0 127-104 231-231 231z m113-228c0 7-6 12-12 12l-89 0 0 88c0 7-5 12-12 12-7 0-12-5-12-12l0-88-89 0c-6 0-12-5-12-12 0-6 6-12 12-12l88 0 0-88c0-7 6-12 12-12 7 0 12 5 12 12l0 88 88 0c8 0 14 6 14 12z"/>
    </symbol>
  
    <symbol id="icon-logo-triangle" viewBox="0 0 512 512">
      <path d="m216 0l-203 512 486 0-189-512z m6 433l-85 0 125-326 46 132z m132-73l28 73-60 0z"/>
    </symbol>
  
    <symbol id="icon-box-open" viewBox="0 0 512 512">
      <path d="m512 135c0 0 0 0 0 0 0-1 0-2 0-2 0 0 1-1 1-1 0 0 0-1 0-1 0 0 0-1 0-1 0-1 0-1 0-1 0-1 0-1 0-2 0 0 0 0 0-1 0 0 0-1 0-1 0-1 0-1-1-1 0-1 0-1 0-2 0 0 0 0 0 0 0 0-1 0-1-1 0 0 0 0-1-1 0 0 0-1-1-1 0 0 0 0 0-1-1 0-1 0-2-1 0 0 0 0 0 0l-1 0c0 0 0 0 0 0l-155-88c0 0 0 0 0 0-1 0-1 0-1 0-1 0-1-1-2-1 0 0 0 0 0 0-1 0-2 0-2 0 0 0-1 0-1 0 0 0-1 0-2 0 0 0 0 0 0 0-1 0-2 0-2 0 0 0-1 1-1 1 0 0-1 0-2 0 0 0 0 0 0 0l-81 46-81-46c0 0 0 0 0 0 0 0-1 0-2 0 0 0 0-1 0-1-1 0-2 0-2 0 0 0-1 0-1 0 0 0-1 0-2 0 0 0 0 0 0 0-1 0-2 0-2 0 0 0-1 0-1 0 0 0-1 1-1 1-1 0-1 0-1 0 0 0 0 0-1 0l-155 88c0 0 0 0 0 0l0 0c0 0-1 0-1 0 0 1-1 1-1 1 0 1-1 1-1 1 0 0-1 1-1 1 0 1-1 1-1 1 0 1 0 1 0 1 0 0 0 0 0 0-1 1-1 1-1 2 0 0 0 0 0 1 0 0 0 1-1 1 0 0 0 1 0 1 0 1 0 1 0 1 0 1 0 1 0 2 0 0 0 0 1 1 0 0 0 1 0 1 0 0 0 1 0 1 0 1 1 1 1 2 0 0 0 0 0 0 0 0 0 0 0 0 1 1 1 1 2 2 0 0 0 1 0 1 1 0 2 1 2 1 1 0 1 1 1 1 0 0 0 0 0 0l70 37-61 29c0 0 0 0 0 0-1 1-1 1-2 1 0 0 0 1-1 1 0 0 0 0 0 1-1 0-1 0-1 1-1 0-1 0-1 0 0 1 0 1 0 1 0 0 0 1-1 1 0 0 0 1 0 1 0 1 0 1-1 1 0 1 0 1 0 2 0 0 0 0 0 1 0 0 0 1 0 1 0 0 0 1 0 1 0 1 0 1 0 2 0 0 0 0 1 1 0 0 0 1 0 1 0 0 0 0 0 0 0 1 0 1 1 1 0 1 0 1 1 2 0 0 0 0 1 1 0 0 1 1 2 2l78 52c0 1 0 2 0 3l0 77c0 0 0 0 0 0l0 0c0 0 0 0 0 1 0 0 0 1 0 2 0 0 0 0 0 1 1 0 1 1 1 1 0 0 0 1 0 1 1 0 1 1 1 1 0 1 1 1 1 1 0 1 0 1 1 1 0 1 0 1 1 1 0 1 0 1 1 1l0 0 150 103c0 0 0 0 0 0 0 0 0 0 1 0 0 0 0 0 1 1 0 0 1 0 1 0 0 0 1 0 1 0 0 0 0 1 0 1 1 0 2 0 3 0 0 0 0 0 0 0l0 0c0 0 0 0 0 0 0 0 0 0 0 0 1 0 2 0 3 0 0 0 0-1 1-1 0 0 0 0 0 0 1 0 1 0 2 0 0-1 0-1 1-1 0 0 0 0 1 0 0 0 0 0 0 0l150-103c0 0 0-1 1-1 0 0 0 0 1-1 0 0 0 0 1-1 0 0 0 0 0-1 1 0 1-1 1-1 0 0 0-1 1-1 0 0 0-1 0-1 0-1 0-1 0-1 0-1 1-2 1-2 0-1 0-1 0-1l0 0c0 0 0 0 0 0l0-77c0-1-1-2-1-3l79-52c1-1 1-2 2-2 0 0 0-1 0-1 1-1 2-1 2-2 0 0 0 0 0-1 0 0 0 0 0 0 1 0 1-1 1-1 0-1 0-1 0-1 0-1 0-1 0-2 0 0 0-1 0-1 1 0 0-1 0-1 0-1 0-1 0-1 0-1 0-1 0-2 0 0 0 0 0-1 0 0-1-1-1-1 0 0 0-1-1-1 0 0 0 0 0-1 0 0 0 0 0 0 0 0-1-1-1-1 0-1-1-1-1-1 0 0-1-1-1-1 0 0-1 0-1-1 0 0-1 0-1 0l-60-29 69-37c0 0 0 0 0 0 1 0 1-1 1-1 1 0 1-1 2-1 0 0 0-1 1-1 0-1 1-1 1-2 0 0 1 0 1 0z m-167 165l-62-41 125-67 57 28z m-175 0l-121-80 58-28 125 67z m0-244l61 34-124 72-65-34z m87 187l-123-66 123-72 124 72z m27-153l61-34 128 72-65 34z m-121 236c0 0 0 0 0 0 1 1 2 1 2 1 1 1 1 1 1 1 1 0 3 0 4 0 0 0 0 0 0 0l0 0c0 0 0 0 0 0 1 0 2 0 3 0 1 0 1 0 1-1 1 0 2 0 3-1 0 0 0 0 0 0l67-44 0 157-124-85 0-56z m231 28l-124 85 0-157 68 44c0 0 0 0 0 0 1 1 1 1 2 1 1 1 1 1 1 1 1 0 2 0 4 0 0 0 0 0 0 0l0 0c0 0 0 0 0 0 1 0 2 0 3 0 0 0 1 0 1-1 1 0 2 0 2-1 1 0 1 0 1 0l43-28 0 56z"/>
    </symbol>
  
    <symbol id="icon-box-inside" viewBox="0 0 512 512">
      <path d="m470 138c0-1 0-1 0-1 0 0 0-1 0-1 0-1 0-1 0-1 0 0-1-1-1-1 0-1 0-1 0-1 0 0 0 0 0-1-1 0-1 0-1 0 0 0 0 0 0-1 0 0-1-1-1-1 0 0 0 0 0 0-1-1-1-1-2-1 0-1 0-1 0-1 0 0-1 0-1-1 0 0 0 0 0 0-1 0-1-1-2-1 0 0 0 0 0 0l-63-30 0-20c0 0 0 0 0 0 0 0 0-1 0-2 0 0 0 0 0 0 0-1-1-1-1-2 0 0 0 0 0 0 0-1 0-1 0-2 0 0-1 0-1 0 0 0 0-1 0-1 0 0 0 0 0 0 0-1-1-1-1-1 0 0 0-1-1-1 0 0 0 0 0 0 0-1-1-1-1-2 0 0 0 0 0 0-1 0-1-1-2-1 0 0 0 0 0 0 0-1-1-1-2-1 0 0 0 0 0 0l-128-62c-4-2-8-2-12 0l-128 62c0 0 0 0 0 0-1 0-2 0-2 1 0 0 0 0 0 0-1 0-1 1-2 1 0 0 0 0 0 0 0 1-1 1-1 2 0 0 0 0 0 0-1 0-1 1-1 1 0 0-1 0-1 1 0 0 0 0 0 0 0 0 0 1 0 1 0 0-1 0-1 0 0 1 0 1 0 2 0 0 0 0 0 0 0 1-1 1-1 2 0 0 0 0 0 0 0 1 0 2 0 2 0 0 0 0 0 0l0 20-63 30c0 0 0 0 0 0-1 0-1 1-2 1 0 0 0 0 0 0 0 1-1 1-1 1 0 0 0 0 0 1-1 0-1 0-2 1 0 0 0 0 0 0 0 0-1 1-1 1 0 1 0 1 0 1 0 0 0 0 0 0-1 1-1 1-1 1 0 0 0 0 0 1 0 0-1 1-1 1 0 0 0 1 0 1 0 0 0 1 0 1 0 0 0 0 0 1 0 0 0 1 0 2 0 0 0 0 0 0l0 246c0 5 3 10 7 13l200 111c0 0 0 0 0 0 0 0 1 0 1 0 0 0 1 0 1 0 0 1 1 1 1 1 0 0 0 0 0 0 1 0 1 0 2 0 0 0 0 0 0 0 1 0 1 0 2 0 1 0 1 0 2 0 0 0 0 0 0 0 1 0 1 0 1 0 1 0 1 0 1 0 0 0 1 0 1-1 0 0 1 0 1 0 0 0 1 0 1 0 0 0 0 0 0 0l200-111c4-3 7-8 7-13l0-246c0 0 0 0 0 0 0-1 0-2 0-2z m-47 3l-24 13 0-25z m-152 84l0-69 98-54 0 68z m-128-123l98 54 0 69-98-55z m113-71l95 46-95 53-95-53z m-143 123l-24-13 24-12z m-41 11l49 27c0 0 0 0 0 0l120 67 0 212-169-94 0-212z m199 306l0-212 120-67c0 0 0 0 0 0l49-27 0 212z"/>
    </symbol>
  
    <symbol id="icon-box-piece" viewBox="0 0 512 512">
      <path d="m481 115c0 0 0 0 0 0 0-1 0-1 0-2 0 0 0 0 0 0-1-1-1-1-1-2 0 0 0 0 0 0 0-1-1-1-1-1 0 0 0-1 0-1 0 0 0 0 0 0-1-1-1-1-1-2 0 0 0 0 0 0-1 0-1-1-2-1 0 0 0-1 0-1-1 0-1 0-2-1 0 0 0 0 0 0 0 0-1-1-2-1 0 0 0 0 0 0l-105-50-105-51c-4-2-9-2-14 0l-105 51-105 50c0 0 0 0 0 0 0 0-1 1-1 1-1 0-1 0-1 0 0 1-1 1-1 1 0 0 0 1 0 1-1 0-1 1-2 1 0 0 0 0 0 0 0 1-1 1-1 2 0 0 0 0 0 0 0 0-1 1-1 1 0 0 0 0 0 1 0 0 0 0 0 0-1 1-1 1-1 2 0 0 0 0 0 0 0 1 0 1 0 2 0 0 0 0 0 0-1 1-1 2-1 2 0 0 0 0 0 0l0 259c0 6 4 11 9 14l102 57c1 1 2 1 3 2l105 58c0 0 0 0 0 0 0 1 1 1 1 1 1 0 1 0 1 0 0 0 1 1 1 1 0 0 1 0 1 0 0 0 1 0 1 0 0 0 0 0 1 0 0 0 1 0 1 0 1 0 2 0 2 0 0 0 1 0 1 0 0 0 1 0 1 0 0 0 0 0 1 0 0 0 1-1 1-1 0 0 0 0 0 0 1 0 1 0 2-1 0 0 0 0 0 0l105-58c1-1 2-1 3-2l102-57c5-3 8-8 8-14l0-259c0 0 0 0 0 0 0 0 0-1 0-2z m-420 29l73 41 0 93-73-40z m89-59l71 33-71 39-70-39z m210 0l71 33-71 39-70-39z m-105 261l-72-41 72-40 73 40z m90-68l-74-40 0-94 74 41z m-105-40l-74 40 0-93 74-41z m-74 94l74 41 0 93-74-40z m105 41l74-41 0 94-74 40z m105-95l0-93 74-41 0 94z m-121-244l69 33-69 33-68-33z m-194 240l73 41 0 93-73-41z m315 134l0-93 74-41 0 93z"/>
    </symbol>
  
    <symbol id="icon-box-line" viewBox="0 0 512 512">
      <path d="m205 231l0 0c0 0 0 1 0 1 1 0 1 0 1 0l1 0 0 0c0 0 0 0 0 0 0 0 0 0 0 0 0 0 0 0 0 0 0 0 0 1 0 1l2 0c0 0 0 0 0 0 0 0 0 0 0 0 0 0 0 0 0 0l1 1c0 0 0 0 0 0 0 0 0 0 0 0 0 0 0 0 0 0l1 0c0 0 0 0 0 0l0 1c0 0 0 0 1 0 0 0 0 0 0 0l1 0c0 0 0 0 0 1 0 0 0 0 0 0l1 0c0 0 0 0 0 0 0 0 0 0 0 0 0 0 0 0 1 0l0 0c0 0 0 0 0 0l1 1c0 0 0 0 0 0 0 0 0 0 0 0l1 1c0 0 1 0 1 0 0 0 0 0 0 0l0 0c0 0 1 0 1 0 0 0 0 0 0 0l0 1c0 0 0 0 1 0l0 0c0 0 0 0 0 0 0 0 1 0 1 0l1 1c0 0 0 0 0 0 0 0 0 0 0 0l1 0c0 0 0 0 0 0 0 0 0 1 0 1 0 0 0 0 0 0l1 0c0 0 0 0 0 0l0 0 0 0c0 0 0 0 0 0 1 0 1 0 1 0 0 0 0 1 0 1l1 0c0 0 0 0 0 0 0 0 1 0 1 0l0 1c0 0 0 0 0 0 0 0 0 0 0 0 1 0 1 0 1 0l0 0c0 0 0 0 0 0l1 0 0 1c0 0 0 0 0 0l0 0c0 0 0 0 0 0 0 0 0 0 0 0 0 0 0 0 0 0l2 0c0 0 0 0 0 0 0 1 0 1 0 1l1 0c0 0 0 0 0 0 0 0 0 0 0 0 0 0 0 0 0 0l1 0c0 0 0 0 0 0l0 1c0 0 0 0 1 0 0 0 0 0 0 0l0 0 0 0c0 0 0 0 0 0l1 1c0 0 0 0 0 0 0 0 0 0 0 0l1 0c0 0 0 0 0 0 0 0 0 0 1 0l0 1c0 0 0 0 0 0l1 0 0 0c0 0 0 0 0 0 0 0 0 0 0 0l1 1c0 0 0 0 0 0l0 0c0 0 1 0 1 0 0 0 0 0 0 0l0 0c0 0 0 0 0 0 0 0 0 0 0 0l0 1c0 0 0 0 0 1 0 0 0 0 0 0l0 1c0 0 0 0 0 0 0 0 0 0 0 1l0 1c0 0 0 0 0 0 0 0 0 0 0 0l0 1c0 0 0 0 0 1 0 0 0 0 0 0l0 1c0 0 0 0 0 0 0 0 0 0 0 1l0 1c0 0 0 0 0 0 0 0 0 0 0 0l0 1c0 0 0 0 0 1 0 0 0 0 0 0l0 1c0 0 0 0 0 0 0 0 0 0 0 0l0 2c0 0 0 0 0 0 0 0 0 0 0 0l0 1c0 0 0 0 0 1 0 0 0 0 0 0l0 1c0 0 0 0 0 0 0 0 0 0 0 0l0 2c0 0 0 0 0 0 0 0 0 0 0 0l0 1c0 0 0 0 0 0 0 1 0 1 0 1l0 1c0 0 0 0 0 0 0 0 0 0 0 0l0 2c0 0 0 0 0 0 0 0 0 0 0 0l0 1c0 0 0 0 0 0 0 1 0 1 0 1l0 1c0 0 0 0 0 0 0 0 0 0 0 0l0 2c0 0 0 0 0 0 0 0 0 0 0 0l0 1c0 0 0 0 0 0 0 1 0 1 0 1l0 1c0 0 0 0 0 0 0 0 0 0 0 0l0 1c0 1 0 1 0 1 0 0 0 0 0 0l0 1c0 0 0 0 0 0 0 1 0 1 0 1l0 1c0 0 0 0 0 0 0 0 0 0 0 0l0 1c0 1 0 1 0 1 0 0 0 0 0 0l0 0c0 9 7 16 16 16 9 0 16-7 16-16l0 0c0 0 0 0 0 0 0 0 0 0 0-1l0-1c0 0 0 0 0 0 0 0 0 0 0 0l0-1c0 0 0 0 0-1 0 0 0 0 0 0l0-1c0 0 0 0 0 0 0 0 0 0 0-1l0-1c0 0 0 0 0 0 0 0 0 0 0 0l0-1c0 0 0 0 0-1 0 0 0 0 0 0l0-1c0 0 0 0 0 0 0 0 0 0 0 0l0-2c0 0 0 0 0 0 0 0 0 0 0 0l0-1c0 0 0 0 0-1 0 0 0 0 0 0l0-1c0 0 0 0 0 0 0 0 0 0 0 0l0-2c0 0 0 0 0 0 0 0 0 0 0 0l0-1c0 0 0 0 0-1 0 0 0 0 0 0l0-1c0 0 0 0 0 0 0 0 0 0 0 0l0-2c0 0 0 0 0 0 0 0 0 0 0 0l0-1c0 0 0 0 0 0 0-1 0-1 0-1l0-1c0 0 0 0 0 0 0 0 0 0 0 0l0-2c0 0 0 0 0 0 0 0 0 0 0 0l0-1c0 0 0 0 0 0 0-1 0-1 0-1l0-1c0 0 0 0 0 0 0 0 0 0 0 0l0-2c0 0 0 0 0 0 0 0 0 0 0 0l0-1c0 0 0 0 0 0 0-1 0-1 0-1l0-1c0 0 0 0 0 0 0 0 0 0 0 0l0-1c0-1 0-1 0-1 0 0 0 0 0 0l0-1c0 0 0 0 0 0 0-1 0-1 0-1l0-1c0 0 0 0 0 0 0 0 0 0 0 0 0 0 0 0 0 0l1-1c0 0 0 0 0 0 0 0 0 0 0 0l1 0c0 0 0-1 1-1 0 0 0 0 0 0l0 0c1 0 1 0 1 0 0 0 0-1 0-1l1 0c0 0 0 0 0 0 0 0 0 0 1 0l1-1c0 0 0 0 0 0 0 0 0 0 0 0l1 0c0-1 0-1 0-1 1 0 1 0 1 0l0 0c1 0 1 0 1-1 0 0 0 0 0 0l1 0c0 0 0 0 0 0 0 0 1-1 1-1l0 0c0 0 1 0 1 0 0 0 0 0 0-1l1 0c0 0 0 0 0 0 0 0 0 0 0 0l1-1c1 0 1 0 1 0 0 0 0 0 0 0l1 0c0 0 0-1 0-1 0 0 0 0 1 0l0 0c0 0 0 0 0 0 1 0 1-1 1-1l1 0c0 0 0 0 0 0 0 0 0 0 0 0l1-1c0 0 0 0 1 0 0 0 0 0 0 0l1-1c0 0 0 0 0 0 0 0 0 0 0 0l1-1c0 0 0 0 1 0 0 0 0 0 0 0l0 0c1 0 1 0 1-1 0 0 0 0 0 0l1 0c0 0 0 0 0 0 0 0 0 0 1 0l1-1c0 0 0 0 0 0 0 0 0 0 0 0l1-1c0 0 0 0 0 0 0 0 1 0 1 0l0 0c8-5 10-14 6-22-4-7-13-10-21-6l0 0c0 1-1 1-1 1 0 0 0 0 0 0l-1 0c0 0 0 1 0 1 0 0 0 0-1 0l-1 0c0 0 0 0 0 1 0 0 0 0 0 0l-1 0c0 0 0 0 0 0 0 0-1 0-1 1l0 0c0 0-1 0-1 0 0 0 0 0 0 0l-1 1c0 0 0 0 0 0 0 0 0 0-1 0l0 0c0 0 0 1-1 1 0 0 0 0 0 0l-1 0c0 0 0 0 0 0 0 1 0 1 0 1l-1 0c0 0-1 0-1 0 0 0 0 0 0 1l0 0c-1 0-1 0-1 0 0 0 0 0-1 0l0 1c0 0 0 0 0 0-1 0-1 0-1 0l-1 1c0 0 0 0 0 0 0 0 0 0 0 0l-1 0c0 0 0 0 0 1-1 0-1 0-1 0l-1 0c0 0 0 0 0 0 0 0 0 0 0 0l-1 1c0 0 0 0 0 0-1 0-1 0-1 0l0 1c0 0-1 0-1 0 0 0 0 0 0 0l-1 1c0 0 0 0 0 0 0 0 0 0 0 0l-2 1c0 0 0 0 0 0 0 0 0 0 0 0l-1 0c0 0 0 0 0 0 0 1-1 1-1 1l0 0c0 0-1 0-1 0 0 0 0 0 0 0l-1 1c0 0 0 0 0 0 0 0 0 0-1 0l0 1c0 0 0 0-1 0 0 0 0 0 0 0l0 0 0 0-1 0c0 0 0 0 0 0 0 0 0 0 0 0l-1-1c0 0 0 0 0 0 0 0 0 0 0 0 0 0 0 0-1 0l-1 0 0 0c0 0 0-1 0-1 0 0 0 0 0 0l-1 0c0 0-1 0-1 0 0 0 0-1 0-1l0 0c0 0-1 0-1 0 0 0 0 0 0 0l0 0c0 0 0 0 0 0l-1-1c0 0 0 0 0 0 0 0-1 0-1 0l-1-1c0 0 0 0 0 0 0 0 0 0 0 0 0 0 0 0 0 0l-1 0 0 0c0 0 0 0 0 0l0 0c0 0 0 0 0 0 0 0 0 0 0 0l-1-1c0 0 0 0 0 0l0 0c-1 0-1 0-1 0 0 0 0 0 0 0 0 0 0 0 0 0l-1-1c0 0 0 0 0 0 0 0-1 0-1 0l0 0c0 0 0 0 0 0 0 0 0 0 0 0-1-1-1-1-1-1l0 0c0 0 0 0 0 0l-1 0 0 0c0 0 0 0 0 0 0 0 0 0 0 0 0 0 0 0 0 0l-2-1c0 0 0 0 0 0 0 0 0 0 0 0l-1-1 0 0c0 0 0 0 0 0l0 0c0 0 0 0 0 0 0 0 0 0 0 0 0 0 0 0 0 0l-1 0c0 0 0 0 0 0l0 0c0 0 0-1-1-1 0 0 0 0 0 0l-1 0c0 0 0 0 0 0 0 0 0 0 0-1l-1 0c0 0 0 0 0 0 0 0 0 0-1 0l0 0c0 0 0 0 0 0l-1-1c0 0 0 0 0 0 0 0 0 0 0 0l-1-1c0 0-1 0-1 0 0 0 0 0 0 0l0 0c0 0 0 0-1 0 0 0 0 0 0 0 0 0 0 0 0 0l0-1c0 0 0 0 0 0l-1 0 0 0c0 0 0 0 0 0l0 0c0 0 0 0 0 0 0 0 0 0-1 0l-1-1c0 0 0 0 0 0 0 0 0 0 0 0l-1 0c0 0 0 0 0-1 0 0 0 0 0 0l-1 0c0 0 0 0 0 0l0 0 0 0c-1 0-1 0-1 0 0 0 0 0 0 0 0 0 0 0 0 0l-1-1c0 0 0 0 0 0-1 0-1 0-1 0l0 0c-8-4-17-1-21 6-1 3-2 5-2 7 0 6 4 12 9 14z m67 115c0-9-7-16-16-16-9 0-16 7-16 16l0 0c0 0 0 1 0 1 0 0 0 0 0 0l0 1c0 0 0 0 0 0 0 0 0 1 0 1l0 1c0 0 0 0 0 0 0 0 0 0 0 1l0 0c0 0 0 1 0 1 0 0 0 0 0 0l0 1c0 0 0 0 0 0 0 0 0 1 0 1l0 1c0 0 0 0 0 0 0 0 0 0 0 0l0 1c0 0 0 1 0 1 0 0 0 0 0 0l0 1c0 0 0 0 0 0 0 0 0 0 0 1l0 1c0 0 0 0 0 0 0 0 0 0 0 0l0 1c0 0 0 0 0 1 0 0 0 0 0 0l0 1c0 0 0 0 0 0 0 0 0 0 0 1l0 1c0 0 0 0 0 0 0 0 0 0 0 0l0 1c0 0 0 0 0 1 0 0 0 0 0 0l0 1c0 0 0 0 0 0 0 0 0 0 0 0l0 2c0 0 0 0 0 0 0 0 0 0 0 0l0 1c0 0 0 0 0 1 0 0 0 0 0 0l0 1c0 0 0 0 0 0 0 0 0 0 0 0l0 2c0 0 0 0 0 0 0 0 0 0 0 0l0 1c0 0 0 0 0 0 0 1 0 1 0 1l0 1c0 0 0 0 0 0 0 0 0 0 0 0l0 2c0 0 0 0 0 0 0 0 0 0 0 0l0 1c0 0 0 0 0 0 0 1 0 1 0 1l0 1c0 0 0 0 0 0 0 0 0 0 0 0l0 2c0 0 0 0 0 0 0 0 0 0 0 0l0 1c0 0 0 0 0 0 0 1 0 1 0 1l0 1c0 0 0 0 0 0 0 0 0 0 0 0l0 1c0 1 0 1 0 1 0 0 0 0 0 0l0 1c0 0 0 0 0 0 0 1 0 1 0 1l0 1c0 0 0 0 0 0 0 0 0 0 0 0l0 1c0 0 0 1 0 1 0 0 0 0 0 0l0 0c0 9 7 16 16 16 9 0 16-7 16-16l0 0c0 0 0 0 0 0 0 0 0-1 0-1l0-1c0 0 0 0 0 0 0 0 0 0 0 0l0-1c0 0 0 0 0-1 0 0 0 0 0 0l0-1c0 0 0 0 0 0 0 0 0 0 0-1l0-1c0 0 0 0 0 0 0 0 0 0 0 0l0-1c0 0 0 0 0-1 0 0 0 0 0 0l0-1c0 0 0 0 0 0 0 0 0 0 0 0l0-2c0 0 0 0 0 0 0 0 0 0 0 0l0-1c0 0 0 0 0-1 0 0 0 0 0 0l0-1c0 0 0 0 0 0 0 0 0 0 0 0l0-2c0 0 0 0 0 0 0 0 0 0 0 0l0-1c0 0 0 0 0-1 0 0 0 0 0 0l0-1c0 0 0 0 0 0 0 0 0 0 0 0l0-2c0 0 0 0 0 0 0 0 0 0 0 0l0-1c0 0 0 0 0 0 0-1 0-1 0-1l0-1c0 0 0 0 0 0 0 0 0 0 0 0l0-2c0 0 0 0 0 0 0 0 0 0 0 0l0-1c0 0 0 0 0 0 0-1 0-1 0-1l0-1c0 0 0 0 0 0 0 0 0 0 0 0l0-2c0 0 0 0 0 0 0 0 0 0 0 0l0-1c0 0 0 0 0 0 0-1 0-1 0-1l0-1c0 0 0 0 0 0 0 0 0 0 0 0l0-1c0-1 0-1 0-1 0 0 0 0 0 0l0-1c0 0 0 0 0 0 0-1 0-1 0-1l0-1c0 0 0 0 0 0 0 0 0 0 0 0l0-1c0-1 0-1 0-1 0 0 0 0 0 0l0-1c0 0 0 0 0 0 0 0 0-1 0-1l0-1c0 0 0 0 0 0 0 0 0 0 0 0l0-1c0 0 0-1 0-1 0 0 0 0 0 0l0-1c0 0 0 0 0 0 0 0 0-1 0-1z m-94-166l0 0c0 0 0 0 0 0 0-1-1-1-1-1l-1 0c0 0 0 0 0 0 0 0 0 0 0 0l-1-1c0 0 0 0 0 0 0 0-1 0-1 0l0-1c0 0 0 0-1 0 0 0 0 0 0 0l-1 0c0 0 0-1 0-1 0 0 0 0 0 0l-1 0c0 0 0 0 0 0-1 0-1 0-1-1l0 0c-1 0-1 0-1 0 0 0 0 0 0 0l-1-1c0 0 0 0 0 0 0 0 0 0-1 0l0 0c0 0 0 0-1-1 0 0 0 0 0 0l-1 0c0 0 0 0 0 0 0 0 0 0 0 0l-1-1c0 0 0 0 0 0-1 0-1 0-1 0l0 0c0-1-1-1-1-1 0 0 0 0 0 0l-1 0c0 0 0 0 0 0 0-1 0-1 0-1l-1 0c0 0-1 0-1 0 0 0 0 0 0 0l0-1c-1 0-1 0-1 0 0 0 0 0 0 0l-1-1c0 0 0 0 0 0 0 0 0 0 0 0l-2 0c0 0 0-1 0-1 0 0 0 0 0 0l-1 0c0 0 0 0 0 0 0 0 0 0-1-1l0 0c0 0 0 0 0 0 0 0-1 0-1 0l-1-1c0 0 0 0 0 0 0 0 0 0 0 0l-1 0c0 0 0 0 0-1 0 0-1 0-1 0l0 0c0 0 0 0-1 0 0 0 0 0 0 0l-1-1c0 0 0 0 0 0 0 0 0 0 0 0l-1 0c0-1 0-1 0-1-1 0-1 0-1 0l0 0c-1 0-1 0-1 0 0-1 0-1 0-1l-1 0c0 0 0 0 0 0 0 0 0 0-1 0l0-1c0 0 0 0-1 0 0 0 0 0 0 0l0 0c-8-5-17-2-21 6-5 7-2 17 6 21l0 0c0 0 0 0 1 0 0 0 0 1 0 1l1 0c0 0 0 0 0 0 0 0 0 0 0 0l1 1c0 0 0 0 0 0 1 0 1 0 1 0l0 0c0 0 1 1 1 1 0 0 0 0 0 0l1 0c0 0 0 0 0 0 0 0 0 0 0 0l1 1c0 0 1 0 1 0 0 0 0 0 0 0l0 1c1 0 1 0 1 0 0 0 0 0 0 0l1 0c0 0 0 1 0 1 0 0 0 0 0 0l2 0c0 0 0 0 0 0 0 0 0 1 0 1l1 0c0 0 0 0 0 0 0 0 0 0 1 0l0 1c0 0 0 0 0 0 0 0 1 0 1 0l1 1c0 0 0 0 0 0 0 0 0 0 0 0l1 0c0 0 0 0 0 0 0 0 1 1 1 1l0 0c0 0 0 0 0 0 1 0 1 0 1 0l1 1c0 0 0 0 0 0 0 0 0 0 0 0l1 0c0 0 0 1 0 1 1 0 1 0 1 0l0 0c1 0 1 0 1 0 0 0 0 0 0 0l1 1c0 0 0 0 0 0 0 0 0 0 1 0l0 1c0 0 0 0 1 0 0 0 0 0 0 0l1 0c0 0 0 1 0 1 0 0 0 0 0 0l1 0c0 0 0 0 0 0 1 0 1 1 1 1l0 0c0 0 1 0 1 0 0 0 0 0 0 0l1 1c0 0 0 0 0 0 0 0 0 0 0 0l1 1c0 0 1 0 1 0 0 0 0 0 0 0l0 0c1 0 1 0 1 0 0 0 0 1 0 1l1 0c0 0 0 0 0 0 0 0 0 0 0 0l2 1c0 0 0 0 0 0 0 0 0 0 0 0l0 0c3 1 5 2 8 2 5 0 11-3 13-8 5-8 2-17-6-21z m-78-46l0-1c-1 0-1 0-1 0 0 0 0 0 0 0l-1 0c0 0 0-1 0-1 0 0-1 0-1 0l0 0c0 0-1 0-1 0 0 0 0 0 0-1l-1 0c0 0 0 0 0 0 0 0 0 0 0 0l-1-1c-1 0-1 0-1 0 0 0 0 0 0 0l-1 0c0 0 0 0 0 0 0-1-1-1-1-1l0 0c0 0 0 0-1 0 0 0 0 0 0 0l-1-1c0 0 0 0 0 0 0 0 0 0 0 0l-1 0c0-1 0-1-1-1 0 0 0 0 0 0l-1 0c0 0 0 0 0 0 0-1 0-1 0-1l-1 0c0 0 0 0-1 0 0 0 0 0 0 0l0-1c-1 0-1 0-1 0 0 0 0 0 0 0l-1-1c0 0 0 0 0 0 0 0 0 0 0 0 0 0 0 0 0 0l1 0c0 0 0 0 0 0 1-1 1-1 1-1l1 0c0 0 0 0 0 0 0 0 0 0 0 0l1-1c0 0 0 0 0 0 1 0 1 0 1 0l0-1c0 0 1 0 1 0 0 0 0 0 0 0l1-1c0 0 0 0 0 0 0 0 0 0 1 0l1 0c0 0 0-1 0-1 0 0 0 0 0 0l1 0c0 0 0 0 0 0 0 0 1-1 1-1l0 0c0 0 1 0 1 0 0 0 0 0 0 0l1-1c0 0 0 0 0 0 0 0 0 0 1 0l0 0c7-4 10-14 6-21-4-8-14-11-21-7l-1 1c0 0 0 0 0 0 0 0 0 0 0 0l-1 0c0 1 0 1-1 1 0 0 0 0 0 0l0 0c-1 0-1 0-1 0 0 1 0 1 0 1l-1 0c0 0 0 0 0 0 0 0 0 0-1 0l-1 1c0 0 0 0 0 0 0 0 0 0 0 0l-1 1c0 0 0 0 0 0 0 0-1 0-1 0l0 0c0 1-1 1-1 1 0 0 0 0 0 0l-1 0c0 0 0 0 0 1 0 0 0 0-1 0l0 0c0 0 0 0-1 0 0 0 0 0 0 1l-1 0c0 0 0 0 0 0 0 0 0 0 0 0l-1 1c0 0-1 0-1 0 0 0 0 0 0 0l0 0c-1 1-1 1-1 1 0 0 0 0-1 0l0 0c0 0 0 0 0 0 0 1-1 1-1 1l-1 0c0 0 0 0 0 0 0 0 0 1 0 1l-1 0c0 0 0 0 0 0-1 0-1 0-1 0l-1 1c0 0 0 0 0 0 0 0 0 0 0 0l-1 1c0 0 0 0 0 0-1 0-1 0-1 0l0 0c0 0-1 1-1 1 0 0 0 0 0 0l-1 0c0 0 0 0 0 0 0 0 0 0 0 1l-2 0c0 0 0 0 0 0 0 0 0 0 0 0l-1 1c0 0 0 0 0 0 0 0-1 0-1 0l0 1c0 0 0 0-1 0 0 0 0 0 0 0l-1 1c0 0 0 0 0 0 0 0 0 0 0 0l-1 0c0 0 0 0-1 0 0 1 0 1 0 1l-1 0c0 0 0 0 0 0 0 0 0 0 0 0l-1 1c0 0-1 0-1 0 0 0 0 0 0 0l0 1c-1 0-1 0-1 0 0 0 0 0-1 0l0 0c0 0 0 0 0 0l0 0c0 0 0 1 0 1-1 0-1 0-1 0 0 0 0 0 0 0 0 0 0 0 0 0-1 1-1 1-1 1 0 0 0 0 0 0 0 0 0 0 0 0-1 0-1 0-1 1 0 0 0 0 0 0 0 0 0 0 0 0 0 0 0 0 0 0-1 0-1 1-1 1 0 0 0 0 0 0 0 0 0 0 0 0-1 0-1 1-1 1 0 0 0 0 0 0 0 0 0 1 0 1 0 0-1 0-1 0 0 0 0 1 0 1 0 0 0 0 0 0 0 1-1 1-1 1 0 0 0 0 0 0 0 0 0 1 0 1 0 0 0 0 0 1 0 0 0 0 0 0 0 0 0 0 0 0 0 1-1 1-1 1 0 0 0 0 0 0 0 0 0 1 0 1 0 0 0 0 0 0 0 1 0 1 0 1 0 0 0 0 0 1 0 0 0 0 0 0 0 0 0 0 0 0l0 0c0 0 0 0 0 0l0 0c0 0 0 0 0 0 0 0 0 0 0 0 0 1 0 1 0 1 0 0 0 0 0 1l0 0c0 0 0 0 0 0 0 1 0 1 0 1l0 1c0 0 0 0 0 0 0 0 0 1 0 1l0 0c0 0 0 1 0 1 0 0 0 0 0 0l0 1c0 0 0 0 0 0 0 0 0 1 0 1l0 1c0 0 0 0 0 0 0 0 0 0 0 1l0 0c0 0 0 1 0 1 0 0 0 0 0 0l0 1c0 0 0 0 0 0 0 0 0 1 0 1l0 1c0 0 0 0 0 0 0 0 0 0 0 1l0 0c0 0 0 1 0 1 0 0 0 0 0 0l0 1c0 0 0 0 0 0 0 0 0 1 0 1l0 1c0 0 0 0 0 0 0 0 0 0 0 0l0 1c0 0 0 0 0 1 0 0 0 0 0 0l0 1c0 0 0 0 0 0 0 0 0 0 0 1l0 1c0 0 0 0 0 0 0 0 0 0 0 0l0 1c0 0 0 0 0 1 0 0 0 0 0 0l0 1c0 0 0 0 0 0 0 0 0 0 0 1l0 1c0 0 0 0 0 0 0 0 0 0 0 0l0 1c0 0 0 0 0 1 0 0 0 0 0 0l0 1c0 0 0 0 0 0 0 0 0 0 0 0l0 2c0 0 0 0 0 0 0 0 0 0 0 0l0 1c0 0 0 0 0 1 0 0 0 0 0 0l0 1c0 0 0 0 0 0 0 0 0 0 0 0l0 2c0 0 0 0 0 0 0 0 0 0 0 0l0 1c0 0 0 0 0 0 0 1 0 1 0 1l0 1c0 0 0 0 0 0 0 0 0 0 0 0l0 2c0 0 0 0 0 0 0 0 0 0 0 0l0 1c0 0 0 0 0 0 0 1 0 1 0 1l0 1c0 0 0 0 0 0 0 0 0 0 0 0l0 2c0 0 0 0 0 0 0 0 0 0 0 0l0 0c0 9 7 16 16 16 8 0 15-7 15-16l0 0c0 0 0 0 0 0 0 0 0 0 0 0l0-2c0 0 0 0 0 0 0 0 0 0 0 0l0-1c0 0 0 0 0-1 0 0 0 0 0 0l0-1c0 0 0 0 0 0 0 0 0 0 0 0l0-2c0 0 0 0 0 0 0 0 0 0 0 0l0-1c0 0 0 0 0-1 0 0 0 0 0 0l0-1c0 0 0 0 0 0 0 0 0 0 0 0l0-2c0 0 0 0 0 0 0 0 0 0 0 0l0-1c0 0 0 0 0-1 0 0 0 0 0 0l0-1c0 0 0 0 0 0 0 0 0 0 0 0l0-2c0 0 0 0 0 0 0 0 0 0 0 0l0-1c0 0 0 0 0 0 0-1 0-1 0-1l0-1c0 0 0 0 0 0 0 0 0 0 0 0l0-2c0 0 0 0 0 0 0 0 0 0 0 0l0-1c0 0 0 0 0 0 0 0 0-1 0-1 0 0 0 0 0 0 1 1 1 1 1 1l1 0c0 0 0 0 0 0 0 0 0 0 0 0l1 1c0 0 0 0 1 0 0 0 0 0 0 0l0 0c1 1 1 1 1 1 0 0 0 0 0 0l1 0c0 0 0 0 0 0 0 0 0 1 1 1l1 0c0 0 0 0 0 0 0 0 0 0 0 0l1 1c0 0 0 0 0 0 0 0 1 0 1 0l0 1c0 0 1 0 1 0 0 0 0 0 0 0l1 0c0 0 0 0 0 1 0 0 0 0 1 0l0 0c0 0 0 0 1 0 0 0 0 0 0 1l1 0c0 0 0 0 0 0 0 0 0 0 0 0l1 1c1 0 1 0 1 0 0 0 0 0 0 0l1 0c0 0 0 0 0 0 0 1 0 1 1 1l0 0c0 0 0 0 0 0 1 0 1 0 1 0l1 1c0 0 0 0 0 0 0 0 0 0 0 0l1 0c2 1 4 2 7 2 5 0 11-3 14-9 4-7 0-17-7-20z m237 75c2 0 5-1 7-2l0 0c1 0 1 0 1 0 0 0 0 0 0 0l1-1c0 0 0 0 0 0 0 0 0 0 1 0l0-1c0 0 1 0 1 0 0 0 0 0 0 0l1-1c0 0 0 0 0 0 0 0 0 0 0 0l1 0c1-1 1-1 1-1 0 0 0 0 0 0l1 0c0 0 0 0 0 0 0-1 0-1 1-1l0 0c0 0 0 0 0 0 1 0 1 0 1 0l1-1c0 0 0 0 0 0 0 0 0 0 0 0l1-1c0 0 0 0 0 0 1 0 1 0 1 0l1 0c0 0 0-1 0-1 0 0 0 0 0 0l1 0c0 0 0 0 1-1 0 0 0 0 0 0l0 0c1 0 1 0 1 0 0 0 0 0 0-1l1 0c0 0 0 0 0 0 0 0 0 0 1 0l1-1c0 0 0 0 0 0 0 0 0 0 0 0l1 0c0-1 0-1 0-1 0 0 1 0 1 0l0 0c0 0 1 0 1 0 0-1 0-1 0-1l1 0c0 0 0 0 0 0 0 0 0 0 1-1l0 0c0 0 0 0 1 0 0 0 0 0 0 0l1-1c0 0 0 0 0 0 0 0 0 0 0 0l1-1c0 0 1 0 1 0 0 0 0 0 0 0l0 0c1 0 1 0 1-1 0 0 0 0 1 0l0 0c0 0 0 0 0 0 0 0 1 0 1 0l1-1c0 0 0 0 0 0 0 0 0 0 0 0l1-1c0 0 0 0 0 0 1 0 1 0 1 0l1-1c0 0 0 0 0 0 0 0 0 0 0 0l1-1c0 0 0 0 0 0 1 0 1 0 1 0l0 0c0 0 1 0 1-1 0 0 0 0 0 0l1 0c7-4 10-14 6-21-4-8-14-10-21-6l-1 0c0 0 0 0 0 0 0 0-1 1-1 1l0 0c0 0-1 0-1 0 0 0 0 0 0 0l-1 1c0 0 0 0 0 0 0 0 0 0-1 0l0 0c0 1 0 1-1 1 0 0 0 0 0 0l-1 0c0 0 0 0 0 1 0 0 0 0 0 0l-1 0c-1 0-1 0-1 0 0 0 0 1 0 1l-1 0c0 0 0 0 0 0 0 0 0 0-1 0l0 1c0 0 0 0 0 0-1 0-1 0-1 0l-1 1c0 0 0 0 0 0 0 0 0 0 0 0l-1 0c0 0 0 1 0 1-1 0-1 0-1 0l-1 0c0 0 0 0 0 0 0 0 0 0 0 1l-1 0c0 0 0 0 0 0-1 0-1 0-1 0l0 1c0 0-1 0-1 0 0 0 0 0 0 0l-1 1c0 0 0 0 0 0 0 0 0 0 0 0l-2 1c0 0 0 0 0 0 0 0 0 0 0 0l-1 0c0 0 0 0 0 0 0 1-1 1-1 1l0 0c0 0-1 0-1 0 0 0 0 0 0 0l-1 1c0 0 0 0 0 0 0 0 0 0-1 0l0 1c0 0 0 0-1 0 0 0 0 0 0 0l-1 1c0 0 0 0 0 0 0 0 0 0 0 0l-1 0c0 0-1 1-1 1 0 0 0 0 0 0l0 0c-1 0-1 0-1 0 0 0 0 1-1 1l0 0c0 0 0 0 0 0 0 0-1 0-1 0l-1 1c0 0 0 0 0 0 0 0 0 0 0 0l-1 0c0 1 0 1 0 1-1 0-1 0-1 0l0 0c-1 0-1 0-1 1 0 0 0 0 0 0l-1 0c0 0 0 0 0 0-1 1-1 1-1 1l0 0c-8 4-10 13-6 21 3 5 8 8 14 8z m-49 251l0 1c0 0-1 0-1 0 0 0 0 0 0 0l-1 0c0 1 0 1 0 1 0 0 0 0-1 0l-1 0c0 0 0 1 0 1 0 0 0 0 0 0l-1 0c0 0 0 0 0 0 0 0-1 1-1 1l0 0c0 0-1 0-1 0 0 0 0 0 0 0l-1 1c0 0 0 0 0 0 0 0 0 0-1 0l0 0c0 1 0 1-1 1 0 0 0 0 0 0l-1 0c0 0 0 0 0 1 0 0 0 0 0 0l-1 0c0 0-1 0-1 0 0 0 0 1 0 1l0 0c-1 0-1 0-1 0 0 0 0 0-1 0l0 1c0 0 0 0 0 0-1 0-1 0-1 0l0 1 0-1c0 0 0 0 0 0 0 0 0 0 0-1l0 0c0 0 0-1 0-1 0 0 0 0 0 0l0-1c0 0 0 0 0 0 0 0 0-1 0-1l0-1c0 0 0 0 0 0 0 0 0 0 0 0l0-1c0 0 0 0 0-1 0 0 0 0 0 0l0-1c0 0 0 0 0 0 0 0 0 0 0-1l0-1c0 0 0 0 0 0 0 0 0 0 0 0l0-1c0 0 0 0 0-1 0 0 0 0 0 0l0-1c0 0 0 0 0 0 0 0 0 0 0-1l0-1c0 0 0 0 0 0 0 0 0 0 0 0l0-1c0 0 0 0 0-1 0 0 0 0 0 0l0-1c0 0 0 0 0 0 0 0 0 0 0 0l0-2c0 0 0 0 0 0 0 0 0 0 0 0l0-1c0 0 0 0 0-1 0 0 0 0 0 0l0 0c0-9-7-16-16-16-9 0-16 7-16 16l0 0c0 0 0 0 0 0 0 1 0 1 0 1l0 1c0 0 0 0 0 0 0 0 0 0 0 0l0 2c0 0 0 0 0 0 0 0 0 0 0 0l0 1c0 0 0 0 0 0 0 1 0 1 0 1l0 1c0 0 0 0 0 0 0 0 0 0 0 0l0 2c0 0 0 0 0 0 0 0 0 0 0 0l0 1c0 0 0 0 0 0 0 1 0 1 0 1l0 1c0 0 0 0 0 0 0 0 0 0 0 0l0 1c0 1 0 1 0 1 0 0 0 0 0 0l0 1c0 0 0 0 0 0 0 1 0 1 0 1l0 1c0 0 0 0 0 0 0 0 0 0 0 0l0 1c0 1 0 1 0 1 0 0 0 0 0 0l0 1c0 0 0 0 0 0 0 0 0 1 0 1l0 0c0 1 0 1 0 1 0 0 0 0 0 0l0 1c0 0 0 0 0 1 0-1 0-1 0-1l0 0c0 0 0 0 0 0l-1 0c0 0 0 0 0 0 0 0 0 0 0 0l-1-1c-1 0-1 0-1 0 0 0 0 0 0 0l-1-1c0 0 0 0 0 0 0 0 0 0 0 0 0 0 0 0 0 0l-1 0 0 0c0 0 0 0 0 0l0 0c0 0 0 0 0 0 0 0 0 0-1 0 0-1 0-1 0-1l-1 0c0 0 0 0 0 0 0 0 0 0 0 0l-1-1 0 0c0 0 0 0 0 0l0 0c0 0 0 0 0 0 0 0 0 0 0 0 0 0 0 0-1 0l0 0c0 0 0 0 0 0l-1-1c0 0 0 0 0 0 0 0 0 0 0 0l-1 0c0 0 0-1-1-1 0 0 0 0 0 0l0 0c-1 0-1 0-1 0 0 0 0 0 0 0l0-1c0 0-1 0-1 0l0 0c0 0 0 0 0 0 0 0-1 0-1 0l-1-1c0 0 0 0 0 0 0 0 0 0 0 0l-1 0c0 0 0 0 0 0 0 0 0 0 0-1l-1 0c-1 0-1 0-1 0 0 0 0 0 0 0 0 0 0 0 0 0l-1-1c0 0 0 0 0 0-1 0-1 0-1 0l0 0c-8-4-17-1-21 6-1 3-2 5-2 8 0 5 3 11 9 13l0 1c0 0 0 0 0 0 1 0 1 0 1 0l0 0c0 0 0 0 0 0l1 0c0 0 0 0 0 1 0 0 0 0 0 0l1 0c1 0 1 0 1 0 0 0 0 0 0 0 0 0 0 0 0 1l1 0c0 0 0 0 0 0 0 0 0 0 0 0l1 0c0 0 0 0 0 0l0 1 0 0c0 0 0 0 0 0l0 0c0 0 0 0 0 0 1 0 1 0 1 0l1 0c0 1 0 1 0 1 0 0 0 0 0 0l1 0c0 0 0 0 0 0 0 0 0 0 0 0 0 0 0 0 1 0l0 1c0 0 0 0 0 0l1 0c0 0 0 0 0 0 0 0 0 0 0 0l1 1c0 0 0 0 1 0 0 0 0 0 0 0l0 0c0 0 1 0 1 0 0 0 0 1 0 1l0 0c0 0 0 0 1 0l0 0c0 0 0 0 0 0 0 0 0 0 1 0l1 1c0 0 0 0 0 0 0 0 0 0 0 0l1 1c0 0 0 0 0 0 0 0 0 0 0 0l1 0c0 0 0 0 0 0l0 0c1 0 1 0 1 1 0 0 0 0 0 0l1 0c0 0 0 0 0 0 0 0 1 0 1 0l0 1c0 0 0 0 0 0 0 0 0 0 0 0 1 0 1 0 1 0l0 0c0 0 0 0 0 0l1 1c0 0 0 0 0 0 0 0 0 0 0 0l1 0c1 0 1 1 1 1 0 0 0 0 0 0l1 0c0 0 0 0 0 0 0 0 0 0 0 0 0 0 0 0 0 0l1 1 0 0c0 0 0 0 0 0l0 0c0 0 0 0 0 0 0 0 0 0 1 0 0 0 0 0 0 0l1 1c0 0 0 0 0 0 0 0 0 0 0 0l1 0c0 0 0 0 0 0 0 0 0 0 1 1l0 0c0 0 0 0 0 0l1 0c0 0 0 0 0 0 0 0 0 0 0 0l1 1c0 0 0 0 1 0 0 0 0 0 0 0l0 0c0 1 1 1 1 1 0 0 0 0 0 0l0 0c0 0 0 0 1 0l0 0 0 0c0 0 0 0 0 0l0 0c0 0 0 0 0 0 0 0 0 1 1 1l1 0c0 0 0 0 0 0 0 0 0 0 0 0l1 1c0 0 0 0 0 0 0 0 0 0 0 0l1 0 0 1c1 0 1 0 1 0 0 0 0 0 0 0l1 0c0 0 0 0 0 1 0 0 0 0 0 0 1 0 1 0 1 0 0 0 0 0 0 0l0 0c0 0 0 0 0 0 1 0 1 0 1 0 0 1 1 1 1 1 0 0 0 0 0 0 0 0 1 0 1 0 0 0 0 0 1 0 0 0 0 0 1 0 0 0 0 0 0 0 1 0 1 1 2 1 0 0 0 0 0 0 0 0 0 0 0 0 1 0 1-1 2-1 0 0 0 0 0 0 0 0 0 0 0 0 1 0 1 0 2 0 0 0 0 0 0 0 0 0 0 0 0 0 1 0 1 0 1 0 1-1 1-1 1-1 0 0 1 0 2 0 0 0 0 0 0 0l0-1c0 0 0 0 0 0 0 0 0 0 0 0 0 0 0 0 0 0 0 0 0 0 0 0l1-1c1 0 1 0 1 0 0 0 0 0 0 0l1 0c0 0 0 0 0 0 0-1 0-1 1-1l0 0c0 0 0 0 1 0 0 0 0 0 0 0l1-1c0 0 0 0 0 0 0 0 0 0 0 0l1-1c0 0 0 0 1 0 0 0 0 0 0 0l1 0c0 0 0-1 0-1 0 0 0 0 0 0l1 0c0 0 0 0 1 0 0-1 0-1 0-1l0 0c1 0 1 0 1 0 0 0 0 0 0-1l1 0c0 0 0 0 0 0 0 0 0 0 1 0l1-1c0 0 0 0 0 0 0 0 0 0 0 0l1 0c0 0 0-1 0-1 0 0 1 0 1 0l0 0c0 0 1 0 1 0 0 0 0-1 0-1l1 0c0 0 0 0 0 0 0 0 0 0 1-1l0 0c0 0 0 0 1 0 0 0 0 0 0 0l1-1c0 0 0 0 0 0 0 0 0 0 0 0l1-1c1 0 1 0 1 0 0 0 0 0 0 0l1 0c0 0 0 0 0-1 0 0 0 0 1 0l0 0c0 0 0 0 0 0 1 0 1 0 1 0l1-1c0 0 0 0 0 0 0 0 0 0 0 0l1-1c0 0 0 0 0 0 1 0 1 0 1 0l1-1c0 0 0 0 0 0 0 0 0 0 0 0l1-1c0 0 0 0 0 0 1 0 1 0 1 0l0 0c0 0 1 0 1 0 0-1 0-1 0-1l1 0c0 0 0 0 0 0 0 0 0 0 0 0l2-1c0 0 0 0 0 0 0 0 0 0 0 0l1-1c0 0 0 0 0 0 0 0 1 0 1 0l0 0c8-4 10-14 6-21-4-8-13-11-21-7z m188-70c0 0 0 0 0 0 0-1 1-1 1-1 0 0 0 0 0-1 0 0 0 0 0 0 0-1 1-1 1-1 0 0 0 0 0-1 0 0 0 0 0-1 0 0 0 0 0 0 0 0 0-1 1-1 0 0 0 0 0-1 0 0 0 0 0 0 0-1 0-1 0-2 0 0 0 0 0 0l0 0c0 0 0 0 0 0l0 0c0 0 0 0 0-1 0 0 0 0 0 0l0-1c0 0 0 0 0 0 0-1 0-1 0-1l0 0c0-1 0-1 0-1 0 0 0 0 0-1l0 0c0 0 0 0 0-1 0 0 0 0 0 0l0-1c0 0 0 0 0 0 0 0 0-1 0-1l0 0c0-1 0-1 0-1 0 0 0 0 0-1l0 0c0 0 0 0 0 0 0-1 0-1 0-1l0-1c0 0 0 0 0 0 0 0 0-1 0-1l0 0c0 0 0-1 0-1 0 0 0 0 0-1l0 0c0 0 0 0 0 0 0-1 0-1 0-1l0-1c0 0 0 0 0 0 0 0 0 0 0-1l0 0c0 0 0-1 0-1 0 0 0 0 0 0l0-1c0 0 0 0 0 0 0 0 0-1 0-1l0-1c0 0 0 0 0 0 0 0 0 0 0-1l0 0c0 0 0-1 0-1 0 0 0 0 0 0l0-1c0 0 0 0 0 0 0 0 0-1 0-1l0-1c0 0 0 0 0 0 0 0 0 0 0 0l0-1c0 0 0-1 0-1 0 0 0 0 0 0l0-1c0 0 0 0 0 0 0 0 0 0 0-1l0-1c0 0 0 0 0 0 0 0 0 0 0 0l0-1c0 0 0 0 0-1 0 0 0 0 0 0l0-1c0 0 0 0 0 0 0 0 0 0 0-1l0-1c0 0 0 0 0 0 0 0 0 0 0 0l0-1c0 0 0 0 0-1 0 0 0 0 0 0l0-1c0 0 0 0 0 0 0 0 0 0 0 0l0-2c0 0 0 0 0 0 0 0 0 0 0 0l0-1c0 0 0 0 0-1 0 0 0 0 0 0l0-1c0 0 0 0 0 0 0 0 0 0 0 0l0-2c0 0 0 0 0 0 0 0 0 0 0 0l0-1c0 0 0 0 0 0 0-1 0-1 0-1l0 0c0-9-7-16-16-16-8 0-15 7-15 16l0 0c0 0 0 0 0 1 0 0 0 0 0 0l0 1c0 0 0 0 0 0 0 0 0 0 0 0l0 2c0 0 0 0 0 0 0 0 0 0 0 0l0 1c0 0 0 0 0 0 0 1 0 1 0 1l0 1c0 0 0 0 0 0 0 0 0 0 0 0l0 2c0 0 0 0 0 0 0 0 0 0 0 0l0 1c0 0 0 0 0 0 0 1 0 1 0 1l0 1c0 0 0 0 0 0 0 0 0 0 0 0l0 2c0 0 0 0 0 0 0 0 0 0 0 0l0 1c0 0 0 0 0 0 0 1 0 1 0 1l0 1c0 0 0 0 0 0 0 0 0 0 0 0l0 1c0 1 0 1 0 1 0 0 0 0 0 0l0 1c0 0 0 0 0 0 0 1 0 1 0 1l0 1c0 0 0 0 0 0 0 0 0 0 0 0l0 1c0 1 0 1 0 1 0 0 0 0 0 0l0 1c0 0 0 0 0 0 0 0 0 1 0 1l0 1c0 0 0 0 0 0 0 0 0 0 0 0l0 1c0 0 0 1 0 1 0 0 0 0 0 0l0 1c0 0 0 0 0 0 0 0 0 1 0 1l0 0c0 1 0 1 0 1 0 0 0 0 0 0l0 1c0 0 0 1 0 1 0 0 0 0 0 0l0 1c0 0 0 0 0 0 0 0 0 1 0 1l0 0c0 1 0 1 0 1 0 0 0 0 0 0l0 1c0 0 0 0 0 1 0 0 0 0 0 0l0 0c0 1 0 1 0 1 0 0 0 0-1 0 0 0 0 0 0 0l0 0c-1 1-1 1-1 1 0 0 0 0 0 0l-1 0c0 0 0 0 0 1 0 0 0 0-1 0l-1 0c0 0 0 0 0 0 0 0 0 1 0 1l-1 0c0 0 0 0 0 0 0 0-1 0-1 1l0 0c0 0-1 0-1 0 0 0 0 0 0 0l-1 1c0 0 0 0 0 0 0 0 0 0-1 0l0 0c0 0-1 1-1 1 0 0 0 0 0 0l-1 0c0 0 0 0 0 0 0 0 0 1 0 1l-1 0c-1 0-1 0-1 0 0 0 0 0 0 0l0 1c-1 0-1 0-1 0 0 0 0 0-1 0l0 1c0 0 0 0 0 0-1 0-1 0-1 0l-1 1c0 0 0 0 0 0 0 0 0 0 0 0l-1 0c0 0 0 0 0 1-1 0-1 0-1 0l-1 0c0 0 0 0 0 0 0 0 0 0 0 0l-1 1c0 0 0 0 0 0-1 0-1 0-1 0l0 1c0 0-1 0-1 0 0 0 0 0 0 0l-1 1c0 0 0 0 0 0 0 0 0 0 0 0l-2 0c0 1 0 1 0 1 0 0 0 0 0 0l-1 0c0 0 0 0 0 0 0 0-1 1-1 1l0 0c0 0-1 0-1 0 0 0 0 0 0 0l-1 1c0 0 0 0 0 0 0 0 0 0 0 0l-1 0c-7 4-10 14-6 21 3 6 8 9 14 9 2 0 5-1 7-2l1-1c0 0 0 0 0 0 0 0 0 0 0 0l1 0c0-1 0-1 1-1 0 0 0 0 0 0l0 0c1 0 1 0 1 0 0 0 0-1 0-1l1 0c0 0 0 0 0 0 0 0 0 0 1 0l1-1c0 0 0 0 0 0 0 0 0 0 0 0l1-1c0 0 0 0 0 0 0 0 1 0 1 0l0 0c0 0 1-1 1-1 0 0 0 0 0 0l1 0c0 0 0 0 0 0 0-1 0-1 1-1l0 0c0 0 0 0 1 0 0 0 0 0 0-1l1 0c0 0 0 0 0 0 0 0 0 0 0 0l1-1c0 0 1 0 1 0 0 0 0 0 0 0l1 0c0 0 0-1 0-1 0 0 0 0 1 0l0 0c0 0 0 0 0 0 1-1 1-1 1-1l1 0c0 0 0 0 0 0 0 0 0 0 0 0l1-1c0 0 0 0 0 0 1 0 1 0 1 0l1-1c0 0 0 0 0 0 0 0 0 0 0 0l1-1c0 0 0 0 0 0 1 0 1 0 1 0l0 0c0 0 1 0 1-1 0 0 0 0 0 0l1 0c0 0 0 0 0 0 0 0 0 0 0 0l2-1c0 0 0 0 0 0 0 0 0 0 0 0l1-1c0 0 0 0 0 0 0 0 1 0 1 0l0-1c0 0 0 0 1 0 0 0 0 0 0 0l1 0c0-1 0-1 0-1 0 0 0 0 0 0l1 0c0 0 0 0 1 0 0-1 0-1 0-1l1 0c0 0 0 0 0 0 0 0 0 0 0 0l1-1c0 0 0 0 1 0 0 0 0 0 0 0l0-1c1 0 1 0 1 0 0 0 0 0 0 0l1 0c0 0 0 0 0 0l0 0c0 0 0 0 0 0 0-1 1-1 1-1 0 0 0 0 1 0 0-1 0-1 0-1 0 0 1 0 1-1 0 0 0 0 0 0 1 0 1 0 1-1 0 0 0 0 0 0 1 0 1-1 1-1z m-107 24l-1 0c0 0 0 0 0 0 0 0-1 1-1 1l0 0c0 0-1 0-1 0 0 0 0 0 0 0l-1 1c0 0 0 0 0 0 0 0 0 0-1 0l0 0c0 1 0 1-1 1 0 0 0 0 0 0l-1 0c0 0 0 1 0 1 0 0 0 0 0 0l-1 0c-1 0-1 0-1 0 0 1 0 1 0 1l-1 0c0 0 0 0 0 0 0 0 0 0-1 1l0 0c0 0 0 0 0 0-1 0-1 0-1 0l-1 1c0 0 0 0 0 0 0 0 0 0 0 0l-1 0c0 0 0 1 0 1-1 0-1 0-1 0l-1 0c0 0 0 0 0 0 0 0 0 1 0 1l-1 0c0 0 0 0 0 0-1 0-1 0-1 1l0 0c0 0-1 0-1 0 0 0 0 0 0 0l-1 1c0 0 0 0 0 0 0 0 0 0-1 0l-1 1c0 0 0 0 0 0 0 0 0 0 0 0l-1 0c0 0 0 0 0 1 0 0-1 0-1 0l0 0c0 0-1 0-1 0 0 0 0 0 0 0l-1 1c0 0 0 0 0 0 0 0 0 0-1 0l0 1c0 0 0 0-1 0 0 0 0 0 0 0l-1 1c0 0 0 0 0 0 0 0 0 0 0 0l-1 0c0 1-1 1-1 1 0 0 0 0 0 0l0 0c-1 0-1 0-1 0 0 1 0 1-1 1l0 0c0 0 0 0 0 0 0 0-1 0-1 0l-1 1c0 0 0 0 0 0 0 0 0 0 0 0l-1 1c0 0 0 0 0 0-1 0-1 0-1 0l0 0c-1 0-1 1-1 1 0 0 0 0 0 0l-1 0c0 0 0 0 0 1 0 0-1 0-1 0l0 0c-7 4-10 13-6 21 3 5 8 8 14 8 2 0 5-1 7-2l0 0c0 0 1 0 1 0 0 0 0 0 0 0l1-1c0 0 0 0 0 0 0 0 1 0 1 0l0-1c0 0 1 0 1 0 0 0 0 0 0 0l1-1c0 0 0 0 0 0 0 0 0 0 0 0l1 0c1 0 1-1 1-1 0 0 0 0 0 0l1 0c0 0 0 0 0 0 0 0 0-1 1-1l0 0c0 0 0 0 0 0 1 0 1 0 1 0l1-1c0 0 0 0 0 0 0 0 0 0 0 0l1 0c0-1 0-1 0-1 1 0 1 0 1 0l1 0c0 0 0 0 0-1 0 0 0 0 0 0l1 0c0 0 0 0 1 0 0-1 0-1 0-1l0 0c0 0 1 0 1 0 0 0 0 0 0-1l1 0c0 0 0 0 0 0 0 0 0 0 1 0l1-1c0 0 0 0 0 0 0 0 0 0 0 0l1 0c0 0 0-1 0-1 0 0 1 0 1 0l0 0c0 0 1 0 1 0 0 0 0 0 0-1l1 0c0 0 0 0 0 0 0 0 0 0 1 0l0-1c0 0 0 0 1 0 0 0 0 0 0 0l1-1c0 0 0 0 0 0 0 0 0 0 0 0l1-1c0 0 1 0 1 0 0 0 0 0 0 0l0 0c1 0 1 0 1-1 0 0 0 0 1 0l0 0c0 0 0 0 0 0 1 0 1 0 1 0l1-1c0 0 0 0 0 0 0 0 0 0 0 0l1-1c0 0 0 0 0 0 1 0 1 0 1 0l1-1c0 0 0 0 0 0 0 0 0 0 0 0l1 0c0-1 0-1 0-1 1 0 1 0 1 0l0 0c0 0 1 0 1 0 0-1 0-1 0-1l1 0c7-4 10-13 6-21-4-8-14-10-21-6z m110-183c0-9-7-16-16-16-8 0-15 7-15 16l0 0c0 0 0 1 0 1 0 0 0 0 0 1l0 0c0 0 0 0 0 0 0 1 0 1 0 1l0 1c0 0 0 0 0 0 0 0 0 1 0 1l0 0c0 0 0 1 0 1 0 0 0 0 0 0l0 1c0 0 0 0 0 0 0 0 0 1 0 1l0 1c0 0 0 0 0 0 0 0 0 0 0 1l0 0c0 0 0 1 0 1 0 0 0 0 0 0l0 1c0 0 0 0 0 0 0 0 0 1 0 1l0 1c0 0 0 0 0 0 0 0 0 0 0 0l0 1c0 0 0 1 0 1 0 0 0 0 0 0l0 1c0 0 0 0 0 0 0 0 0 0 0 1l0 1c0 0 0 0 0 0 0 0 0 0 0 0l0 1c0 0 0 0 0 1 0 0 0 0 0 0l0 1c0 0 0 0 0 0 0 0 0 0 0 1l0 1c0 0 0 0 0 0 0 0 0 0 0 0l0 1c0 0 0 0 0 1 0 0 0 0 0 0l0 1c0 0 0 0 0 0 0 0 0 0 0 0l0 2c0 0 0 0 0 0 0 0 0 0 0 0l0 1c0 0 0 0 0 1 0 0 0 0 0 0l0 1c0 0 0 0 0 0 0 0 0 0 0 0l0 2c0 0 0 0 0 0 0 0 0 0 0 0l0 1c0 0 0 0 0 1 0 0 0 0 0 0l0 1c0 0 0 0 0 0 0 0 0 0 0 0l0 2c0 0 0 0 0 0 0 0 0 0 0 0l0 1c0 0 0 0 0 0 0 1 0 1 0 1l0 1c0 0 0 0 0 0 0 0 0 0 0 0l0 2c0 0 0 0 0 0 0 0 0 0 0 0l0 1c0 0 0 0 0 0 0 1 0 1 0 1l0 1c0 0 0 0 0 0 0 0 0 0 0 0l0 1c0 1 0 1 0 1 0 0 0 0 0 0l0 0c0 9 7 16 15 16 9 0 16-7 16-16l0 0c0 0 0 0 0 0 0 0 0 0 0-1l0-1c0 0 0 0 0 0 0 0 0 0 0 0l0-1c0 0 0 0 0-1 0 0 0 0 0 0l0-1c0 0 0 0 0 0 0 0 0 0 0 0l0-2c0 0 0 0 0 0 0 0 0 0 0 0l0-1c0 0 0 0 0-1 0 0 0 0 0 0l0-1c0 0 0 0 0 0 0 0 0 0 0 0l0-2c0 0 0 0 0 0 0 0 0 0 0 0l0-1c0 0 0 0 0-1 0 0 0 0 0 0l0-1c0 0 0 0 0 0 0 0 0 0 0 0l0-2c0 0 0 0 0 0 0 0 0 0 0 0l0-1c0 0 0 0 0 0 0-1 0-1 0-1l0-1c0 0 0 0 0 0 0 0 0 0 0 0l0-2c0 0 0 0 0 0 0 0 0 0 0 0l0-1c0 0 0 0 0 0 0-1 0-1 0-1l0-1c0 0 0 0 0 0 0 0 0 0 0 0l0-2c0 0 0 0 0 0 0 0 0 0 0 0l0-1c0 0 0 0 0 0 0-1 0-1 0-1l0-1c0 0 0 0 0 0 0 0 0 0 0 0l0-1c0-1 0-1 0-1 0 0 0 0 0 0l0-1c0 0 0 0 0 0 0-1 0-1 0-1l0-1c0 0 0 0 0 0 0 0 0 0 0 0l0-1c0 0 0-1 0-1 0 0 0 0 0 0l0-1c0 0 0 0 0 0 0 0 0-1 0-1l0 0c0-1 0-1 0-1 0 0 0 0 0 0l0-1c0 0 0-1 0-1 0 0 0 0 0 0l0-1c0 0 0 0 0 0 0 0 0-1 0-1l0 0c0-1 0-1 0-1 0 0 0 0 0 0l0-1c0 0 0 0 0-1 0 0 0 0 0 0l0-1c0 0 0 0 0 0 0 0 0-1 0-1z m-446 49c0 9 7 16 16 16 8 0 15-7 15-16l0 0c0 0 0 0 0 0 0 0 0 0 0-1l0-1c0 0 0 0 0 0 0 0 0 0 0 0l0-1c0 0 0 0 0-1 0 0 0 0 0 0l0-1c0 0 0 0 0 0 0 0 0 0 0-1l0-1c0 0 0 0 0 0 0 0 0 0 0 0l0-1c0 0 0 0 0-1 0 0 0 0 0 0l0-1c0 0 0 0 0 0 0 0 0 0 0 0l0-2c0 0 0 0 0 0 0 0 0 0 0 0l0-1c0 0 0 0 0-1 0 0 0 0 0 0l0-1c0 0 0 0 0 0 0 0 0 0 0 0l0-2c0 0 0 0 0 0 0 0 0 0 0 0l0-1c0 0 0 0 0 0 0-1 0-1 0-1l0-1c0 0 0 0 0 0 0 0 0 0 0 0l0-2c0 0 0 0 0 0 0 0 0 0 0 0l0-1c0 0 0 0 0 0 0-1 0-1 0-1l0-1c0 0 0 0 0 0 0 0 0 0 0 0l0-2c0 0 0 0 0 0 0 0 0 0 0 0l0-1c0 0 0 0 0 0 0-1 0-1 0-1l0-1c0 0 0 0 0 0 0 0 0 0 0 0l0-1c0-1 0-1 0-1 0 0 0 0 0 0l0-1c0 0 0 0 0 0 0-1 0-1 0-1l0-1c0 0 0 0 0 0 0 0 0 0 0 0l0-1c0 0 0-1 0-1 0 0 0 0 0 0l0-1c0 0 0 0 0 0 0 0 0-1 0-1l0 0c0-1 0-1 0-1 0 0 0 0 0 0l0-1c0 0 0-1 0-1 0 0 0 0 0 0l0-1c0 0 0 0 0 0 0 0 0-1 0-1l0 0c0-1 0-1 0-1 0 0 0 0 0 0l0-1c0 0 0 0 0-1 0 0 0 0 0 0l0-1c0 0 0 0 0 0 0 0 0-1 0-1l0 0c0-9-7-16-15-16-9 0-16 7-16 16l0 0c0 0 0 1 0 1 0 0 0 0 0 0l0 1c0 0 0 0 0 0 0 1 0 1 0 1l0 1c0 0 0 0 0 0 0 0 0 0 0 1l0 0c0 0 0 1 0 1 0 0 0 0 0 0l0 1c0 0 0 0 0 0 0 0 0 1 0 1l0 1c0 0 0 0 0 0 0 0 0 0 0 1l0 0c0 0 0 1 0 1 0 0 0 0 0 0l0 1c0 0 0 0 0 0 0 0 0 1 0 1l0 1c0 0 0 0 0 0 0 0 0 0 0 0l0 1c0 0 0 1 0 1 0 0 0 0 0 0l0 1c0 0 0 0 0 0 0 0 0 0 0 1l0 1c0 0 0 0 0 0 0 0 0 0 0 0l0 1c0 0 0 0 0 1 0 0 0 0 0 0l0 1c0 0 0 0 0 0 0 0 0 0 0 0l0 2c0 0 0 0 0 0 0 0 0 0 0 0l0 1c0 0 0 0 0 1 0 0 0 0 0 0l0 1c0 0 0 0 0 0 0 0 0 0 0 0l0 2c0 0 0 0 0 0 0 0 0 0 0 0l0 1c0 0 0 0 0 1 0 0 0 0 0 0l0 1c0 0 0 0 0 0 0 0 0 0 0 0l0 2c0 0 0 0 0 0 0 0 0 0 0 0l0 1c0 0 0 0 0 0 0 1 0 1 0 1l0 1c0 0 0 0 0 0 0 0 0 0 0 0l0 2c0 0 0 0 0 0 0 0 0 0 0 0l0 1c0 0 0 0 0 0 0 1 0 1 0 1l0 1c0 0 0 0 0 0 0 0 0 0 0 0l0 2c0 0 0 0 0 0 0 0 0 0 0 0l0 1c0 0 0 0 0 0 0 1 0 1 0 1l0 1c0 0 0 0 0 0 0 0 0 0 0 0l0 1c0 1 0 1 0 1 0 0 0 0 0 0z m145 156l0 0c0 0 0 0 0 0 0 0-1-1-1-1l-1 0c0 0 0 0 0 0 0 0 0 0 0 0l-1-1c0 0 0 0 0 0 0 0-1 0-1 0l0-1c0 0 0 0-1 0 0 0 0 0 0 0l-1 0c0 0 0 0 0-1 0 0 0 0 0 0l-1 0c0 0 0 0 0 0-1 0-1 0-1-1l0 0c-1 0-1 0-1 0 0 0 0 0 0 0l-1-1c0 0 0 0 0 0 0 0 0 0-1 0l0 0c0 0 0 0-1 0 0-1 0-1 0-1l-1 0c0 0 0 0 0 0 0 0 0 0 0 0l-1-1c0 0 0 0 0 0-1 0-1 0-1 0l0 0c0-1-1-1-1-1 0 0 0 0 0 0l-1 0c0 0 0 0 0 0 0 0 0-1 0-1l-1 0c0 0 0 0-1 0 0 0 0 0 0 0l0-1c-1 0-1 0-1 0 0 0 0 0 0 0l-1-1c0 0 0 0 0 0 0 0 0 0 0 0l-1 0c-1 0-1 0-1-1 0 0 0 0 0 0l-1 0c0 0 0 0 0 0 0 0 0 0-1-1l0 0c0 0 0 0 0 0 0 0-1 0-1 0l-1-1c0 0 0 0 0 0 0 0 0 0 0 0l-1 0c0 0 0 0 0 0 0-1-1-1-1-1l0 0c0 0 0 0-1 0 0 0 0 0 0 0l-1-1c0 0 0 0 0 0 0 0 0 0 0 0l-1 0c0-1 0-1 0-1-1 0-1 0-1 0l0 0c0 0-1 0-1 0 0 0 0-1 0-1l-1 0c0 0 0 0 0 0 0 0 0 0 0 0l-1-1c0 0 0 0-1 0 0 0 0 0 0 0l0 0c-8-4-17-2-21 6-5 7-2 17 6 21l0 0c0 0 0 0 1 0 0 0 0 1 0 1l1 0c0 0 0 0 0 0 0 0 0 0 0 0l1 1c0 0 0 0 0 0 1 0 1 0 1 0l0 0c0 0 1 1 1 1 0 0 0 0 0 0l1 0c0 0 0 0 0 0 0 0 0 0 0 1l1 0c0 0 1 0 1 0 0 0 0 0 0 0l0 1c1 0 1 0 1 0 0 0 0 0 0 0l1 0c0 1 0 1 0 1 0 0 0 0 1 0l1 0c0 0 0 0 0 0 0 1 0 1 0 1l1 0c0 0 0 0 0 0 0 0 0 0 1 0l0 1c0 0 0 0 0 0 0 0 1 0 1 0l1 1c0 0 0 0 0 0 0 0 0 0 0 0l1 0c0 0 0 0 0 0 0 1 1 1 1 1l0 0c0 0 0 0 1 0 0 0 0 0 0 0l1 1c0 0 0 0 0 0 0 0 0 0 0 0l1 0c0 0 0 1 0 1 1 0 1 0 1 0l0 0c1 0 1 0 1 0 0 0 0 0 0 1l1 0c0 0 0 0 0 0 0 0 0 0 1 0l0 1c0 0 0 0 1 0 0 0 0 0 0 0l1 0c0 1 0 1 0 1 0 0 0 0 0 0l1 0c0 0 0 0 0 0 1 1 1 1 1 1l0 0c0 0 1 0 1 0 0 0 0 0 0 0l1 1c0 0 0 0 0 0 0 0 0 0 0 0l1 1c0 0 1 0 1 0 0 0 0 0 0 0l0 0c1 0 1 0 1 0 0 0 0 1 0 1l1 0c0 0 0 0 0 0 0 0 0 0 0 0l2 1c0 0 0 0 0 0 0 0 0 0 0 0l0 0c3 2 5 2 8 2 5 0 11-3 13-8 5-8 2-17-6-21z m-78-46l0-1c-1 0-1 0-1 0 0 0 0 0 0 0l-1 0c0 0 0 0 0 0 0-1-1-1-1-1l0 0c0 0-1 0-1 0 0 0 0 0 0 0l-1-1c0 0 0 0 0 0 0 0 0 0 0 0l-1-1c-1 0-1 0-1 0 0 0 0 0 0 0l-1 0c0 0 0 0 0 0 0-1 0-1-1-1l0 0c0 0 0 0-1 0 0 0 0 0 0 0l-1-1c0 0 0 0 0 0 0 0 0 0 0 0l-1 0c0-1 0-1-1-1 0 0 0 0 0 0l-1 0c0 0 0 0 0 0 0 0 0 0 0-1l-1 0c0 0 0 0-1 0 0 0 0 0 0 0l0-1c-1 0-1 0-1 0 0 0 0 0 0 0l-1-1c0 0 0 0 0 0 0 0-1 0-1 0l-1 0c0 0 0 0 0 0 0-1 0-1 0-1l-1 0c0 0 0 0 0 0-1 0-1 0-1 0l0-1c-1 0-1 0-1 0 0 0 0 0 0 0l-1-1c0 0 0 0 0 0 0 0-1 0-1 0l0 0c0 0-1 0-1 0 0-1 0-1 0-1l-1 0c0 0 0 0 0 0 0 0 0 0 0 0l-1-1c-1 0-1 0-1 0 0 0 0 0 0 0l-1 0c0 0 0-1 0-1 0 0 0 0-1 0l0 0c0 0 0 0 0 0-1 0-1 0-1-1l-1 0c0 0 0 0 0 0 0 0 0 0 0 0l-1-1c0 0 0 0-1 0 0 0 0 0 0 0l-1-1c0 0 0 0 0 0l0 0c0 0 0 0 0 0 0-1 0-1 0-1l0-1c0 0 0 0 0 0 0 0 0-1 0-1l0 0c0 0 0-1 0-1 0 0 0 0 0 0l0-1c0 0 0 0 0 0 0-1 0-1 0-1l0-1c0 0 0 0 0 0 0 0 0 0 0-1l0 0c0 0 0-1 0-1 0 0 0 0 0 0l0-1c0 0 0 0 0 0 0 0 0-1 0-1l0-1c0 0 0 0 0 0 0 0 0 0 0-1l0 0c0 0 0-1 0-1 0 0 0 0 0 0l0-1c0 0 0 0 0 0 0 0 0-1 0-1l0-1c0 0 0 0 0 0 0 0 0 0 0 0l0-1c0 0 0-1 0-1 0 0 0 0 0 0l0-1c0 0 0 0 0 0 0 0 0 0 0-1l0-1c0 0 0 0 0 0 0 0 0 0 0 0l0-1c0 0 0 0 0-1 0 0 0 0 0 0l0-1c0 0 0 0 0 0 0 0 0 0 0-1l0-1c0 0 0 0 0 0 0 0 0 0 0 0l0-1c0 0 0 0 0-1 0 0 0 0 0 0l0-1c0 0 0 0 0 0 0 0 0 0 0 0l0-2c0 0 0 0 0 0 0 0 0 0 0 0l0-1c0 0 0 0 0-1 0 0 0 0 0 0l0-1c0 0 0 0 0 0 0 0 0 0 0 0l0-2c0 0 0 0 0 0 0 0 0 0 0 0l0-1c0 0 0 0 0 0 0-1 0-1 0-1l0 0c0-9-7-16-15-16-9 0-16 7-16 16l0 0c0 0 0 0 0 1 0 0 0 0 0 0l0 1c0 0 0 0 0 0 0 0 0 0 0 0l0 2c0 0 0 0 0 0 0 0 0 0 0 0l0 1c0 0 0 0 0 0 0 1 0 1 0 1l0 1c0 0 0 0 0 0 0 0 0 0 0 0l0 2c0 0 0 0 0 0 0 0 0 0 0 0l0 1c0 0 0 0 0 0 0 1 0 1 0 1l0 1c0 0 0 0 0 0 0 0 0 0 0 0l0 2c0 0 0 0 0 0 0 0 0 0 0 0l0 1c0 0 0 0 0 0 0 1 0 1 0 1l0 1c0 0 0 0 0 0 0 0 0 0 0 0l0 1c0 1 0 1 0 1 0 0 0 0 0 0l0 1c0 0 0 0 0 0 0 1 0 1 0 1l0 1c0 0 0 0 0 0 0 0 0 0 0 0l0 1c0 1 0 1 0 1 0 0 0 0 0 0l0 1c0 0 0 0 0 0 0 0 0 1 0 1l0 1c0 0 0 0 0 0 0 0 0 0 0 0l0 1c0 0 0 1 0 1 0 0 0 0 0 0l0 1c0 0 0 0 0 0 0 0 0 1 0 1l0 0c0 1 0 1 0 1 0 0 0 0 0 0l0 1c0 0 0 1 0 1 0 0 0 0 0 0l0 1c0 0 0 0 0 0 0 0 0 1 0 1l0 0c0 1 0 1 0 1 0 0 0 0 0 0l0 1c0 0 0 0 0 1 0 0 0 0 0 0l0 0c0 1 0 1 0 1 0 0 0 1 0 1l0 0c0 0 0 1 0 1 0 0 0 0 0 0l0 1c0 0 0 0 0 1 0 0 0 0 0 0l0 0c0 1 0 1 0 1 0 0 0 0 0 1l0 0c0 0 0 0 0 1 0 0 0 0 0 0l0 1c0 0 0 0 0 0 0 1 0 1 0 1l0 0c0 0 0 0 0 0 0 1 0 1 0 1 0 0 0 1 0 1 0 0 0 0 0 1 0 0 0 0 1 0 0 1 0 1 0 1 0 0 0 1 0 1 0 0 0 0 0 0 0 1 0 1 0 1 1 0 1 1 1 1 0 0 0 0 0 1 0 0 0 0 1 0 0 0 0 1 0 1 0 0 0 0 0 1 1 0 1 0 1 0 0 0 0 1 0 1 1 0 1 0 1 0 0 0 0 1 0 1 1 0 1 0 1 0 0 0 0 0 1 1 0 0 0 0 0 0 0 0 1 0 1 0 0 1 0 1 1 1 0 0 0 0 0 0l0 0c0 0 0 0 0 0 0 0 0 0 0 0 1 0 1 1 1 1l1 0c0 0 0 0 0 0 0 0 0 0 0 0l1 1c0 0 0 0 0 0 1 0 1 0 1 0l0 0c1 0 1 1 1 1 0 0 0 0 0 0l1 0c0 0 0 0 0 0 0 0 0 0 1 0l1 1c0 0 0 0 0 0 0 0 0 0 0 0l1 1c0 0 0 0 0 0 0 0 1 0 1 0l0 0c0 0 1 1 1 1 0 0 0 0 0 0l1 0c0 0 0 0 0 0 0 0 0 0 1 1l0 0c0 0 1 0 1 0 0 0 0 0 0 0l1 1c0 0 0 0 0 0 0 0 0 0 0 0l1 1c1 0 1 0 1 0 0 0 0 0 0 0l1 0c0 0 0 0 0 0 0 0 0 1 1 1l0 0c0 0 0 0 0 0 1 0 1 0 1 0l1 1c0 0 0 0 0 0 0 0 0 0 0 0l1 0c0 0 0 0 0 1 1 0 1 0 1 0l1 0c0 0 0 0 0 0 0 0 0 0 0 0l1 1c0 0 0 0 1 0 0 0 0 0 0 0l0 1c1 0 1 0 1 0 0 0 0 0 0 0l1 0c0 0 0 0 0 1 0 0 0 0 1 0l1 0c0 0 0 0 0 0 0 0 0 0 0 1l1 0c0 0 0 0 0 0 0 0 1 0 1 0l0 1c0 0 1 0 1 0 0 0 0 0 0 0l1 0c0 1 0 1 0 1 0 0 0 0 1 0l0 0c0 0 0 0 1 0 0 0 0 1 0 1l1 0c0 0 0 0 0 0 0 0 0 0 0 0l1 1c1 0 1 0 1 0 0 0 0 0 0 0l1 0c0 0 0 0 0 1 0 0 0 0 1 0l0 0c0 0 0 0 0 0 1 0 1 0 1 0l1 1c0 0 0 0 0 0 0 0 0 0 0 0l1 0c2 2 4 2 7 2 5 0 11-3 14-8 4-8 0-17-7-21z m206-372l0 0c0 0-1 0-1 0 0 0 0 0 0 0l-1-1c0 0 0 0 0 0 0 0 0 0-1 0l0 0c0 0 0 0 0 0l-1 0c0 0 0 0 0 0 0 0 0-1 0-1l-1 0c0 0 0 0 0 0 0 0 0 0 0 0l-1 0c0 0 0 0 0 0l0 0c0-1-1-1-1-1 0 0 0 0 0 0 0 0 0 0 0 0l0 0-1 0c0 0 0 0 0 0l0 0c0 0 0 0 0 0 0 0-1 0-1 0l0-1 0 0c0 0 0 0 0 0-1 0-1 0-1 0l0 0c0 0 0 0 0 0l-1 0c0 0 0 0 0 0 0 0 0 0 0-1l-1 0c-1 0-1 0-1 0 0 0 0 0 0 0l-1 0c0 0 0-1 0-1 0 0 0 0 0 0l-1 0c0 0 0 0 0 0l0 0 0 0c0 0 0 0 0 0 0 0 0 0 0 0-1 0-1 0-1 0l0-1c0 0 0 0 0 0l-1 0c0 0 0 0 0 0 0 0 0 0 0 0l-1 0c0 0 0 0 0 0 0 0 0 0 0 0 0 0 0 0-1 0l0-1c0 0 0 0 0 0l-1 0c0 0 0 0 0 0 0 0 0 0 0 0 0 0 0 0 0 0l-1 0c0 0 0 0 0 0l0-1c0 0 0 0-1 0 0 0 0 0 0 0l0 0c0 0 0 0 0 0l0 0 0 0c0 0 0 0 0 0 0 0-1 0-1 0 0 0 0 0 0 0l0 0c0 0 0 0 0 0l-1-1c0 0 0 0 0 0 0 0 0 0-1 0 0 0 0 0 0 0l0 0c0 0 0 0 0 0l-1 0c0 0 0 0 0-1 0 0 0 0 0 0l-1 0c0 0 0 0 0 0 0 0 0 0 0 0 0 0 0 0 0 0l-1 0c0 0 0 0 0 0l0-1c0 0-1 0-1 0 0 0 0 0 0 0l-1 0c0 0 0 0 0 0 0 0-1 0-1 0l0-1c0 0 0 0 0 0-1 0-1 0-1 0l0 0c0 0 0 0 0 0l-1 0c0 0 0 0 0 0 0 0 0-1 0-1l0 0 0 0-1 0c-1 0-1 0-1 0 0 0 0 0 0 0l-1 0c0 0 0 0 0-1 0 0 0 0 0 0 0 0 0 0 0 0l-1 0c0 0 0 0 0 0l0 0c0 0 0 0 0 0-1 0-1 0-1 0l-1-1c0 0 0 0 0 0 0 0 0 0 0 0l-1 0c0 0 0 0 0 0 0 0 0 0-1-1l0 0c0 0 0 0 0 0l-1 0c0 0 0 0 0 0 0 0 0 0 0 0 0 0 0 0 0 0 0 0 0 0 0 0l-1-1c0 0 0 0-1 0 0 0 0 0 0 0l0 0c-3-1-5-1-8-1 0 0 0 0 0 0-1 0-1 0-1 0 0 0-1 0-1 0 0 0 0 0-1 1 0 0 0 0 0 0-1 0-1 0-1 0 0 0 0 0 0 0l-1 0c0 0 0 0 0 0 0 0 0 1 0 1l-1 0c0 0 0 0-1 0 0 0 0 0 0 0l0 1c-1 0-1 0-1 0 0 0 0 0 0 0l-1 0c0 0 0 0 0 0 0 0 0 0-1 1l-1 0c0 0 0 0 0 0 0 0 0 0 0 0l-1 0c0 1 0 1 0 1 0 0-1 0-1 0l0 0c0 0-1 0-1 0 0 0 0 0 0 0l-1 1c0 0 0 0 0 0 0 0 0 0-1 0l0 0c0 0 0 1-1 1 0 0 0 0 0 0l-1 0c0 0 0 0 0 0 0 0 0 0 0 0l-1 1c-1 0-1 0-1 0 0 0 0 0 0 0l0 0c-1 0-1 1-1 1 0 0 0 0-1 0l0 0c0 0 0 0 0 0 0 0-1 0-1 0l-1 1c0 0 0 0 0 0 0 0 0 0 0 0l-1 0c0 0 0 0 0 1-1 0-1 0-1 0l-1 0c0 0 0 0 0 0 0 0 0 0 0 0l-1 1c0 0 0 0 0 0-1 0-1 0-1 0l0 0c0 0-1 0-1 1 0 0 0 0 0 0l-1 0c0 0 0 0 0 0 0 0 0 0 0 0l-2 1c0 0 0 0 0 0 0 0 0 0 0 0l-1 0c0 0 0 0 0 0 0 1-1 1-1 1l0 0c0 0 0 0-1 0 0 0 0 0 0 0l-1 1c0 0 0 0 0 0 0 0 0 0-1 0l0 0c0 0 0 0-1 0 0 0 0 1 0 1l-1 0c0 0 0 0 0 0 0 0 0 0 0 0l-1 1c0 0-1 0-1 0 0 0 0 0 0 0l0 0c-1 0-1 0-1 0 0 0 0 0-1 1l0 0c-8 3-11 12-8 20 3 6 9 10 15 10 2 0 4-1 6-2l0 0c0 0 0 0 1 0 0 0 0 0 0 0l1-1c0 0 0 0 0 0 0 0 0 0 0 0l1 0c0 0 1 0 1-1 0 0 0 0 0 0l0 0c1 0 1 0 1 0 0 0 0 0 1 0l0-1c0 0 0 0 0 0 0 0 1 0 1 0l1 0c0 0 0 0 0 0 0 0 0-1 0-1l1 0c0 0 0 0 0 0 1 0 1 0 1 0l0-1c1 0 1 0 1 0 0 0 0 0 0 0l1 0c0 0 0 0 0 0 1 0 1 0 1-1l0 0c0 0 1 0 1 0 0 0 0 0 0 0l1 0c0-1 0-1 0-1 0 0 0 0 0 0l2 0c0 0 0 0 0 0 0 0 0 0 0 0l1-1c0 0 0 0 0 0 0 0 1 0 1 0l0 0c0 0 0 0 1-1 0 0 0 0 0 0l1 0c0 0 0 0 0 0 0 0 0 0 0 0l1-1c0 0 0 0 1 0 0 0 0 0 0 0l1 0c0 0 0 0 0 0 0-1 0-1 0-1l1 0c0 0 0 0 1 0 0 0 0 0 0 0l0-1c1 0 1 0 1 0 0 0 0 0 0 0l1 0c0 0 0 0 0 0 0 0 1-1 1-1l1 0c0 0 0 0 0 0 0 0 0 0 0 0l1-1c0 0 0 0 0 0 1 0 1 0 1 0l0 0c1 0 1 0 1 0 0 0 0 0 0 0l0-1 0 0c1 1 1 1 1 1 0 0 0 0 0 0l1 0c0 0 0 0 0 0 0 0 1 0 1 0l0 1c0 0 0 0 0 0 0 0 0 0 0 0 1 0 1 0 1 0l0 0c0 0 0 0 0 0l1 0c0 0 0 0 0 0 0 0 0 0 0 0 0 0 0 0 0 0 0 0 0 0 0 0l1 1 0 0c0 0 0 0 0 0l0 0c1 0 1 0 1 0 0 0 0 0 0 0l1 0c0 0 0 0 0 0 0 1 0 1 0 1l1 0c0 0 0 0 0 0l0 0c0 0 0 0 0 0 0 0 0 0 0 0 1 0 1 0 1 0l0 1c0 0 0 0 0 0l1 0c0 0 0 0 0 0 0 0 0 0 0 0l1 0c0 0 0 0 0 0 0 0 0 0 0 0 0 0 0 0 1 0l0 1c0 0 0 0 0 0l1 0c0 0 0 0 0 0 0 0 0 0 0 0 0 0 0 0 0 0l1 0c0 0 0 0 0 0l0 1c0 0 0 0 1 0 0 0 0 0 0 0l0 0 0 0c0 0 1 0 1 0 0 0 0 0 0 0l0 0c0 0 0 0 0 0l1 1c0 0 0 0 0 0 0 0 0 0 1 0l1 0c0 0 0 0 0 0 0 0 0 1 0 1l1 0c0 0 0 0 0 0 0 0 0 0 0 0 0 0 0 0 0 0l1 0c0 0 0 0 0 0l0 0 0 0c0 0 0 0 0 0l0 0c1 1 1 1 1 1 0 0 0 0 0 0l1 0c0 0 0 0 0 0l0 0c0 0 0 0 0 0 0 0 1 0 1 0l0 1c0 0 0 0 0 0 1 0 1 0 1 0l0 0c0 0 0 0 0 0l1 0c0 0 0 0 0 0 0 0 0 0 0 1l1 0c0 0 0 0 0 0l0 0c1 0 1 0 1 0 0 0 0 0 0 0l0 0c0 0 0 0 0 0l0 0 1 0c0 0 0 0 0 0 0 0 0 0 0 1 0 0 0 0 0 0l1 0 0 0c0 0 0 0 1 0 0 0 0 0 0 0 0 0 0 0 0 0l0 1c0 0 0 0 0 0l1 0c0 0 0 0 0 0 0 0 0 0 0 0 0 0 0 0 0 0l1 0c0 0 0 0 0 0 0 0 0 0 0 0 0 0 0 0 1 0l0 1c0 0 0 0 0 0l1 0c0 0 0 0 0 0 0 0 0 0 0 0 0 0 0 0 0 0l1 0c0 0 0 0 0 0l0 1c0 0 0 0 1 0 0 0 0 0 0 0l0 0c2 1 4 1 6 1 6 0 12-4 14-10 1-2 2-4 2-5 0-7-4-12-10-15z m-138 25l0 0c-1 0-1 0-1 0 0 0 0 0 0 0l-1 1c0 0 0 0 0 0 0 0-1 0-1 0l0 1c0 0-1 0-1 0 0 0 0 0 0 0l-1 1c0 0 0 0 0 0 0 0 0 0 0 0l-1 0c-1 0-1 1-1 1 0 0 0 0 0 0l-1 0c0 0 0 0 0 0 0 0 0 1-1 1l0 0c0 0 0 0 0 0-1 0-1 0-1 0l-1 1c0 0 0 0 0 0 0 0 0 0 0 0l-1 0c0 1 0 1 0 1-1 0-1 0-1 0l-1 0c0 0 0 0 0 1 0 0 0 0 0 0l-1 0c0 0 0 0 0 0-1 0-1 1-1 1l0 0c-1 0-1 0-1 0 0 0 0 0 0 1l-1 0c0 0 0 0 0 0 0 0 0 0 0 0l-2 1c0 0 0 0 0 0 0 0 0 0 0 0l-1 0c0 0 0 1 0 1 0 0-1 0-1 0l0 0c0 0-1 0-1 0 0 0 0 1 0 1l-1 0c0 0 0 0 0 0 0 0 0 0-1 0l0 1c0 0 0 0-1 0 0 0 0 0 0 0l-1 1c0 0 0 0 0 0 0 0 0 0 0 0l-1 1c0 0-1 0-1 0 0 0 0 0 0 0l0 0c-1 0-1 0-1 1 0 0 0 0-1 0l0 0c0 0 0 0 0 0 0 0-1 0-1 0l-1 1c0 0 0 0 0 0 0 0 0 0 0 0l-1 1c0 0 0 0 0 0-1 0-1 0-1 0l-1 1c0 0 0 0 0 0 0 0 0 0 0 0l-1 0c0 1 0 1 0 1-1 0-1 0-1 0l0 0c0 0-1 0-1 0 0 1 0 1 0 1l-1 0c-7 4-10 14-6 21 3 5 8 8 14 8 2 0 5-1 7-2l1 0c0 0 0 0 0 0 1-1 1-1 1-1l0 0c0 0 1 0 1 0 0 0 0 0 0 0l1-1c0 0 0 0 0 0 0 0 1 0 1 0l0-1c0 0 0 0 1 0 0 0 0 0 0 0l1 0c0 0 0-1 0-1 0 0 0 0 0 0l1 0c1 0 1 0 1 0 0-1 0-1 0-1l1 0c0 0 0 0 0 0 0 0 0 0 1-1l0 0c0 0 0 0 0 0 1 0 1 0 1 0l1-1c0 0 0 0 0 0 0 0 0 0 0 0l1 0c0 0 0-1 0-1 1 0 1 0 1 0l1 0c0 0 0 0 0 0 0 0 0-1 0-1l1 0c0 0 0 0 0 0 1 0 1 0 1-1l0 0c0 0 1 0 1 0 0 0 0 0 0 0l1-1c0 0 0 0 0 0 0 0 0 0 0 0l2-1c0 0 0 0 0 0 0 0 0 0 0 0l1 0c0 0 0 0 0-1 0 0 1 0 1 0l0 0c0 0 1 0 1 0 0 0 0 0 0 0l1-1c0 0 0 0 0 0 0 0 0 0 1 0l0-1c0 0 0 0 1 0 0 0 0 0 0 0l1-1c0 0 0 0 0 0 0 0 0 0 0 0l1-1c0 0 1 0 1 0 0 0 0 0 0 0l0 0c1 0 1 0 1 0 0-1 0-1 1-1l0 0c0 0 0 0 0 0 0 0 1 0 1 0l1-1c0 0 0 0 0 0 0 0 0 0 0 0l1-1c0 0 0 0 0 0 1 0 1 0 1 0l1 0c0-1 0-1 0-1 0 0 0 0 0 0l1 0c0 0 0-1 0-1 1 0 1 0 1 0l0 0c8-4 10-14 6-21-4-8-14-10-21-6z m218 20l0 0c0 0-1 0-1 0 0 0 0-1 0-1l-1 0c0 0 0 0 0 0 0 0 0 0 0 0l-1-1c0 0 0 0-1 0 0 0 0 0 0 0l0 0c0 0-1-1-1-1 0 0 0 0 0 0l-1 0c0 0 0 0 0 0 0 0 0 0 0-1l-1 0c-1 0-1 0-1 0 0 0 0 0 0 0l0-1c-1 0-1 0-1 0 0 0 0 0-1 0l0 0c0-1 0-1 0-1 0 0 0 0-1 0l-1 0c0 0 0 0 0 0 0-1 0-1 0-1l-1 0c0 0 0 0 0 0 0 0-1 0-1 0l0-1c0 0 0 0 0 0-1 0-1 0-1 0l-1-1c0 0 0 0 0 0 0 0 0 0 0 0l-1 0c0 0 0 0 0 0-1-1-1-1-1-1l0 0c0 0-1 0-1 0 0 0 0 0 0 0l-1-1c0 0 0 0 0 0 0 0 0 0 0 0l-1 0c0 0 0-1-1-1 0 0 0 0 0 0l-1 0c0 0 0 0 0 0 0 0 0 0 0 0l-1-1c0 0 0 0 0 0 0 0-1 0-1 0l0-1c0 0 0 0-1 0 0 0 0 0 0 0l-1 0c0-1 0-1 0-1 0 0 0 0 0 0l-1 0c0 0 0 0 0 0-1 0-1-1-1-1l0 0c0 0-1 0-1 0 0 0 0 0 0 0l-1-1c0 0 0 0 0 0 0 0 0 0 0 0l-1-1c0 0-1 0-1 0 0 0 0 0 0 0l0 0c-1 0-1 0-1 0 0-1 0-1 0-1l-1 0c0 0 0 0 0 0 0 0 0 0 0 0l-1-1c-1 0-1 0-1 0 0 0 0 0 0 0l0 0c-8-4-17-2-21 6-5 8-2 17 6 21l0 0c0 0 0 0 0 0 0 0 1 1 1 1l1 0c0 0 0 0 0 0 0 0 0 0 0 0l1 1c0 0 0 0 0 0 0 0 1 0 1 0l0 1c0 0 0 0 1 0 0 0 0 0 0 0l1 0c0 0 0 0 0 1 0 0 0 0 0 0l1 0c0 0 0 0 0 0 1 0 1 0 1 1l0 0c1 0 1 0 1 0 0 0 0 0 0 0l1 1c0 0 0 0 0 0 0 0 0 0 1 0l0 0c0 0 0 0 1 0 0 1 0 1 0 1l1 0c0 0 0 0 0 0 0 0 0 0 0 0l1 1c0 0 0 0 0 0 1 0 1 0 1 0l0 0c0 1 1 1 1 1 0 0 0 0 0 0l1 0c0 0 0 0 0 0 0 0 0 1 0 1l1 0c0 0 1 0 1 0 0 0 0 0 0 0l0 1c1 0 1 0 1 0 0 0 0 0 0 0l1 1c0 0 0 0 0 0 0 0 0 0 0 0l2 0c0 0 0 0 0 1 0 0 0 0 0 0l1 0c0 0 0 0 0 0 0 0 0 0 1 1l0 0c0 0 0 0 0 0 0 0 1 0 1 0l1 1c0 0 0 0 0 0 0 0 0 0 0 0l1 0c0 0 0 0 0 0 0 1 1 1 1 1l0 0c0 0 0 0 1 0 0 0 0 0 0 0l1 1c0 0 0 0 0 0 0 0 0 0 0 0l1 0c0 1 0 1 0 1 1 0 1 0 1 0l0 0c1 0 1 0 1 0 0 0 0 1 0 1l1 0c0 0 0 0 0 0 0 0 0 0 1 0l0 1c0 0 0 0 1 0 0 0 0 0 0 0l0 0c3 2 5 2 8 2 5 0 11-3 14-8 3-7 1-17-7-21z m26 53l0 1c1 0 1 0 1 0 0 0 0 0 0 0l1 0c0 0 0 0 0 1 0 0 1 0 1 0l0 0c0 0 1 0 1 0 0 0 0 0 0 0l1 1c0 0 0 0 0 0 0 0 0 0 0 0l1 1c1 0 1 0 1 0 0 0 0 0 0 0l1 0c0 0 0 0 0 0 0 1 1 1 1 1l0 0c0 0 0 0 1 0 0 0 0 0 0 0l1 1c0 0 0 0 0 0 0 0 0 0 0 0l1 0c0 1 0 1 1 1 0 0 0 0 0 0l1 0c0 0 0 0 0 0 0 0 0 0 0 1l1 0c0 0 0 0 1 0 0 0 0 0 0 0l0 1c1 0 1 0 1 0 0 0 0 0 1 0l0 1c0 0 0 0 0 0 0 0 0 0 0 0 0 0 0 0 0 0l-1 0c0 0 0 0 0 0-1 1-1 1-1 1l-1 0c0 0 0 0 0 0 0 0 0 0 0 0l-1 1c0 0 0 0 0 0-1 0-1 0-1 0l0 1c-1 0-1 0-1 0 0 0 0 0 0 0l-1 0c0 1 0 1 0 1 0 0 0 0-1 0l-1 0c0 0 0 0 0 1 0 0 0 0 0 0l-1 0c0 0 0 0 0 0 0 0-1 1-1 1l0 0c0 0-1 0-1 0 0 0 0 0 0 0l-1 1c0 0 0 0 0 0 0 0 0 0-1 0l0 0c-7 4-10 14-6 21 3 6 8 8 14 8 2 0 5 0 7-1l1-1c0 0 0 0 0 0 0 0 0 0 0 0l1-1c0 0 0 0 0 0 1 0 1 0 1 0l0 0c1 0 1 0 1 0 0-1 0-1 0-1l1 0c0 0 0 0 0 0 0 0 0 0 1 0l1-1c0 0 0 0 0 0 0 0 0 0 0 0l1-1c0 0 0 0 0 0 0 0 1 0 1 0l0-1c0 0 1 0 1 0 0 0 0 0 0 0l1 0c0 0 0-1 0-1 0 0 0 0 1 0l0 0c0 0 0 0 1 0 0 0 0-1 0-1l1 0c0 0 0 0 0 0 0 0 0 0 0 0l1-1c0 0 1 0 1 0 0 0 0 0 0 0l1 0c0-1 0-1 0-1l0 1c0 0 0 0 0 0 0 0 0 0 0 0l0 2c0 0 0 0 0 0 0 0 0 0 0 0l0 1c0 0 0 0 0 1 0 0 0 0 0 0l0 1c0 0 0 0 0 0 0 0 0 0 0 0l0 2c0 0 0 0 0 0 0 0 0 0 0 0l0 1c0 0 0 0 0 0 0 1 0 1 0 1l0 1c0 0 0 0 0 0 0 0 0 0 0 0l0 2c0 0 0 0 0 0 0 0 0 0 0 0l0 1c0 0 0 0 0 0 0 1 0 1 0 1l0 1c0 0 0 0 0 0 0 0 0 0 0 0l0 2c0 0 0 0 0 0 0 0 0 0 0 0l0 1c0 0 0 0 0 0 0 1 0 1 0 1l0 1c0 0 0 0 0 0 0 0 0 0 0 0l0 1c0 1 0 1 0 1 0 0 0 0 0 0l0 0c0 9 7 16 15 16 9 0 16-7 16-16l0 0c0 0 0 0 0 0 0 0 0 0 0-1l0-1c0 0 0 0 0 0 0 0 0 0 0 0l0-1c0 0 0 0 0-1 0 0 0 0 0 0l0-1c0 0 0 0 0 0 0 0 0 0 0 0l0-2c0 0 0 0 0 0 0 0 0 0 0 0l0-1c0 0 0 0 0-1 0 0 0 0 0 0l0-1c0 0 0 0 0 0 0 0 0 0 0 0l0-2c0 0 0 0 0 0 0 0 0 0 0 0l0-1c0 0 0 0 0-1 0 0 0 0 0 0l0-1c0 0 0 0 0 0 0 0 0 0 0 0l0-2c0 0 0 0 0 0 0 0 0 0 0 0l0-1c0 0 0 0 0 0 0-1 0-1 0-1l0-1c0 0 0 0 0 0 0 0 0 0 0 0l0-2c0 0 0 0 0 0 0 0 0 0 0 0l0-1c0 0 0 0 0 0 0-1 0-1 0-1l0-1c0 0 0 0 0 0 0 0 0 0 0 0l0-2c0 0 0 0 0 0 0 0 0 0 0 0l0-1c0 0 0 0 0 0 0-1 0-1 0-1l0-1c0 0 0 0 0 0 0 0 0 0 0 0l0-1c0-1 0-1 0-1 0 0 0 0 0 0l0-1c0 0 0 0 0 0 0-1 0-1 0-1l0-1c0 0 0 0 0 0 0 0 0 0 0 0l0-1c0-1 0-1 0-1 0 0 0 0 0 0l0-1c0 0 0 0 0 0 0 0 0-1 0-1l0 0c0-1 0-1 0-1 0 0 0 0 0 0l0-1c0 0 0-1 0-1 0 0 0 0 0 0l0-1c0 0 0 0 0 0 0 0 0-1 0-1l0 0c0-1 0-1 0-1 0 0 0 0 0 0l0-1c0 0 0 0 0-1 0 0 0 0 0 0l0 0c0-1 0-1 0-1 0 0 0-1 0-1l0 0c0 0 0 0 0 0 0 0 0 0 0 0 0-1 0-1 0-1 0 0 0 0 0 0 0-1 0-1 0-1 0 0 0 0 0 0 0 0 0 0 0 0 0-1 0-1 0-1 0 0 0 0 0 0 0 0-1 0-1 0 0 0 0-1 0-1 0 0 0 0 0 0 0 0 0 0 0-1 0 0 0 0 0 0 0 0 0 0 0 0 0 0 0 0 0 0 0 0 0-1 0-1 0 0 0 0 0 0 0 0-1 0-1 0 0-1 0-1 0-2 0 0 0 0 0 0 0 0 0 0 0 0 0 0 0 0 0 0-1 0-1-1-1-1 0 0 0 0 0 0 0 0 0 0 0 0 0 0 0 0 0-1-1 0-1 0-1 0 0 0 0 0 0 0 0 0 0 0 0-1 0 0 0 0 0 0-1 0-1 0-1 0 0 0 0 0 0 0 0 0 0-1-1-1 0 0 0 0 0 0 0 0 0 0 0 0 0 0 0-1-1-1 0 0 0 0 0 0 0 0 0 0 0 0 0 0-1 0-1 0 0-1 0-1-1-1 0 0 0 0 0 0l0 0c0 0 0 0 0 0-1 0-1 0-1-1l-1 0c0 0 0 0 0 0 0 0 0 0 0 0l-1-1c0 0 0 0-1 0 0 0 0 0 0 0l0 0c-1 0-1 0-1-1 0 0 0 0 0 0l-1 0c0 0 0 0 0 0 0 0 0 0-1 0l-1-1c0 0 0 0 0 0 0 0 0 0 0 0l-1-1c0 0 0 0 0 0 0 0-1 0-1 0l0 0c0 0-1 0-1-1 0 0 0 0 0 0l-1 0c0 0 0 0 0 0 0 0 0 0-1 0l0-1c0 0 0 0-1 0 0 0 0 0 0 0l-1-1c0 0 0 0 0 0 0 0 0 0 0 0l-1 0c-1 0-1-1-1-1 0 0 0 0 0 0l-1 0c0 0 0 0 0 0 0 0 0 0-1-1l0 0c0 0 0 0 0 0-1 0-1 0-1 0l-1-1c0 0 0 0 0 0 0 0 0 0 0 0l-1 0c0 0 0 0 0-1-1 0-1 0-1 0l-1 0c0 0 0 0 0 0 0 0 0 0 0 0l-1-1c0 0 0 0-1 0 0 0 0 0 0 0l0-1c-1 0-1 0-1 0 0 0 0 0 0 0l-1 0c0 0 0 0 0 0 0-1 0-1-1-1l-1 0c0 0 0 0 0 0 0 0 0 0 0 0l-1-1c0 0 0 0 0 0 0 0-1 0-1 0l0-1c0 0-1 0-1 0 0 0 0 0 0 0l-1 0c0 0 0-1 0-1 0 0 0 0-1 0l0 0c0 0 0 0-1 0 0 0 0 0 0-1l-1 0c0 0 0 0 0 0 0 0 0 0 0 0l-1-1c-1 0-1 0-1 0 0 0 0 0 0 0l-1 0c0 0 0 0 0-1 0 0 0 0-1 0l0 0c0 0 0 0 0 0-1 0-1 0-1 0l-1-1c0 0 0 0 0 0 0 0 0 0 0 0l-1 0c-7-4-17-1-21 6-4 8 0 17 7 21z"/>
    </symbol>
  
    <symbol id="icon-unlock" viewBox="0 0 512 512">
      <path d="m263 218l0-89c0-71-58-129-129-129-71 0-129 58-129 129l0 89c0 0 0 1 0 2l48 0c0-1 0-1 0-2l0-89c0-45 37-81 81-81 45 0 81 36 81 81l0 90-43 0 0 293 335 0 0-293-244 0z m95 160l0 59-36 0 0-59c-14-6-22-20-22-36 0-22 18-41 40-41 22 0 41 19 41 41-1 16-10 30-23 36z"/>
    </symbol>
  
    <symbol id="icon-menu" viewBox="0 0 512 512">
      <path d="m475 384l0 37c0 5-1 9-5 12-4 4-8 6-13 6l-402 0c-5 0-9-2-13-6-4-3-5-7-5-12l0-37c0-5 1-9 5-13 4-3 8-5 13-5l402 0c5 0 9 2 13 5 4 4 5 8 5 13z m0-146l0 36c0 5-1 10-5 13-4 4-8 6-13 6l-402 0c-5 0-9-2-13-6-4-3-5-8-5-13l0-36c0-5 1-10 5-13 4-4 8-6 13-6l402 0c5 0 9 2 13 6 4 3 5 8 5 13z m0-147l0 37c0 5-1 9-5 13-4 3-8 5-13 5l-402 0c-5 0-9-2-13-5-4-4-5-8-5-13l0-37c0-5 1-9 5-12 4-4 8-6 13-6l402 0c5 0 9 2 13 6 4 3 5 7 5 12z"/>
    </symbol>
  
    <symbol id="icon-share" viewBox="0 0 512 512">
      <path d="m340 333c-13 0-25 4-36 11l-83-65c3-7 4-15 4-23 0-8-1-16-4-23l82-66c10 8 23 12 37 12 36 0 64-28 64-64 0-35-28-64-64-64-35 0-64 29-64 64 0 8 2 15 4 21l-83 67c-10-7-23-11-36-11-35 0-64 29-64 64 0 35 29 64 64 64 14 0 26-4 36-11l84 65c-3 7-5 15-5 23 0 35 29 64 64 64 36 0 64-29 64-64 0-36-28-64-64-64z"/>
    </symbol>
  
    <symbol id="icon-docs" viewBox="0 0 512 512">
      <path d="m142 260l0 11 173 0 0-11z m0 43l0 11 173 0 0-11z m0 43l0 10 173 0 0-10z m0-127l0 11 173 0 0-11z m0 42l0 11 173 0 0-11z m0 43l0 11 173 0 0-11z m-26 208c0-11 0-22 0-33l-27 0c0-11 0-21 0-32l-29 0 0-447 337 0 0 33 29 0 0 32 28 0 0 447z m11-11l316 0 0-425-17 0 0 403-299 0z m-27-33l316 0 0-424-19 0 0 403-297 0z m-29-32l316 0 0-425-316 0z m151-348l-37 91 87 0-34-91z m1 77l-15 0 22-58 8 24z m23-13l5 13-11 0z"/>
    </symbol>
  
    <symbol id="icon-idea" viewBox="0 0 512 512">
      <path d="m2 271c1 7 2 14 3 21l55-8c0-5-1-11-1-16z m9-84l54 15c2-5 3-11 5-16l-53-19c-2 6-4 13-6 20z m171-116l-21-53c-7 3-13 6-19 9l25 51c5-3 10-5 15-7z m81-14l2-57c-7 0-14 0-21 0l2 57c6-1 12-1 17 0z m105-31c-7-3-13-6-20-9l-20 53c5 2 10 4 15 7z m126 138l-53 20c2 5 4 10 5 16l54-16c-2-7-4-13-6-20z m-435-71l44 36c3-4 7-8 11-12l-41-40c-4 5-9 11-14 16z m377-18l-40 40c4 4 8 8 11 12l44-36c-5-5-10-11-15-16z m17 191l0 0c0 5-1 11-1 16l55 8c1-6 2-14 3-21l0-1z m-197-155c-71 0-128 58-128 128 0 35 17 66 33 93 13 24 26 46 26 67l0 53c4 34 34 60 69 60 35 0 64-26 69-60l0-60c2-16 14-35 25-55 16-29 34-63 34-98 0-70-58-128-128-128z m0 375c-20 0-37-13-42-31l84 0c-5 18-22 31-42 31z m44-60l-88 0 0-14 88 0z m27-101c-12 21-23 42-26 61l-32 0 0-105c5-4 8-11 8-18 0-12-10-22-23-22-12 0-22 10-22 22 0 9 4 16 11 20l0 103-32 0c-4-23-16-45-28-66-15-26-30-53-30-81 0-56 46-102 103-102 56 0 102 46 102 102 0 29-15 58-31 86z"/>
    </symbol>
  
    <symbol id="icon-medium" viewBox="0 0 512 512">
      <path d="m0 44c2 0 4 1 6 2 49 24 98 49 147 74 3 2 5 4 5 8 0 114 0 228 0 343 0 1 0 3 0 6-2-1-4-2-6-3-48-24-96-48-144-72-3-1-5-4-8-7 0-117 0-235 0-351z m350-4c2 1 4 2 6 3 49 25 98 49 147 74 2 1 3 2 6 3-55 88-109 177-163 266-2-2-3-4-4-6-33-53-65-106-98-159-3-4-3-7 0-10 35-57 70-114 105-171 1 0 1 0 1 0z m162 437c-51-26-102-51-153-77 51-83 101-165 153-249 0 109 0 217 0 326z m-195-98c-2-1-3-2-5-3-43-21-86-43-130-64-3-2-4-4-4-8 0-49 0-99 0-149 0-1 0-2 1-3 46 75 93 150 139 226 0 0-1 1-1 1z"/>
    </symbol>
  
    <symbol id="icon-comments" viewBox="0 0 512 512">
      <path d="m459 59l-268 0c-27 0-49 23-49 50l0 168c0 27 22 49 49 49l135 0 0 44c0 13 10 23 23 23 6 0 12-2 17-7l61-60 31 0c28 0 51-23 51-51l0-165c0-28-23-51-50-51z m28 216c0 16-13 29-29 29l-36 0c-3 0-6 1-8 3l-64 64c0 0-1 0-1 0 0 0-1 0-1-1l0-55c0-6-4-11-10-11l-147 0c-15 0-27-12-27-27l0-168c0-15 12-28 27-28l268 0c15 0 28 14 28 29z m-441 123l19 0 48 49c4 4 10 6 15 6 3 0 5-1 7-2 8-3 13-11 13-19l0-34 97 0c24 0 42-16 42-38 0-7-5-12-12-12-6 0-11 5-11 12 0 11-9 16-19 16l-107 0c-7 0-13 5-13 11l0 41-48-49c-2-2-4-3-7-3l-24 0c-12 0-21-10-21-21l0-131c0-11 9-20 21-20l63 0c6 0 11-5 11-11 0-7-5-12-11-12l-63 0c-24 0-43 20-43 43l0 131c0 24 19 43 43 43z"/>
    </symbol>
  
    <symbol id="icon-user" viewBox="0 0 512 512">
      <path d="m256 0c-141 0-256 115-256 256 0 70 27 137 75 185 46 46 107 71 171 71 4 0 7 0 11 0 143-6 255-118 255-256 0-141-115-256-256-256z m-1 487c-3 0-6 0-9 0-51 0-99-17-138-50 0 0 0 0 0 0 0-65 38-120 95-139 14 7 31 11 48 11 17 0 33-4 47-11 59 19 99 75 99 138-38 30-88 49-142 51z m-4-202c-45 0-81-36-81-81 0-44 36-80 81-80 44 0 80 36 80 80 0 45-36 81-80 81z m170 131c-8-60-45-111-98-135 20-19 33-46 33-77 0-58-47-105-105-105-58 0-105 47-105 105 0 31 12 58 33 77-52 24-87 74-94 134-39-43-60-100-60-159 0-128 104-231 231-231 128 0 231 103 231 231 0 62-25 118-66 160z"/>
    </symbol>
  
    <symbol id="icon-comment" viewBox="0 0 512 512">
      <path d="m512 95c0-37-30-67-67-67l-380 0c-36 0-65 29-65 65l0 235c0 36 29 66 66 66l202 0 0 63c0 16 12 28 28 28 8 0 15-3 20-8l85-83 43 0c38 0 68-31 68-68z m-24 231c0 24-20 43-44 43l-47 0c-4 0-7 2-9 4l-89 87c-1 1-2 1-3 1-1 0-3-1-3-4l0-75c0-7-6-13-13-13l-214 0c-23 0-42-18-42-41l0-235c0-22 19-40 41-40l380 0c23 0 43 19 43 42z"/>
    </symbol>
  
    <symbol id="icon-bubble" viewBox="0 0 512 512">
      <path d="m114 361c1 0 1 0 1 0 1 1 2 2 3 3 1 1 1 1 2 2 1 2 3 4 3 6 0 1 1 1 0 1 1 3 1 5 1 7l0 65 62-42c1-1 3-2 4-2 1-1 2-2 4-2 2-1 5-2 8-2 1 0 2 0 2 0 6 1 12 1 18 1l68 0c48 0 92-19 124-51 32-32 51-76 51-124 0-49-19-93-51-125-32-32-76-51-124-51l-68 0c-49 0-92 19-124 51-32 32-51 76-51 125 0 56 26 106 67 138z m-21 150c-2-1-4-2-6-4-1 0-2-1-3-2-1-1-1-2-2-3-1-2-2-4-3-5 0-1 0-2 0-3-1-2-1-4-1-5l0-98c-48-40-78-101-78-168 0-62 25-117 65-158 40-40 96-65 157-65l68 0c122 0 222 100 222 223 0 61-25 117-65 157-40 40-96 65-157 65l-68 0c-4 0-9 0-13-1l-95 64c-1 1-3 2-4 3-2 0-3 1-4 1-3 0-6 0-9 0-1 0-3-1-4-1z"/>
    </symbol>
  
    <symbol id="icon-doc-check" viewBox="0 0 512 512">
      <path d="m419 512l-326 0c-21 0-38-17-38-38l0-436c0-21 17-38 38-38l326 0c22 0 41 18 41 38l0 436c0 20-19 38-41 38z m-326-491c-10 0-17 8-17 17l0 436c0 9 7 17 17 17l326 0c10 0 20-9 20-17l0-436c0-8-10-17-20-17z m47 310l229 0 0 21-229 0z m32 53l165 0 0 21-165 0z m192-229l80 0 0 21-80 0z m-293 0l80 0 0 21-80 0z m186 96c-47 0-85-39-85-86 0-47 38-85 85-85 47 0 86 38 86 85 0 47-39 86-86 86z m0-150c-35 0-64 29-64 64 0 36 29 64 64 64 36 0 64-28 64-64 0-35-28-64-64-64z m-5 96c-6 0-11-3-15-8l-15-23c-4-5-2-12 3-15 5-3 11-2 14 3l12 18 24-39c3-5 9-7 14-3 5 3 7 9 4 14l-27 45c-3 5-8 8-14 8 0 0 0 0 0 0z"/>
    </symbol>
  
    <symbol id="icon-edit" viewBox="0 0 512 512">
      <path d="m448 427c0 47-38 85-85 85l-278 0c-47 0-85-38-85-85l0-278c0-47 38-85 85-85l160 0c13 0 24 10 24 23 0 1-1 3-1 5-2 10-11 18-23 18l-160 0c-11 0-20 4-27 11-7 7-11 17-11 28l0 278c0 21 17 38 38 38l278 0c21 0 39-17 39-38l0-160c0-13 10-23 23-23 13 0 23 10 23 23l0 160z m64-384c0 15-5 26-13 34-45 44-89 88-134 131-14 14-28 29-43 42-5 5-11 10-17 13-23 10-46 20-69 30-6 3-13 5-19-1-5-6-4-13-1-19 10-24 21-48 32-71 3-6 8-12 13-17 54-53 108-107 162-160 5-5 10-10 16-15 14-11 30-13 47-5 17 8 26 22 26 38z"/>
    </symbol>
  
    <symbol id="icon-refresh" viewBox="0 0 512 512">
      <path d="m224 46c58 0 107 20 147 59c41 40 62 88 63 145c0 0 63 0 63 0c0 0-95 105-95 105c0 0-94-105-94-105c0 0 74 0 74 0c-1-42-17-78-48-108c-31-29-67-44-110-44c-43 0-80 16-110 46c-31 31-46 68-46 112c0 43 15 80 46 111c30 30 67 46 110 46c36 0 67-11 93-31c0 0 36 39 36 39c-37 30-80 45-129 45c-57 0-106-21-147-62c-41-40-62-90-62-148c0-58 21-108 62-148c41-41 90-62 147-62"/>
    </symbol>
  
</svg>
