<?xml version="1.0" encoding="utf-8"?>
<!-- Generator: Adobe Illustrator 16.0.0, SVG Export Plug-In . SVG Version: 6.00 Build 0)  -->
<!DOCTYPE svg PUBLIC "-//W3C//DTD SVG 1.1//EN" "http://www.w3.org/Graphics/SVG/1.1/DTD/svg11.dtd">
<svg version="1.1" id="Layer_1" xmlns="http://www.w3.org/2000/svg" xmlns:xlink="http://www.w3.org/1999/xlink" x="0px" y="0px"
	 width="128px" height="128px" viewBox="0 0 128 128" enable-background="new 0 0 128 128" xml:space="preserve">
<g>
	<path fill="none" d="M134.671-756.794c-0.005,4.892-2.777,9.723-7.907,11.777C131.897-747.073,134.668-751.903,134.671-756.794z"/>
	<path fill="none" d="M71.026-706.163c-0.016-0.308-0.071-0.615-0.071-0.922c0,0.001,0,0.001,0,0.002
		C70.955-706.776,71.01-706.47,71.026-706.163z"/>
	<path fill="none" d="M109.63-753.62c-0.29-1.117-0.422-2.234-0.41-3.328C109.208-755.854,109.34-754.737,109.63-753.62z"/>
	<path fill="none" d="M76.366-640.668c0.036,0.015,0.069,0.035,0.102,0.059c-0.032-0.03-0.066-0.057-0.102-0.071
		c-3.859-1.524-5.362-3.723-5.363-7.902C71.003-644.403,72.506-642.191,76.366-640.668z"/>
	<path fill="none" d="M128.648-767.569c-1.366-0.823-2.853-1.358-4.407-1.751C125.796-768.882,127.283-768.375,128.648-767.569z"/>
	<path fill="none" d="M59.326-701.018c-0.284,0.16-0.534,0.426-0.881,0.453c0.361-0.007,0.628-0.286,0.924-0.453
		c3.868-2.18,7.733-4.373,11.585-6.562c0,0,0,0,0-0.001c0-0.346,0.037-0.691,0.054-1.037c-0.017,0.345-0.06,0.691-0.081,1.037
		C67.064-705.391,63.194-703.198,59.326-701.018z"/>
	<path fill="none" d="M172.994-707.431c-0.019,0.248-0.055,0.496-0.055,0.744c0,13.427,0.004,26.854,0.007,40.281l0,0
		c0.021,0.13,0.042,0.261,0.063,0.391c-0.09,1.028-0.121,2.056-0.127,3.084c0.006-1.028,0.037-2.056,0.127-3.083c0,0,0,0,0,0
		c-0.021-0.13-0.042-0.261-0.062-0.391c-0.003-13.427-0.005-26.855-0.005-40.282c0-0.248,0.039-0.496,0.058-0.744
		c0.02-0.045,0.021-0.087-0.002-0.129c-0.005-0.003-0.009-0.005-0.015-0.008C173.011-707.524,173.015-707.479,172.994-707.431z"/>
	<path fill="none" d="M172.9-656.441c0.001-0.45,0.004-0.9,0.01-1.35c0.004-0.343,0.006-0.686,0.004-1.029
		c0.001,0.342,0,0.685-0.004,1.026C172.904-657.343,172.901-656.892,172.9-656.441z"/>
	<path fill="none" d="M172.845-706.488c-0.001-0.267,0.009-0.533,0.091-0.79C172.854-707.021,172.844-706.755,172.845-706.488z"/>
	<path fill="none" d="M58.468-672.976c0.377,0.011,0.642,0.313,0.944,0.483c3.835,2.155,7.658,4.332,11.484,6.502
		c0.036,0.458,0.153,0.918,0.154,1.376C71.048-665.072,71-665.532,71-665.99c0-0.002,0-0.004,0-0.006
		c-3-2.168-7.682-4.343-11.513-6.496C59.177-672.667,58.83-672.982,58.468-672.976z"/>
	<path fill="#6383BD" d="M118.224-731.341c-6.562,0-13.124-0.003-19.686-0.004c-6.562-0.001-13.124-0.001-19.685,0.005
		c-4.781,0.004-7.827,3.049-7.846,7.826c-0.019,4.851-0.002,9.701-0.008,14.551c0,0.115,0.037,0.23,0.032,0.346
		c-0.017,0.345-0.031,0.668-0.031,1.014c0,0,0-0.396,0-0.396h-0.078c0.022,0,0.078,0.727,0.078,0.88c0,0.012,0,0.023,0,0.035
		c0,0.307,0.048,0.614,0.064,0.922c0.006,0.106,0.005,0.212,0.005,0.318c0.005,12.721,0.009,25.441,0.004,38.162
		c0,0.399-0.074,0.799-0.074,1.199c0,0.025,0,0.05,0,0.076c0,0.139-0.058,0.278-0.086,0.418c-0.003-0.002-0.01-0.004-0.014-0.006
		c0,0.002-0.002,0.004-0.002,0.006c0.036,0.458,0.101,0.918,0.102,1.376c0.007,5.344,0.003,10.688,0.004,16.032
		c0.001,4.179,1.503,6.378,5.363,7.902c0.036,0.014,0.069,0.041,0.102,0.071c0.062,0.044,0.12,0.325,0.18,0.375
		c0.013,0.005,0.025,0.234,0.039,0.234c15.125,0,30.249,0,45.374,0c0.002-31,0.004-60.699,0.007-90.941
		C120.788-731.062,119.491-730.987,118.224-731.341z M103.792-676.796c-5.053,0.011-9.099-4.009-9.127-9.069
		c-0.027-4.979,4.117-9.12,9.116-9.107c4.959,0.012,9.057,4.095,9.075,9.043C112.874-680.885,108.827-676.807,103.792-676.796z"/>
	<path fill="#4C70AE" d="M172.9-656.441c0.001-0.451,0.004-0.902,0.01-1.353c0.004-0.342,0.006-0.684,0.004-1.026
		c-0.003-1.37-0.041-2.741-0.033-4.111c0.006-1.028,0.064-2.056,0.155-3.084c-0.021-0.13-0.037-0.26-0.037-0.391l0,0
		c0,0.001,0,0.001,0,0.001c0-0.292-0.093-0.583-0.112-0.874c-0.006-0.097-0.023-0.194-0.023-0.292
		c-0.005-12.866-0.011-25.731-0.011-38.597c0-0.107-0.005-0.214-0.006-0.32c-0.001-0.267,0.007-0.533,0.089-0.79
		c0.017-0.051,0.035-0.103,0.058-0.153c0.021-0.048,0.016-0.093-0.012-0.137c-0.026-2.03-0.067-4.06-0.075-6.091
		c-0.013-3.209,0.006-6.42-0.007-9.629c-0.02-5.077-2.99-8.043-8.054-8.045c-13.054-0.006-26.107-0.004-39.161-0.005
		c-1.194,0.326-2.417,0.277-3.621,0.397l0,0c-0.002,30.242-0.004,59.941-0.007,90.941c14.982,0,29.964,0,44.946,0
		c0.177-1,0.561-0.458,0.842-0.562c2.914-1.076,4.763-3.219,4.945-6.325c0.104-1.794,0.122-3.648,0.12-5.447
		C172.91-653.684,172.896-655.091,172.9-656.441z M140.145-676.795c-5.045,0-9.08-4.036-9.096-9.101
		c-0.017-4.973,4.149-9.107,9.148-9.076c4.961,0.03,9.039,4.122,9.043,9.074C149.245-680.857,145.187-676.796,140.145-676.795z"/>
	<path fill="#9FABBD" d="M109.22-756.948c-0.012,1.094,0.121,2.211,0.41,3.328c1.083,4.179,3.709,7.069,7.704,8.701
		c0.515,0.21,0.968,0.353,0.961,1.067c-0.042,4.17-0.051,8.34-0.071,12.51c1.268,0.354,2.564,0.054,3.842,0.174l0,0
		c1.204-0.12,2.426,0.155,3.621-0.171c-0.019-3.992-0.01-7.984-0.079-11.975c-0.016-0.93,0.276-1.351,1.157-1.704
		c5.13-2.055,7.901-6.886,7.907-11.777c0.005-3.572-1.465-7.176-4.566-9.754c-0.468-0.389-0.955-0.725-1.457-1.021
		c-1.366-0.805-2.853-1.312-4.407-1.751c-0.197-0.056-0.396,0.144-0.595,0.09c-0.03-0.009-0.059,0.23-0.089,0.23
		c-1.07,0-2.14,0-3.21,0c-0.053,0-0.105-0.245-0.159-0.23c-0.181,0.05-0.363,0.036-0.548,0.07
		C113.512-768.008,109.279-762.86,109.22-756.948z"/>
	<path fill="#39517A" d="M58.305-672.976c0.362-0.006,0.739,0.309,1.05,0.483c3.831,2.153,7.679,4.328,11.502,6.496
		c0.003,0.002,0.033,0.004,0.037,0.006c0.029-0.14,0.107-0.279,0.107-0.418c0-0.025,0-0.05,0-0.076c0,0.025-0.01,0.05-0.011,0.076
		c0-13.571,0.004-27.142,0.004-40.712c0.001,0.013,0.007,0.025,0.007,0.038c0-0.001,0-0.001,0-0.002c0-0.012,0-0.023,0-0.035
		c0-0.153-0.074-0.88-0.096-0.88h0.007c-3.863,2-7.696,4.592-11.563,6.772c-0.296,0.167-0.707,0.551-1.067,0.558
		c-0.039,0.001-0.28,0.107-0.28,0.101c0,0,0,0.001,0,0.002c0,9.201,0,18.401,0,27.603C58-672.973,58.259-672.978,58.305-672.976z"/>
	<path fill="#39517A" d="M186-672.96c0-9.203,0-18.406,0-27.609c0,0.009-0.277,0.011-0.33,0.008
		c-0.331-0.019-0.635-0.26-0.893-0.405c-3.899-2.195-7.846-4.399-11.741-6.601c0.002,0.003-0.019,0.006-0.018,0.008
		c0.023,0.042,0.012,0.084-0.008,0.129c-0.019,0.248-0.063,0.496-0.063,0.744c0,13.427,0,26.855,0.003,40.282
		c0.021,0.13,0.04,0.26,0.061,0.39c3.826-2.163,7.648-4.331,11.481-6.478c0.315-0.177,0.753-0.497,1.156-0.482
		C185.711-672.979,186-672.976,186-672.96z"/>
	<path fill="#9FABBD" d="M71-707.12c0,13.57,0,27.141,0,40.712c0-0.025-0.004-0.05-0.003-0.076c0.03-0.4,0.073-0.8,0.073-1.199
		c0.005-12.721,0.002-25.441-0.002-38.162c0-0.106-0.004-0.212-0.01-0.318c-0.016-0.307-0.041-0.613-0.062-0.919
		C70.995-707.095,71-707.107,71-707.12z"/>
	<path fill="#9FABBD" d="M172.994-707.431c-0.022,0.05-0.042,0.102-0.058,0.153c-0.082,0.257-0.092,0.523-0.091,0.79
		c0,0.106,0.002,0.213,0.002,0.32c0,12.866-0.001,25.731,0.003,38.597c0,0.097,0.031,0.194,0.037,0.292
		c0.02,0.291,0.112,0.583,0.112,0.874c0,0,0,0,0-0.001c0-13.426-0.033-26.854-0.033-40.281
		C172.967-706.935,172.975-707.183,172.994-707.431z"/>
</g>
<g>
	<circle fill="#D85642" cx="281.418" cy="-696.418" r="64"/>
	<path fill="#FDF7E4" d="M314.047-701.528c0.893-8.535-1.042-16.297-6.096-23.258c-0.172-0.236-0.32-0.491-0.479-0.737l-0.026-0.039
		c-0.097-0.127-0.192-0.255-0.288-0.382c-0.213-0.199-0.449-0.379-0.636-0.6c-4.665-5.48-10.508-9.014-17.51-10.667
		c-13.08-3.088-27.136,2.582-34.422,13.832c-5.492,8.48-6.536,17.618-4.163,27.266c1.862,7.568,5.269,14.477,9.359,21.053
		c6.186,9.946,13.663,18.859,21.945,27.114c10.046-9.948,19.027-20.731,25.663-33.292
		C310.757-687.604,313.289-694.275,314.047-701.528z M281.709-686.445c-10.475-0.015-19.08-8.625-19.062-19.074
		c0.017-10.456,8.646-19.081,19.091-19.08c10.481,0,19.082,8.578,19.098,19.047C300.854-694.985,292.287-686.428,281.709-686.445z"
		/>
	<g>
		<path fill="#B84536" d="M344.935-688.671c-0.296-0.265-0.599-0.524-0.879-0.806c-11.688-11.689-23.372-23.383-35.065-35.067
			c-0.053-0.053-0.104-0.11-0.156-0.167c-0.358-0.405-0.691-0.881-1.362-0.812c0.159,0.246,0.307,0.5,0.479,0.737
			c5.054,6.961,6.989,14.723,6.096,23.258c-0.758,7.253-3.29,13.925-6.652,20.29c-6.636,12.561-15.617,23.344-25.663,33.292
			c0.089,0.646,0.614,0.979,1.013,1.395c4.079,4.245,8.481,8.176,12.311,12.664C321.384-639.604,341.656-661.515,344.935-688.671z"
			/>
	</g>
	<path fill="#B84536" d="M307.158-725.945c0.096,0.127,0.191,0.255,0.288,0.382C307.5-725.804,307.542-726.035,307.158-725.945z"/>
	<path fill="#D85643" d="M281.738-724.599c-10.444-0.001-19.074,8.624-19.091,19.08c-0.018,10.449,8.587,19.059,19.062,19.074
		c10.578,0.017,19.145-8.541,19.127-19.106C300.819-716.021,292.219-724.598,281.738-724.599z M281.673-696.012
		c-5.156-0.014-9.383-4.275-9.402-9.478c-0.019-5.262,4.232-9.504,9.508-9.489c5.273,0.016,9.507,4.282,9.459,9.533
		C291.189-700.158,286.971-695.998,281.673-696.012z"/>
	<path fill="#FDF7E4" d="M281.779-714.979c-5.276-0.015-9.526,4.227-9.508,9.489c0.019,5.203,4.246,9.464,9.402,9.478
		c5.298,0.014,9.517-4.146,9.565-9.434C291.286-710.697,287.052-714.963,281.779-714.979z"/>
</g>
<g>
	<path fill="#89A02B" d="M418-653v-39.843l50.093-21.364l28.009,23.459c0.141-1.734,0.273-3.481,0.273-5.252
		c0-35.346-28.632-64-63.979-64c-35.346,0-63.989,28.654-63.989,64s28.659,64,64.005,64c2.842,0,5.637-0.213,8.38-0.572L416.488-653
		H418z"/>
	<path fill="#798225" d="M496.186-690.748l-28.093-23.459L418-692.843V-653h-1.512l24.307,20.428
		C470.471-636.454,493.738-660.645,496.186-690.748z"/>
	<polygon fill="#FDF7E4" points="418,-692.843 418,-735.631 418,-739 415,-739 415,-654.072 416.488,-653 418,-653 	"/>
	<polygon fill="#FDF7E4" points="468.334,-714.238 468.116,-714.331 468.263,-714.207 	"/>
	<polygon fill="#FDF7E4" points="418,-692.843 468.093,-714.207 467.861,-714.331 418,-735.631 	"/>
</g>
<g>
	<g>
		<path fill="#1A1A1A" d="M872.199-754.257c-24.992-24.996-65.514-24.994-90.508,0s-24.994,65.515,0,90.507
			c24.994,24.996,65.516,24.996,90.508,0C897.193-688.742,897.195-729.263,872.199-754.257z M860.887-675.062
			c-18.713,18.715-49.166,18.715-67.882,0c-18.716-18.712-18.714-49.167,0-67.88c18.715-18.715,49.167-18.715,67.882,0
			C879.604-724.229,879.602-693.777,860.887-675.062z M849.518-720.373c-3.094-3.094-8.111-3.092-11.205,0l-8.541,8.542
			c-1.561,1.562-4.094,1.562-5.656,0l-8.543-8.542c-3.094-3.092-8.107-3.092-11.199,0l-0.113,0.112
			c-3.094,3.094-3.094,8.107,0,11.202l17.084,17.083c3.092,3.096,8.107,3.096,11.199,0l0.059-0.055l5.656-5.656l11.369-11.372
			c3.096-3.093,3.096-8.108,0-11.202L849.518-720.373z"/>
	</g>
</g>
<path fill="#1A1A1A" d="M1031.672-754.257c-24.992-24.996-65.514-24.994-90.508,0s-24.994,65.515,0,90.507
	c24.994,24.996,65.516,24.996,90.508,0C1056.666-688.742,1056.668-729.263,1031.672-754.257z M1020.359-675.062
	c-18.713,18.715-49.166,18.715-67.882,0c-18.716-18.712-18.714-49.167,0-67.88c18.715-18.715,49.167-18.715,67.882,0
	C1039.076-724.229,1039.074-693.777,1020.359-675.062z"/>
<polygon points="973,-683.887 1010.836,-710.159 1010.751,-710.311 973,-736.504 "/>
<g>
	<g>
		
			<line fill="none" stroke="#1A1A1A" stroke-width="8" stroke-linecap="round" stroke-miterlimit="10" x1="110" y1="-531" x2="110" y2="-454"/>
		
			<polyline fill="none" stroke="#1A1A1A" stroke-width="8" stroke-linecap="round" stroke-linejoin="round" stroke-miterlimit="10" points="
			114.577,-485.597 161.968,-508.593 114.577,-524.814 		"/>
	</g>
	
		<circle fill="none" stroke="#1A1A1A" stroke-width="8" stroke-linecap="round" stroke-miterlimit="10" cx="128.114" cy="-492" r="64"/>
</g>
<g>
	<path fill="#EA6E52" d="M326.149-512.378L278.815-528.6c-0.624-0.213-0.815-0.246-1.815-0.155V-531c0-2.209-1.791-4-4-4
		s-4,1.791-4,4v77c0,2.209,1.791,4,4,4s4-1.791,4-4v-27.641c0,0.028,0.328,0.045,0.523,0.045c0.586,0,1.151-0.13,1.713-0.402
		l47.377-22.996c1.458-0.708,2.338-2.225,2.241-3.843C328.755-510.455,327.683-511.854,326.149-512.378z M277-489.764v-31.021
		l37.486,12.831L277-489.764z"/>
	<path fill="#EA6E52" d="M291-560c-37.495,0-68,30.504-68,68c0,37.494,30.505,68,68,68s68-30.506,68-68
		C359-529.496,328.495-560,291-560z M291-432c-33.084,0-60-26.916-60-60s26.916-60,60-60s60,26.916,60,60S324.084-432,291-432z"/>
</g>
<path fill="none" stroke="#000000" stroke-width="8" stroke-miterlimit="10" d="M700.119-722.236
	c0.759-7.261-0.887-13.864-5.187-19.786c-0.146-0.201-0.272-0.417-0.407-0.626l-0.022-0.033c-0.082-0.108-0.163-0.217-0.245-0.326
	c-0.182-0.169-0.381-0.322-0.541-0.51c-3.969-4.662-8.939-7.668-14.896-9.074c-11.126-2.627-23.083,2.196-29.281,11.767
	c-4.672,7.214-5.56,14.987-3.541,23.195c1.584,6.437,4.481,12.314,7.962,17.908c5.262,8.46,11.623,16.043,18.668,23.064
	c8.546-8.462,16.186-17.635,21.83-28.319C697.32-710.391,699.474-716.067,700.119-722.236z M672.609-709.406
	c-8.91-0.013-16.23-7.337-16.215-16.226c0.015-8.894,7.355-16.23,16.24-16.23c8.916,0.001,16.231,7.298,16.246,16.204
	C688.896-716.67,681.607-709.391,672.609-709.406z"/>
<g>
	
		<circle fill="none" stroke="#1A1A1A" stroke-width="8" stroke-linecap="round" stroke-miterlimit="10" cx="479.529" cy="-491.775" r="64"/>
	<path stroke="#1A1A1A" stroke-width="3" stroke-miterlimit="10" d="M494.002-513.637c7.678,0,14.255,5.658,15.301,13.164
		c0.727,5.215-0.725,9.609-4.434,13.434c-7.802,8.045-21.795,22.059-24.521,24.785c-0.279,0.281-0.598,0.34-0.815,0.34
		s-0.536-0.059-0.815-0.34c-6.135-6.158-17.272-17.35-23.713-23.836c-2.894-2.912-4.596-6.039-5.203-9.557
		c-1.088-6.295,1.904-12.676,7.443-15.879c2.381-1.375,5.057-2.104,7.742-2.104c3.916,0,7.688,1.521,10.621,4.283
		c1.293,1.219,2.579,1.59,3.664,1.59c1.396,0,2.459-0.613,2.779-0.82c0.686-0.447,1.348-0.908,2.003-1.361
		c1.177-0.82,2.288-1.592,3.343-2.123C489.473-513.105,491.694-513.637,494.002-513.637 M494.002-518.721
		c-2.972,0-5.996,0.67-8.865,2.113c-2.015,1.016-3.82,2.453-5.831,3.766l0,0c0,0-0.13-0.104-0.25-0.217
		c-3.961-3.729-8.985-5.654-14.069-5.654c-3.501,0-7.029,0.914-10.255,2.779c-7.414,4.285-11.36,12.73-9.903,21.158
		c0.836,4.844,3.195,8.846,6.605,12.281c6.443,6.486,17.582,17.682,23.719,23.84c1.211,1.217,2.795,1.822,4.38,1.822
		c1.581,0,3.163-0.604,4.372-1.814c6.301-6.303,17.89-17.945,24.575-24.84c4.717-4.863,6.772-10.871,5.822-17.691
		C512.848-511.611,503.698-518.721,494.002-518.721L494.002-518.721z"/>
</g>
<g>
	<path fill="none" d="M654.002-512.137c-2.068,0-4.064,0.477-5.932,1.416c-0.972,0.489-2.084,1.265-3.159,2.014l-0.167,0.116
		c-0.613,0.424-1.233,0.854-1.874,1.271c-0.499,0.322-1.837,1.063-3.599,1.063c-1.683,0-3.305-0.691-4.693-1.998
		c-2.653-2.499-6.06-3.875-9.592-3.875c-2.42,0-4.838,0.658-6.992,1.902c-4.998,2.89-7.696,8.646-6.715,14.324
		c0.554,3.206,2.12,6.069,4.789,8.755c6.354,6.4,17.281,17.381,23.464,23.587c2.532-2.532,16.448-16.468,24.261-24.522
		c3.366-3.472,4.683-7.456,4.024-12.183C666.874-507.033,660.936-512.137,654.002-512.137z"/>
	<path fill="none" d="M639.528-551.775c-33.084,0-60,26.916-60,60s26.916,60,60,60c33.085,0,60.001-26.916,60.001-60
		S672.613-551.775,639.528-551.775z M669.557-482.442c-7.927,8.175-21.875,22.14-24.591,24.856
		c-1.451,1.453-3.381,2.254-5.434,2.254c-2.057,0-3.989-0.804-5.442-2.265c-6.137-6.157-17.277-17.354-23.721-23.841
		c-3.877-3.906-6.174-8.187-7.02-13.083c-1.557-9.009,2.715-18.137,10.631-22.712c3.373-1.95,7.179-2.98,11.006-2.98
		c5.298,0,10.396,1.938,14.451,5.477c0.302-0.206,0.6-0.414,0.896-0.62c1.31-0.911,2.664-1.853,4.127-2.591
		c3-1.509,6.21-2.273,9.541-2.273c10.924,0,20.289,8.098,21.785,18.836C676.785-494.224,674.63-487.674,669.557-482.442z"/>
	<path fill="#EA6E52" d="M639.528-559.775c-37.495,0-68,30.505-68,68s30.505,68,68,68c37.496,0,68.001-30.505,68.001-68
		S677.024-559.775,639.528-559.775z M639.528-431.775c-33.084,0-60-26.916-60-60s26.916-60,60-60c33.085,0,60.001,26.916,60.001,60
		S672.613-431.775,639.528-431.775z"/>
	<path fill="#EA6E52" d="M654.002-520.221c-3.331,0-6.541,0.765-9.541,2.273c-1.463,0.738-2.817,1.68-4.127,2.591
		c-0.297,0.206-0.595,0.414-0.896,0.62c-4.055-3.538-9.153-5.477-14.451-5.477c-3.827,0-7.633,1.03-11.006,2.98
		c-7.916,4.575-12.188,13.703-10.631,22.712c0.846,4.896,3.143,9.177,7.02,13.083c6.443,6.487,17.584,17.684,23.721,23.841
		c1.453,1.461,3.386,2.265,5.442,2.265c2.053,0,3.982-0.801,5.434-2.254c2.716-2.717,16.664-16.682,24.591-24.856
		c5.073-5.231,7.229-11.781,6.23-18.942C674.291-512.123,664.926-520.221,654.002-520.221z M663.793-488.083
		c-7.812,8.055-21.729,21.99-24.261,24.522c-6.183-6.206-17.109-17.187-23.464-23.587c-2.669-2.686-4.235-5.549-4.789-8.755
		c-0.981-5.678,1.717-11.435,6.715-14.324c2.154-1.244,4.572-1.902,6.992-1.902c3.532,0,6.938,1.376,9.592,3.875
		c1.389,1.307,3.011,1.998,4.693,1.998c1.762,0,3.1-0.741,3.599-1.063c0.641-0.418,1.261-0.848,1.874-1.271l0.167-0.116
		c1.075-0.749,2.188-1.524,3.159-2.014c1.867-0.939,3.863-1.416,5.932-1.416c6.934,0,12.872,5.104,13.815,11.871
		C668.476-495.539,667.159-491.555,663.793-488.083z"/>
</g>
<g>
	
		<circle fill="none" stroke="#1A1A1A" stroke-width="8" stroke-linecap="round" stroke-miterlimit="10" cx="829.529" cy="-487.863" r="64"/>
	<polygon fill="none" stroke="#1A1A1A" stroke-width="8" stroke-linecap="round" stroke-miterlimit="10" points="829.619,-468.467 
		850.739,-457.363 846.706,-480.881 863.792,-497.536 840.18,-500.967 829.619,-522.363 819.06,-500.967 795.447,-497.536 
		812.533,-480.881 808.5,-457.363 	"/>
</g>
<g>
	<path fill="#EA6E52" d="M989.528-555.863c-37.495,0-68,30.505-68,68s30.505,68,68,68c37.496,0,68.001-30.505,68.001-68
		S1027.024-555.863,989.528-555.863z M989.528-427.863c-33.084,0-60-26.916-60-60s26.916-60,60-60c33.085,0,60.001,26.916,60.001,60
		S1022.613-427.863,989.528-427.863z"/>
	<path fill="#EA6E52" d="M1006.794-504.048c-2.177-0.316-4.755-2.189-5.729-4.162l-9.676-19.604c-0.974-1.973-2.567-1.973-3.541,0
		l-9.675,19.604c-0.974,1.973-3.552,3.846-5.729,4.162l-21.636,3.144c-2.177,0.316-2.669,1.832-1.094,3.367l15.655,15.261
		c1.575,1.535,2.56,4.566,2.188,6.734l-3.696,21.549c-0.371,2.168,0.918,3.104,2.865,2.081l19.35-10.174
		c1.947-1.023,5.135-1.023,7.082,0l19.351,10.173c1.948,1.023,3.236,0.087,2.865-2.081l-3.696-21.548
		c-0.371-2.168,0.613-5.199,2.188-6.734l15.655-15.261c1.575-1.535,1.083-3.051-1.094-3.367L1006.794-504.048z M1004.751-468.617
		c0.371,2.168-0.917,3.104-2.864,2.081l-8.728-4.589c-1.947-1.023-5.133-1.023-7.08,0l-8.727,4.588
		c-1.947,1.023-3.235,0.087-2.864-2.081l1.667-9.717c0.372-2.168-0.613-5.199-2.188-6.734l-7.06-6.882
		c-1.575-1.535-1.083-3.051,1.094-3.367l9.757-1.417c2.177-0.316,4.755-2.189,5.729-4.162l4.362-8.841
		c0.974-1.973,2.567-1.973,3.541,0l4.363,8.841c0.974,1.973,3.552,3.846,5.729,4.162l9.757,1.417
		c2.177,0.316,2.669,1.832,1.094,3.367l-7.06,6.882c-1.575,1.535-2.56,4.566-2.188,6.734L1004.751-468.617z"/>
</g>
<g>
	<g>
		
			<line fill="none" stroke="#1A1A1A" stroke-width="8" stroke-linecap="round" stroke-miterlimit="10" x1="100.498" y1="-292.483" x2="126.584" y2="-271.554"/>
		
			<line fill="none" stroke="#1A1A1A" stroke-width="8" stroke-linecap="round" stroke-miterlimit="10" x1="126.584" y1="-271.554" x2="147.833" y2="-328.102"/>
	</g>
	
		<circle fill="none" stroke="#1A1A1A" stroke-width="8" stroke-linecap="round" stroke-miterlimit="10" cx="127.114" cy="-299" r="64"/>
</g>
<g>
	<path fill="#EA6E52" d="M309.241-331.846c-2.07-0.78-4.375,0.269-5.151,2.337l-19.307,51.381L263-295.604
		c-1.722-1.381-4.24-1.106-5.623,0.617c-1.382,1.723-1.106,4.24,0.617,5.623l26.087,20.93c0.067,0.054,0.14,0.092,0.209,0.14
		c0.085,0.061,0.168,0.12,0.259,0.174c0.157,0.093,0.318,0.17,0.482,0.239c0.05,0.021,0.093,0.052,0.145,0.071
		c0.015,0.006,0.03,0.007,0.044,0.013c0.159,0.058,0.322,0.097,0.485,0.134c0.065,0.015,0.13,0.038,0.196,0.05
		c0.185,0.031,0.372,0.044,0.559,0.05c0.041,0.001,0.082,0.011,0.123,0.011c0.264,0,0.522-0.035,0.777-0.086
		c0.065-0.014,0.128-0.028,0.192-0.045c0.226-0.057,0.446-0.129,0.658-0.224c0.031-0.014,0.062-0.022,0.093-0.036
		c0.235-0.112,0.454-0.253,0.663-0.408c0.053-0.04,0.104-0.081,0.156-0.124c0.208-0.172,0.406-0.357,0.578-0.571
		c0.001-0.002,0.002-0.003,0.003-0.004l0-0.001c0.151-0.188,0.282-0.396,0.399-0.614c0.039-0.073,0.069-0.147,0.104-0.222
		c0.04-0.087,0.087-0.168,0.121-0.259l21.249-56.548C312.355-328.763,311.309-331.069,309.241-331.846z"/>
	<path fill="#EA6E52" d="M287.114-367c-37.495,0-68,30.505-68,68s30.505,68,68,68s68-30.505,68-68S324.609-367,287.114-367z
		 M287.114-239c-33.084,0-60-26.916-60-60s26.916-60,60-60s60,26.916,60,60S320.198-239,287.114-239z"/>
</g>
<g id="ojCDV6.tif">
	<g>
		<path d="M862.028-216.144c0,3.931,0,7.861,0,11.792c-0.307,2.519-0.551,5.046-0.929,7.553
			c-3.958,26.228-16.432,47.498-37.464,63.624c-13.191,10.114-28.137,16.259-44.637,18.491c-3.623,0.491-7.275,0.762-10.916,1.133
			c-1.703,0-3.406,0-5.109,0c-0.641-0.094-1.278-0.214-1.922-0.278c-3.514-0.348-7.059-0.491-10.537-1.054
			c-18.607-3.007-35.047-10.708-49.084-23.304c-16.098-14.445-26.355-32.308-30.435-53.578c-0.993-5.179-1.329-10.483-1.968-15.731
			c0-1.834,0-3.668,0-5.503c0.098-0.703,0.249-1.404,0.286-2.111c0.916-17.457,6.057-33.573,15.813-48.067
			c15.3-22.73,36.47-36.74,63.449-41.807c3.718-0.697,7.5-1.053,11.252-1.566c3.931,0,7.861,0,11.792,0
			c0.435,0.111,0.864,0.292,1.304,0.323c13.17,0.937,25.669,4.366,37.259,10.658c27.512,14.935,44.364,37.797,50.296,68.59
			C861.169-223.4,861.521-219.757,862.028-216.144z M819.908-205.904c0-2.951,0-5.601,0-8.455c-16.756,0-33.358,0-50.172,0
			c0-16.813,0-33.416,0-50.124c-2.856,0-5.5,0-8.392,0c0,16.761,0,33.413,0,50.243c-16.854,0-33.46,0-50.16,0
			c0,2.83,0,5.479,0,8.342c16.755,0,33.415,0,50.287,0c0,16.873,0,33.533,0,50.148c2.87,0,5.522,0,8.338,0
			c0-16.754,0-33.368,0-50.154C786.585-205.904,803.193-205.904,819.908-205.904z"/>
	</g>
</g>
<path d="M522.42-269.174l1.094,0.094l1.094-0.094c17.369,0.02,32.318,4.394,41.81,8.064c4.732,1.83,8.628,3.676,11.487,5.156
	c0.187,5.107,0.376,12.521,0.311,20.479c-0.212,25.646-2.819,33.527-3.613,35.331c-4.44,10.087-9.936,18.937-16.332,26.303
	c-5.078,5.848-10.752,10.8-16.864,14.718c-8.102,5.193-14.921,7.25-17.896,7.965c-2.973-0.713-9.786-2.764-17.88-7.949
	c-6.11-3.916-11.783-8.866-16.862-14.715c-6.399-7.369-11.897-16.225-16.342-26.321c-0.791-1.799-3.392-9.652-3.611-35.192
	c-0.069-7.994,0.122-15.477,0.31-20.622c2.709-1.402,6.362-3.138,10.806-4.886C489.564-264.636,504.746-269.154,522.42-269.174
	 M524.486-282.105c-0.331,0-0.654,0.02-0.973,0.047c-0.318-0.027-0.642-0.047-0.973-0.047c-38.236,0-66.016,18.458-66.016,18.458
	s-3.068,52.507,4.066,68.714c22.588,51.314,62.105,56.882,62.922,56.938c0.76-0.047,40.334-5.623,62.923-56.938
	c7.134-16.207,4.065-68.714,4.065-68.714S562.723-282.105,524.486-282.105L524.486-282.105z"/>
<g>
	<g>
		<path fill="#00FFFF" d="M1073.03-223.521c0,0-31.074-20.647-73.851-20.647c-0.371,0-0.731,0.018-1.088,0.053
			c-0.356-0.035-0.717-0.053-1.088-0.053c-42.775,0-73.853,20.647-73.853,20.647s-3.431,58.737,4.551,76.869
			c25.268,57.406,69.476,63.638,70.39,63.698c0.85-0.055,45.122-6.292,70.394-63.698
			C1076.465-164.783,1073.03-223.521,1073.03-223.521z M1059.285-192.002c-0.236,28.689-3.151,37.504-4.04,39.523
			c-4.969,11.283-11.115,21.184-18.271,29.428c-5.683,6.538-12.029,12.078-18.868,16.465c-9.062,5.809-16.691,8.107-20.021,8.91
			c-3.325-0.798-10.946-3.094-20.001-8.896c-6.836-4.382-13.182-9.917-18.865-16.462c-7.157-8.244-13.309-18.151-18.28-29.445
			c-0.886-2.012-3.793-10.799-4.039-39.37c-0.079-8.942,0.135-17.312,0.346-23.069c3.031-1.569,7.118-3.51,12.088-5.467
			c10.778-4.242,27.763-9.297,47.533-9.318l1.225,0.105l1.225-0.105c19.433,0.021,36.154,4.913,46.771,9.02
			c5.297,2.05,9.651,4.113,12.853,5.769C1059.146-209.199,1059.359-200.905,1059.285-192.002z"/>
		<path fill="#00FFFF" d="M992.472-209.188l-28.451,71.893h68.223l-26.599-71.893H992.472z M993.325-148.408h-11.876l17.457-45.796
			l6.469,18.554L993.325-148.408z M1011.898-158.71l3.884,10.302h-8.377L1011.898-158.71z"/>
	</g>
</g>
<g>
	<g>
		<path fill="#00FFFF" d="M123.591,16.394c0,0-24.672-16.394-58.635-16.394c-0.294,0-0.581,0.014-0.864,0.042
			C63.812,0.014,63.522,0,63.228,0C29.266,0,4.591,16.394,4.591,16.394S1.868,63.029,8.205,77.426
			C28.266,123.005,63.366,127.951,64.092,128c0.675-0.043,35.826-4.995,55.891-50.574C126.318,63.029,123.591,16.394,123.591,16.394
			z M112.677,41.419c-0.188,22.778-2.502,29.776-3.207,31.38c-3.946,8.958-8.826,16.819-14.506,23.365
			c-4.512,5.19-9.551,9.589-14.981,13.072c-7.195,4.612-13.252,6.437-15.896,7.074c-2.641-0.633-8.691-2.457-15.88-7.062
			c-5.428-3.479-10.466-7.874-14.979-13.07c-5.683-6.546-10.567-14.412-14.514-23.379c-0.703-1.598-3.012-8.574-3.207-31.259
			c-0.063-7.1,0.106-13.745,0.274-18.316c2.407-1.245,5.651-2.789,9.597-4.341c8.558-3.368,22.043-7.381,37.74-7.398l0.972,0.084
			l0.972-0.084c15.429,0.018,28.706,3.901,37.135,7.161c4.206,1.628,7.663,3.267,10.204,4.58
			C112.567,27.764,112.736,34.35,112.677,41.419z"/>
		<path fill="#00FFFF" d="M59.63,27.773L37.04,84.854h54.167L70.088,27.773H59.63z M60.307,76.03h-9.429l13.861-36.36l5.136,14.731
			L60.307,76.03z M75.054,67.852l3.083,8.179h-6.65L75.054,67.852z"/>
	</g>
</g>
<g>
	<path fill="#FFFFFF" d="M126.691-975.007c-18.565,0-33.679,15.105-33.679,33.672s15.113,33.674,33.679,33.674
		c17.812,0,32.861-15.422,32.861-33.674C159.553-959.585,144.503-975.007,126.691-975.007z M141.666-925.894
		c-4.028,4.217-9.341,6.541-14.975,6.541c-12.12,0-21.981-9.861-21.981-21.982c0-12.122,9.861-21.983,21.981-21.983
		c5.634,0,10.946,2.322,14.975,6.533c3.99,4.192,6.196,9.681,6.196,15.45S145.656-930.083,141.666-925.894z"/>
	<path fill="#FFFFFF" d="M249.824-974.645l-26.312,66.485h63.092l-24.596-66.485H249.824z M250.613-918.437h-10.982l16.145-42.353
		l5.98,17.161L250.613-918.437z M267.791-927.962l3.59,9.525h-7.744L267.791-927.962z"/>
	<path fill="#FFFFFF" d="M77.338-926.784c-0.065,0.072-6.95,7.4-17.585,7.4c-11.918,0-20.897-9.627-20.897-22.388
		c0-12.519,8.751-21.605,20.813-21.605c9.693,0,16.397,6.134,16.46,6.187l1.705,1.608l6.429-9.714l-1.062-1.137
		c-0.338-0.359-8.36-8.744-23.879-8.744C40.325-975.177,26-960.777,26-941.689c0,9.354,3.325,17.968,9.365,24.259
		c6.153,6.406,14.72,9.938,24.125,9.938c16.176,0,25.051-10.033,25.422-10.463l1.037-1.203l-7-9.373L77.338-926.784z"/>
	<polygon fill="#FFFFFF" points="184.112,-974.645 170.405,-974.645 170.405,-908.159 210.85,-908.159 210.85,-920.489 
		184.112,-920.489 	"/>
	<path fill="#FFFFFF" d="M337.824-943.346c3.635-3.098,5.732-8.05,5.732-13.305c0-10.579-7.982-17.994-19.865-17.994h-23.34v66.485
		h23.861c13.029,0,21.787-7.984,21.787-19.66C346-934.567,342.887-940.41,337.824-943.346z M312-962.305h11.512
		c4.625,0,7.289,2.891,7.289,7.408c0,4.473-2.797,7.673-7.109,7.673H312V-962.305z M324.645-920.489H312v-16.453h12.555
		c5.27,0,8.684,3.049,8.684,8.268C333.238-923.349,330.021-920.489,324.645-920.489z"/>
</g>
</svg>
