<svg xmlns="http://www.w3.org/2000/svg" version="1.1" x="0" y="0" width="320" height="68" viewBox="0 0 320 68" enable-background="new 0 0 320 68" xml:space="preserve"><path fill="#FFFFFF" d="M100.7 0.2c-18.6 0-33.7 15.1-33.7 33.7s15.1 33.7 33.7 33.7c17.8 0 32.9-15.4 32.9-33.7C133.6 15.6 118.5 0.2 100.7 0.2zM115.7 49.3c-4 4.2-9.3 6.5-15 6.5 -12.1 0-22-9.9-22-22 0-12.1 9.9-22 22-22 5.6 0 10.9 2.3 15 6.5 4 4.2 6.2 9.7 6.2 15.5S119.7 45.1 115.7 49.3zM223.8 0.5l-26.3 66.5h63.1L236 0.5H223.8zM224.6 56.7h-11l16.1-42.4 6 17.2L224.6 56.7zM241.8 47.2l3.6 9.5h-7.7L241.8 47.2zM51.3 48.4c-0.1 0.1-6.9 7.4-17.6 7.4 -11.9 0-20.9-9.6-20.9-22.4 0-12.5 8.8-21.6 20.8-21.6 9.7 0 16.4 6.1 16.5 6.2l1.7 1.6 6.4-9.7L57.2 8.7C56.9 8.4 48.8 0 33.3 0 14.3 0 0 14.4 0 33.5c0 9.4 3.3 18 9.4 24.3 6.2 6.4 14.7 9.9 24.1 9.9 16.2 0 25.1-10 25.4-10.5l1-1.2 -7-9.4L51.3 48.4z"/><polygon fill="#FFFFFF" points="158.1 0.5 144.4 0.5 144.4 67 184.9 67 184.9 54.7 158.1 54.7 "/><path fill="#FFFFFF" d="M311.8 31.8c3.6-3.1 5.7-8 5.7-13.3 0-10.6-8-18-19.9-18h-23.3v66.5h23.9c13 0 21.8-8 21.8-19.7C320 40.6 316.9 34.8 311.8 31.8zM286 12.9h11.5c4.6 0 7.3 2.9 7.3 7.4 0 4.5-2.8 7.7-7.1 7.7H286V12.9zM298.6 54.7H286V38.2h12.6c5.3 0 8.7 3 8.7 8.3C307.2 51.8 304 54.7 298.6 54.7z"/></svg>