<?xml version="1.0" encoding="utf-8"?>
<!-- Generator: Adobe Illustrator 16.0.0, SVG Export Plug-In . SVG Version: 6.00 Build 0)  -->
<!DOCTYPE svg PUBLIC "-//W3C//DTD SVG 1.1//EN" "http://www.w3.org/Graphics/SVG/1.1/DTD/svg11.dtd">
<svg version="1.1" id="Layer_1" xmlns="http://www.w3.org/2000/svg" xmlns:xlink="http://www.w3.org/1999/xlink" x="0px" y="0px"
	 width="320px" height="68px" viewBox="0 0 320 68" enable-background="new 0 0 320 68" xml:space="preserve">
<path fill="#11A9F4" d="M100.7,0.2C82.1,0.2,67,15.3,67,33.9s15.1,33.7,33.7,33.7c17.8,0,32.9-15.397,32.9-33.7
	C133.6,15.6,118.5,0.2,100.7,0.2z M115.7,49.3c-4,4.2-9.3,6.5-15,6.5c-12.1,0-22-9.899-22-22c0-12.1,9.9-22,22-22
	c5.6,0,10.9,2.3,15,6.5c4,4.2,6.2,9.7,6.2,15.5S119.7,45.1,115.7,49.3z M223.8,0.5L197.5,67h63.1L236,0.5H223.8z M224.6,56.7h-11
	L229.7,14.3l6,17.2L224.6,56.7z M241.8,47.2l3.601,9.5h-7.698L241.8,47.2z M51.3,48.4c-0.1,0.1-6.9,7.397-17.6,7.397
	c-11.9,0-20.9-9.6-20.9-22.4c0-12.5,8.8-21.6,20.8-21.6c9.7,0,16.4,6.1,16.5,6.2l1.7,1.6l6.4-9.7l-1-1.2C56.9,8.4,48.8,0,33.3,0
	C14.3,0,0,14.4,0,33.5c0,9.4,3.3,18,9.4,24.3c6.2,6.4,14.7,9.9,24.1,9.9c16.2,0,25.1-10,25.4-10.5l1-1.2l-7-9.4L51.3,48.4z"/>
<polygon fill="#11A9F4" points="158.1,0.5 144.4,0.5 144.4,67 184.9,67 184.9,54.7 158.1,54.7 "/>
<path fill="#11A9F4" d="M311.8,31.8c3.603-3.1,5.7-8,5.7-13.3c0-10.6-8-18-19.9-18h-23.3V67h23.9c13,0,21.8-8,21.8-19.7
	C320,40.6,316.9,34.8,311.8,31.8z M286,12.9h11.5c4.6,0,7.3,2.9,7.3,7.4S302,28,297.7,28H286V12.9z M298.6,54.7H286V38.2h12.6
	c5.301,0,8.7,3,8.7,8.3C307.2,51.8,304,54.7,298.6,54.7z"/>
</svg>
