<?xml version="1.0" encoding="utf-8"?>
<!-- Generator: Adobe Illustrator 16.0.0, SVG Export Plug-In . SVG Version: 6.00 Build 0)  -->
<!DOCTYPE svg PUBLIC "-//W3C//DTD SVG 1.1//EN" "http://www.w3.org/Graphics/SVG/1.1/DTD/svg11.dtd">
<svg version="1.1" id="Layer_1" xmlns="http://www.w3.org/2000/svg" xmlns:xlink="http://www.w3.org/1999/xlink" x="0px" y="0px"
	 width="320px" height="68px" viewBox="0 0 320 68" enable-background="new 0 0 320 68" xml:space="preserve">
<g>
	<path fill="#FFFFFF" d="M100.691,0.17c-18.565,0-33.679,15.105-33.679,33.672s15.113,33.674,33.679,33.674
		c17.812,0,32.861-15.422,32.861-33.674C133.553,15.592,118.503,0.17,100.691,0.17z M115.666,49.283
		c-4.028,4.217-9.341,6.541-14.975,6.541c-12.12,0-21.981-9.861-21.981-21.982c0-12.122,9.861-21.983,21.981-21.983
		c5.634,0,10.946,2.322,14.975,6.533c3.99,4.192,6.196,9.681,6.196,15.45S119.656,45.094,115.666,49.283z"/>
	<path fill="#FFFFFF" d="M223.824,0.532l-26.312,66.485h63.092L236.008,0.532H223.824z M224.613,56.74h-10.982l16.145-42.353
		l5.98,17.161L224.613,56.74z M241.791,47.215l3.59,9.525h-7.744L241.791,47.215z"/>
	<path fill="#FFFFFF" d="M51.338,48.393c-0.065,0.072-6.95,7.4-17.585,7.4c-11.918,0-20.897-9.627-20.897-22.388
		c0-12.519,8.751-21.605,20.813-21.605c9.693,0,16.397,6.134,16.46,6.187l1.705,1.608l6.429-9.714L57.2,8.744
		C56.862,8.385,48.84,0,33.321,0C14.325,0,0,14.399,0,33.487c0,9.354,3.325,17.968,9.365,24.259
		c6.153,6.406,14.72,9.938,24.125,9.938c16.176,0,25.051-10.033,25.422-10.463l1.037-1.203l-7-9.373L51.338,48.393z"/>
	<polygon fill="#FFFFFF" points="158.112,0.532 144.405,0.532 144.405,67.018 184.85,67.018 184.85,54.688 158.112,54.688 	"/>
	<path fill="#FFFFFF" d="M311.824,31.831c3.635-3.098,5.732-8.05,5.732-13.305c0-10.579-7.982-17.994-19.865-17.994h-23.34v66.485
		h23.861c13.029,0,21.787-7.984,21.787-19.66C320,40.609,316.887,34.767,311.824,31.831z M286,12.872h11.512
		c4.625,0,7.289,2.891,7.289,7.408c0,4.473-2.797,7.673-7.109,7.673H286V12.872z M298.645,54.688H286V38.234h12.555
		c5.27,0,8.684,3.049,8.684,8.268C307.238,51.828,304.021,54.688,298.645,54.688z"/>
</g>
</svg>
