<?xml version="1.0" encoding="utf-8"?>
<!-- Generator: Adobe Illustrator 16.0.0, SVG Export Plug-In . SVG Version: 6.00 Build 0)  -->
<!DOCTYPE svg PUBLIC "-//W3C//DTD SVG 1.1//EN" "http://www.w3.org/Graphics/SVG/1.1/DTD/svg11.dtd">
<svg version="1.1" id="Layer_1" xmlns="http://www.w3.org/2000/svg" xmlns:xlink="http://www.w3.org/1999/xlink" x="0px" y="0px"
	 width="680px" height="680px" viewBox="0 0 680 680" enable-background="new 0 0 680 680" xml:space="preserve">
<circle fill-rule="evenodd" clip-rule="evenodd" fill="#D85642" cx="340" cy="340" r="340"/>
<g id="_x39_v0EYd.tif">
	<g>
		<path fill-rule="evenodd" clip-rule="evenodd" fill="#E9D56C" d="M340.958,679.928c-52.718,0.385-102.853-10.691-150.268-33.848
			c0.039-48.68,0.075-97.359,0.129-146.041c0.003-3.314,0.134-6.631,0.205-9.947c14.728,7.086,28.542,15.812,42.692,23.92
			c8.998,5.158,17.536,5.119,26.267-0.088c24.448-14.576,48.889-29.166,73.335-43.746c2.088-1.246,4.322-2.34,4.798-5.102
			c0.858,0.309,1.715,0.617,2.573,0.926c0.577,0.883,1.153,1.768,1.731,2.65c-1.637,2.58-1.505,5.486-1.505,8.357
			C340.927,544.65,340.943,612.287,340.958,679.928z"/>
		<path fill-rule="evenodd" clip-rule="evenodd" fill="#D5C157" d="M340.958,679.928c-0.016-67.641-0.031-135.277-0.042-202.918
			c0-2.871-0.132-5.777,1.503-8.355c25.076,14.836,50.258,29.496,75.176,44.59c10.236,6.199,19.664,5.961,29.816-0.09
			c14.207-8.469,28.777-16.332,43.191-24.455c0.035,48.379,0.064,96.76,0.111,145.139c0.004,3.754,0.127,7.508,0.193,11.262
			c-28.752,14.469-59.127,24.023-90.744,29.676C380.6,678.271,360.887,680.434,340.958,679.928z"/>
		<path fill-rule="evenodd" clip-rule="evenodd" fill="#FEEF87" d="M338.117,465.076c-0.475,2.762-2.709,3.855-4.797,5.102
			c-24.446,14.58-48.888,29.17-73.335,43.746c-8.73,5.207-17.269,5.246-26.267,0.088c-14.15-8.107-27.965-16.834-42.692-23.92
			c-4.544-3.971-10.082-6.334-15.229-9.309c-21.646-12.502-43.374-24.865-65.041-37.328c-9.579-5.51-9.733-10.055-0.465-15.561
			c26.433-15.699,52.912-31.32,79.371-46.971c12.493,5.637,23.917,13.209,35.803,19.941
			C263.073,422.166,300.575,443.66,338.117,465.076z"/>
		<path fill-rule="evenodd" clip-rule="evenodd" fill="#FEEF87" d="M490.604,488.699c-14.414,8.123-28.984,15.986-43.191,24.455
			c-10.152,6.051-19.58,6.289-29.816,0.09c-24.918-15.094-50.1-29.754-75.176-44.59c-0.576-0.885-1.152-1.77-1.729-2.652
			c0.146-0.309,0.272-0.625,0.383-0.949c1.232-0.477,2.549-0.805,3.68-1.455c37.197-21.326,74.307-42.807,111.596-63.969
			c11.291-6.408,21.947-14.062,34.357-18.4c25.061,15,50.123,30,75.18,45.008c2.275,1.365,4.672,2.598,6.723,4.256
			c4.146,3.352,4.158,7.215,0.02,10.514c-2.059,1.637-4.48,2.832-6.775,4.16C540.775,459.686,515.688,474.191,490.604,488.699z"/>
		<path fill-rule="evenodd" clip-rule="evenodd" fill="#FEEF87" d="M189.723,380.129c-23.864-14.332-47.726-28.668-71.59-42.998
			c-1.515-0.911-3.059-1.776-4.561-2.708c-8.653-5.373-8.695-9.82-0.047-14.912c6.663-3.924,13.416-7.697,20.125-11.543
			c34.126-19.556,68.335-38.969,102.324-58.758c10.079-5.867,19.233-5.859,29.201,0.204c24.73,15.043,49.726,29.652,74.609,44.433
			c-1.663,2.52-4.312,3.751-6.8,5.175c-30.361,17.36-60.669,34.805-91.112,52.019C224.547,360.836,207.675,371.455,189.723,380.129z
			"/>
		<path fill-rule="evenodd" clip-rule="evenodd" fill="#FEEF87" d="M340.894,294.169c24.731-14.601,49.596-28.982,74.129-43.906
			c10.387-6.318,19.842-6.503,30.398-0.37c39.93,23.202,80.088,46.013,120.158,68.974c1.342,0.769,2.723,1.487,3.986,2.372
			c5.482,3.838,5.691,8.473,0.111,12.121c-7.023,4.59-14.34,8.736-21.568,13.009c-19.016,11.238-38.053,22.441-57.078,33.658
			c-2.715-0.336-4.994-1.707-7.301-3.027c-29.178-16.719-58.305-33.531-87.561-50.113c-18.273-10.356-36.131-21.464-54.926-30.895
			C341.127,295.384,341.01,294.777,340.894,294.169z"/>
		<path fill-rule="evenodd" clip-rule="evenodd" fill="#D5C157" d="M340.894,294.169c0.116,0.608,0.233,1.215,0.346,1.825
			c-0.057,56.354-0.111,112.708-0.166,169.059c-0.111,0.324-0.238,0.641-0.383,0.949c-0.857-0.309-1.715-0.617-2.573-0.926
			c-37.543-21.416-75.045-42.91-112.655-64.211c-11.885-6.732-23.31-14.305-35.803-19.941c-0.06-0.273-0.043-0.539,0.06-0.799
			c17.955-8.67,34.827-19.289,52.153-29.084c30.442-17.214,60.751-34.659,91.112-52.019c2.488-1.423,5.137-2.655,6.8-5.175
			C340.189,293.847,340.557,293.954,340.894,294.169z"/>
		<path fill-rule="evenodd" clip-rule="evenodd" fill="#E9D56C" d="M341.074,465.053c0.055-56.352,0.109-112.705,0.166-169.059
			c18.799,9.43,36.656,20.537,54.93,30.894c29.256,16.582,58.383,33.394,87.561,50.113c2.307,1.32,4.586,2.691,7.301,3.027
			c-0.117,0.4-0.223,0.801-0.322,1.203c-12.412,4.336-23.068,11.99-34.359,18.398c-37.289,21.162-74.398,42.643-111.596,63.969
			C343.623,464.248,342.307,464.576,341.074,465.053z"/>
	</g>
</g>
</svg>
